<svg width="600" height="372" viewBox="0 0 600 372" fill="none" xmlns="http://www.w3.org/2000/svg">
<g clip-path="url(#clip0_1620_2)">
<rect width="600" height="372" fill="#402BFF"/>
<rect x="-94.8438" y="-10.3799" width="101.612" height="101.612" transform="rotate(-9.71525 -94.8438 -10.3799)" fill="#5500FF"/>
<rect x="5.3125" y="-27.5278" width="101.612" height="101.612" transform="rotate(-9.71525 5.3125 -27.5278)" fill="#0800FF"/>
<rect x="105.465" y="-44.6748" width="101.612" height="101.612" transform="rotate(-9.71525 105.465 -44.6748)" fill="#5500FF"/>
<rect x="-94.8438" y="-10.3799" width="101.612" height="101.612" transform="rotate(-9.71525 -94.8438 -10.3799)" fill="#5500FF"/>
<rect x="5.3125" y="-27.5278" width="101.612" height="101.612" transform="rotate(-9.71525 5.3125 -27.5278)" fill="#0800FF"/>
<rect x="105.465" y="-44.6748" width="101.612" height="101.612" transform="rotate(-9.71525 105.465 -44.6748)" fill="#5500FF"/>
<rect x="205.621" y="-61.8228" width="101.612" height="101.612" transform="rotate(-9.71525 205.621 -61.8228)" fill="#0800FF"/>
<rect x="305.773" y="-78.9697" width="101.612" height="101.612" transform="rotate(-9.71525 305.773 -78.9697)" fill="#5500FF"/>
<rect x="405.93" y="-96.1167" width="101.612" height="101.612" transform="rotate(-9.71525 405.93 -96.1167)" fill="#0800FF"/>
<rect x="205.621" y="-61.8228" width="101.612" height="101.612" transform="rotate(-9.71525 205.621 -61.8228)" fill="#0800FF"/>
<rect x="305.773" y="-78.9697" width="101.612" height="101.612" transform="rotate(-9.71525 305.773 -78.9697)" fill="#5500FF"/>
<rect x="405.93" y="-96.1167" width="101.612" height="101.612" transform="rotate(-9.71525 405.93 -96.1167)" fill="#0800FF"/>
<rect x="-60.5469" y="189.93" width="101.612" height="101.612" transform="rotate(-9.71525 -60.5469 189.93)" fill="#5500FF"/>
<rect x="39.6055" y="172.783" width="101.612" height="101.612" transform="rotate(-9.71525 39.6055 172.783)" fill="#0800FF"/>
<rect x="139.762" y="155.636" width="101.612" height="101.612" transform="rotate(-9.71525 139.762 155.636)" fill="#5500FF"/>
<rect x="-60.5469" y="189.93" width="101.612" height="101.612" transform="rotate(-9.71525 -60.5469 189.93)" fill="#5500FF"/>
<rect x="39.6055" y="172.783" width="101.612" height="101.612" transform="rotate(-9.71525 39.6055 172.783)" fill="#0800FF"/>
<rect x="139.762" y="155.636" width="101.612" height="101.612" transform="rotate(-9.71525 139.762 155.636)" fill="#5500FF"/>
<rect x="239.914" y="138.488" width="101.612" height="101.612" transform="rotate(-9.71525 239.914 138.488)" fill="#0800FF"/>
<rect x="340.07" y="121.341" width="101.612" height="101.612" transform="rotate(-9.71525 340.07 121.341)" fill="#5500FF"/>
<rect x="440.223" y="104.193" width="101.612" height="101.612" transform="rotate(-9.71525 440.223 104.193)" fill="#0800FF"/>
<rect x="540.383" y="87.0459" width="101.612" height="101.612" transform="rotate(-9.71525 540.383 87.0459)" fill="#5500FF"/>
<rect x="239.914" y="138.488" width="101.612" height="101.612" transform="rotate(-9.71525 239.914 138.488)" fill="#0800FF"/>
<rect x="340.07" y="121.341" width="101.612" height="101.612" transform="rotate(-9.71525 340.07 121.341)" fill="#5500FF"/>
<rect x="440.223" y="104.193" width="101.612" height="101.612" transform="rotate(-9.71525 440.223 104.193)" fill="#0800FF"/>
<rect x="540.383" y="87.0459" width="101.612" height="101.612" transform="rotate(-9.71525 540.383 87.0459)" fill="#5500FF"/>
<rect width="101.612" height="101.612" transform="matrix(-0.985659 0.168752 0.168752 0.985659 657.684 170.056)" fill="#0800FF"/>
<rect width="101.612" height="101.612" transform="matrix(-0.985659 0.168752 0.168752 0.985659 557.531 187.203)" fill="#5500FF"/>
<rect width="101.612" height="101.612" transform="matrix(-0.985659 0.168752 0.168752 0.985659 457.371 204.349)" fill="#0800FF"/>
<rect width="101.612" height="101.612" transform="matrix(-0.985659 0.168752 0.168752 0.985659 357.219 221.497)" fill="#5500FF"/>
<rect width="101.612" height="101.612" transform="matrix(-0.985659 0.168752 0.168752 0.985659 657.684 170.056)" fill="#0800FF"/>
<rect width="101.612" height="101.612" transform="matrix(-0.985659 0.168752 0.168752 0.985659 557.531 187.203)" fill="#5500FF"/>
<rect width="101.612" height="101.612" transform="matrix(-0.985659 0.168752 0.168752 0.985659 457.371 204.349)" fill="#0800FF"/>
<rect width="101.612" height="101.612" transform="matrix(-0.985659 0.168752 0.168752 0.985659 357.219 221.497)" fill="#5500FF"/>
<rect width="101.612" height="101.612" transform="matrix(-0.985659 0.168752 0.168752 0.985659 257.062 238.644)" fill="#0800FF"/>
<rect width="101.612" height="101.612" transform="matrix(-0.985659 0.168752 0.168752 0.985659 156.91 255.791)" fill="#5500FF"/>
<rect width="101.612" height="101.612" transform="matrix(-0.985659 0.168752 0.168752 0.985659 56.7539 272.938)" fill="#0800FF"/>
<rect width="101.612" height="101.612" transform="matrix(-0.985659 0.168752 0.168752 0.985659 257.062 238.644)" fill="#0800FF"/>
<rect width="101.612" height="101.612" transform="matrix(-0.985659 0.168752 0.168752 0.985659 156.91 255.791)" fill="#5500FF"/>
<rect width="101.612" height="101.612" transform="matrix(-0.985659 0.168752 0.168752 0.985659 56.7539 272.938)" fill="#0800FF"/>
<rect width="101.612" height="101.612" transform="matrix(-0.985659 0.168752 0.168752 0.985659 623.391 -30.2563)" fill="#0800FF"/>
<rect width="101.612" height="101.612" transform="matrix(-0.985659 0.168752 0.168752 0.985659 523.234 -13.1089)" fill="#5500FF"/>
<rect width="101.612" height="101.612" transform="matrix(-0.985659 0.168752 0.168752 0.985659 423.078 4.03906)" fill="#0800FF"/>
<rect width="101.612" height="101.612" transform="matrix(-0.985659 0.168752 0.168752 0.985659 322.922 21.186)" fill="#5500FF"/>
<rect width="101.612" height="101.612" transform="matrix(-0.985659 0.168752 0.168752 0.985659 623.391 -30.2563)" fill="#0800FF"/>
<rect width="101.612" height="101.612" transform="matrix(-0.985659 0.168752 0.168752 0.985659 523.234 -13.1089)" fill="#5500FF"/>
<rect width="101.612" height="101.612" transform="matrix(-0.985659 0.168752 0.168752 0.985659 423.078 4.03906)" fill="#0800FF"/>
<rect width="101.612" height="101.612" transform="matrix(-0.985659 0.168752 0.168752 0.985659 322.922 21.186)" fill="#5500FF"/>
<rect width="101.612" height="101.612" transform="matrix(-0.985659 0.168752 0.168752 0.985659 222.77 38.3325)" fill="#0800FF"/>
<rect width="101.612" height="101.612" transform="matrix(-0.985659 0.168752 0.168752 0.985659 122.613 55.4805)" fill="#5500FF"/>
<rect width="101.612" height="101.612" transform="matrix(-0.985659 0.168752 0.168752 0.985659 22.457 72.6274)" fill="#0800FF"/>
<rect width="101.612" height="101.612" transform="matrix(-0.985659 0.168752 0.168752 0.985659 222.77 38.3325)" fill="#0800FF"/>
<rect width="101.612" height="101.612" transform="matrix(-0.985659 0.168752 0.168752 0.985659 122.613 55.4805)" fill="#5500FF"/>
<rect width="101.612" height="101.612" transform="matrix(-0.985659 0.168752 0.168752 0.985659 22.457 72.6274)" fill="#0800FF"/>
<rect x="-26.8555" y="386.747" width="101.612" height="101.612" transform="rotate(-9.71525 -26.8555 386.747)" fill="#5500FF"/>
<rect x="73.3008" y="369.599" width="101.612" height="101.612" transform="rotate(-9.71525 73.3008 369.599)" fill="#0800FF"/>
<rect x="173.457" y="352.451" width="101.612" height="101.612" transform="rotate(-9.71525 173.457 352.451)" fill="#5500FF"/>
<rect x="-26.8555" y="386.747" width="101.612" height="101.612" transform="rotate(-9.71525 -26.8555 386.747)" fill="#5500FF"/>
<rect x="73.3008" y="369.599" width="101.612" height="101.612" transform="rotate(-9.71525 73.3008 369.599)" fill="#0800FF"/>
<rect x="173.457" y="352.451" width="101.612" height="101.612" transform="rotate(-9.71525 173.457 352.451)" fill="#5500FF"/>
<rect x="273.613" y="335.307" width="101.612" height="101.612" transform="rotate(-9.71525 273.613 335.307)" fill="#0800FF"/>
<rect x="373.77" y="318.158" width="101.612" height="101.612" transform="rotate(-9.71525 373.77 318.158)" fill="#5500FF"/>
<rect x="473.922" y="301.01" width="101.612" height="101.612" transform="rotate(-9.71525 473.922 301.01)" fill="#0800FF"/>
<rect x="574.078" y="283.863" width="101.612" height="101.612" transform="rotate(-9.71525 574.078 283.863)" fill="#5500FF"/>
<rect x="273.613" y="335.307" width="101.612" height="101.612" transform="rotate(-9.71525 273.613 335.307)" fill="#0800FF"/>
<rect x="373.77" y="318.158" width="101.612" height="101.612" transform="rotate(-9.71525 373.77 318.158)" fill="#5500FF"/>
<rect x="473.922" y="301.01" width="101.612" height="101.612" transform="rotate(-9.71525 473.922 301.01)" fill="#0800FF"/>
<rect x="574.078" y="283.863" width="101.612" height="101.612" transform="rotate(-9.71525 574.078 283.863)" fill="#5500FF"/>
<mask id="path-69-outside-1_1620_2" maskUnits="userSpaceOnUse" x="112" y="170" width="465" height="83" fill="black">
<rect fill="white" x="112" y="170" width="465" height="83"/>
<path d="M178.466 198H172.125C172.057 195.614 171.58 193.409 170.693 191.386C169.807 189.341 168.568 187.557 166.977 186.034C165.386 184.511 163.489 183.33 161.284 182.489C159.102 181.648 156.659 181.227 153.955 181.227C149.5 181.227 145.239 182.398 141.17 184.739C137.102 187.057 133.602 190.466 130.67 194.966C127.739 199.466 125.739 204.966 124.67 211.466C123.602 217.875 123.773 223.273 125.182 227.659C126.591 232.023 128.898 235.33 132.102 237.58C135.33 239.83 139.114 240.955 143.455 240.955C146.227 240.955 148.886 240.534 151.432 239.693C153.977 238.852 156.318 237.682 158.455 236.182C160.591 234.659 162.466 232.875 164.08 230.83C165.693 228.784 166.943 226.568 167.83 224.182H174.239C173.125 227.386 171.568 230.375 169.568 233.148C167.568 235.898 165.205 238.307 162.477 240.375C159.773 242.443 156.784 244.057 153.511 245.216C150.261 246.375 146.807 246.955 143.148 246.955C137.193 246.955 132.159 245.466 128.045 242.489C123.955 239.511 121.045 235.318 119.318 229.909C117.614 224.477 117.375 218.08 118.602 210.716C119.807 203.489 122.114 197.216 125.523 191.898C128.955 186.58 133.159 182.477 138.136 179.591C143.114 176.682 148.523 175.227 154.364 175.227C158.091 175.227 161.432 175.807 164.386 176.966C167.341 178.102 169.852 179.716 171.92 181.807C174.011 183.875 175.614 186.284 176.727 189.034C177.841 191.784 178.42 194.773 178.466 198ZM248.531 211.466C247.327 218.67 245.009 224.932 241.577 230.25C238.145 235.568 233.952 239.682 228.997 242.591C224.043 245.5 218.656 246.955 212.838 246.955C206.861 246.955 201.815 245.466 197.702 242.489C193.611 239.489 190.713 235.284 189.009 229.875C187.304 224.443 187.054 218.057 188.259 210.716C189.463 203.511 191.781 197.25 195.213 191.932C198.645 186.614 202.849 182.5 207.827 179.591C212.804 176.682 218.213 175.227 224.054 175.227C229.963 175.227 234.963 176.716 239.054 179.693C243.145 182.67 246.054 186.875 247.781 192.307C249.509 197.716 249.759 204.102 248.531 211.466ZM242.429 210.716C243.474 204.489 243.338 199.182 242.02 194.795C240.724 190.409 238.497 187.057 235.338 184.739C232.179 182.398 228.349 181.227 223.849 181.227C219.19 181.227 214.815 182.432 210.724 184.841C206.634 187.227 203.145 190.682 200.259 195.205C197.372 199.705 195.395 205.125 194.327 211.466C193.304 217.67 193.44 222.977 194.736 227.386C196.031 231.773 198.259 235.136 201.418 237.477C204.599 239.795 208.452 240.955 212.974 240.955C217.656 240.955 222.043 239.75 226.134 237.341C230.224 234.932 233.702 231.477 236.565 226.977C239.452 222.455 241.406 217.034 242.429 210.716ZM324.188 176.182L312.597 246H306.392L274.858 187.534H274.312L264.597 246H258.222L269.812 176.182H275.983L307.619 234.716H308.165L317.915 176.182H324.188ZM377.693 194.011C377.852 189.92 376.636 186.716 374.045 184.398C371.477 182.08 367.875 180.92 363.239 180.92C360.011 180.92 357.057 181.489 354.375 182.625C351.716 183.739 349.523 185.273 347.795 187.227C346.091 189.182 345.034 191.409 344.625 193.909C344.33 195.75 344.466 197.364 345.034 198.75C345.602 200.114 346.477 201.295 347.659 202.295C348.841 203.295 350.193 204.148 351.716 204.852C353.261 205.557 354.83 206.148 356.42 206.625L363.477 208.739C365.568 209.352 367.648 210.136 369.716 211.091C371.784 212.045 373.625 213.239 375.239 214.67C376.852 216.102 378.045 217.864 378.818 219.955C379.614 222.045 379.773 224.545 379.295 227.455C378.659 231.227 377.136 234.602 374.727 237.58C372.341 240.534 369.205 242.875 365.318 244.602C361.432 246.33 356.943 247.193 351.852 247.193C347.102 247.193 343.102 246.409 339.852 244.841C336.602 243.25 334.205 241.057 332.659 238.261C331.114 235.466 330.523 232.227 330.886 228.545H337.432C337.182 231.295 337.693 233.625 338.966 235.534C340.261 237.443 342.102 238.898 344.489 239.898C346.898 240.875 349.67 241.364 352.807 241.364C356.284 241.364 359.477 240.784 362.386 239.625C365.295 238.443 367.693 236.807 369.58 234.716C371.489 232.602 372.67 230.148 373.125 227.352C373.534 224.989 373.25 223 372.273 221.386C371.318 219.773 369.83 218.42 367.807 217.33C365.807 216.216 363.42 215.239 360.648 214.398L352.67 211.943C347.466 210.352 343.591 208.114 341.045 205.227C338.523 202.341 337.625 198.659 338.352 194.182C338.989 190.409 340.545 187.102 343.023 184.261C345.523 181.398 348.625 179.17 352.33 177.58C356.034 175.989 360.034 175.193 364.33 175.193C368.67 175.193 372.364 176 375.409 177.614C378.477 179.227 380.75 181.455 382.227 184.295C383.727 187.114 384.284 190.352 383.898 194.011H377.693ZM454.5 211.466C453.295 218.67 450.977 224.932 447.545 230.25C444.114 235.568 439.92 239.682 434.966 242.591C430.011 245.5 424.625 246.955 418.807 246.955C412.83 246.955 407.784 245.466 403.67 242.489C399.58 239.489 396.682 235.284 394.977 229.875C393.273 224.443 393.023 218.057 394.227 210.716C395.432 203.511 397.75 197.25 401.182 191.932C404.614 186.614 408.818 182.5 413.795 179.591C418.773 176.682 424.182 175.227 430.023 175.227C435.932 175.227 440.932 176.716 445.023 179.693C449.114 182.67 452.023 186.875 453.75 192.307C455.477 197.716 455.727 204.102 454.5 211.466ZM448.398 210.716C449.443 204.489 449.307 199.182 447.989 194.795C446.693 190.409 444.466 187.057 441.307 184.739C438.148 182.398 434.318 181.227 429.818 181.227C425.159 181.227 420.784 182.432 416.693 184.841C412.602 187.227 409.114 190.682 406.227 195.205C403.341 199.705 401.364 205.125 400.295 211.466C399.273 217.67 399.409 222.977 400.705 227.386C402 231.773 404.227 235.136 407.386 237.477C410.568 239.795 414.42 240.955 418.943 240.955C423.625 240.955 428.011 239.75 432.102 237.341C436.193 234.932 439.67 231.477 442.534 226.977C445.42 222.455 447.375 217.034 448.398 210.716ZM464.19 246L475.781 176.182H482.156L471.52 240.273H504.793L503.838 246H464.19ZM518.19 246L529.781 176.182H570.281L569.327 181.909H535.202L530.838 208.193H562.815L561.861 213.92H529.884L525.52 240.273H560.327L559.372 246H518.19Z"/>
</mask>
<path d="M178.466 198H172.125C172.057 195.614 171.58 193.409 170.693 191.386C169.807 189.341 168.568 187.557 166.977 186.034C165.386 184.511 163.489 183.33 161.284 182.489C159.102 181.648 156.659 181.227 153.955 181.227C149.5 181.227 145.239 182.398 141.17 184.739C137.102 187.057 133.602 190.466 130.67 194.966C127.739 199.466 125.739 204.966 124.67 211.466C123.602 217.875 123.773 223.273 125.182 227.659C126.591 232.023 128.898 235.33 132.102 237.58C135.33 239.83 139.114 240.955 143.455 240.955C146.227 240.955 148.886 240.534 151.432 239.693C153.977 238.852 156.318 237.682 158.455 236.182C160.591 234.659 162.466 232.875 164.08 230.83C165.693 228.784 166.943 226.568 167.83 224.182H174.239C173.125 227.386 171.568 230.375 169.568 233.148C167.568 235.898 165.205 238.307 162.477 240.375C159.773 242.443 156.784 244.057 153.511 245.216C150.261 246.375 146.807 246.955 143.148 246.955C137.193 246.955 132.159 245.466 128.045 242.489C123.955 239.511 121.045 235.318 119.318 229.909C117.614 224.477 117.375 218.08 118.602 210.716C119.807 203.489 122.114 197.216 125.523 191.898C128.955 186.58 133.159 182.477 138.136 179.591C143.114 176.682 148.523 175.227 154.364 175.227C158.091 175.227 161.432 175.807 164.386 176.966C167.341 178.102 169.852 179.716 171.92 181.807C174.011 183.875 175.614 186.284 176.727 189.034C177.841 191.784 178.42 194.773 178.466 198ZM248.531 211.466C247.327 218.67 245.009 224.932 241.577 230.25C238.145 235.568 233.952 239.682 228.997 242.591C224.043 245.5 218.656 246.955 212.838 246.955C206.861 246.955 201.815 245.466 197.702 242.489C193.611 239.489 190.713 235.284 189.009 229.875C187.304 224.443 187.054 218.057 188.259 210.716C189.463 203.511 191.781 197.25 195.213 191.932C198.645 186.614 202.849 182.5 207.827 179.591C212.804 176.682 218.213 175.227 224.054 175.227C229.963 175.227 234.963 176.716 239.054 179.693C243.145 182.67 246.054 186.875 247.781 192.307C249.509 197.716 249.759 204.102 248.531 211.466ZM242.429 210.716C243.474 204.489 243.338 199.182 242.02 194.795C240.724 190.409 238.497 187.057 235.338 184.739C232.179 182.398 228.349 181.227 223.849 181.227C219.19 181.227 214.815 182.432 210.724 184.841C206.634 187.227 203.145 190.682 200.259 195.205C197.372 199.705 195.395 205.125 194.327 211.466C193.304 217.67 193.44 222.977 194.736 227.386C196.031 231.773 198.259 235.136 201.418 237.477C204.599 239.795 208.452 240.955 212.974 240.955C217.656 240.955 222.043 239.75 226.134 237.341C230.224 234.932 233.702 231.477 236.565 226.977C239.452 222.455 241.406 217.034 242.429 210.716ZM324.188 176.182L312.597 246H306.392L274.858 187.534H274.312L264.597 246H258.222L269.812 176.182H275.983L307.619 234.716H308.165L317.915 176.182H324.188ZM377.693 194.011C377.852 189.92 376.636 186.716 374.045 184.398C371.477 182.08 367.875 180.92 363.239 180.92C360.011 180.92 357.057 181.489 354.375 182.625C351.716 183.739 349.523 185.273 347.795 187.227C346.091 189.182 345.034 191.409 344.625 193.909C344.33 195.75 344.466 197.364 345.034 198.75C345.602 200.114 346.477 201.295 347.659 202.295C348.841 203.295 350.193 204.148 351.716 204.852C353.261 205.557 354.83 206.148 356.42 206.625L363.477 208.739C365.568 209.352 367.648 210.136 369.716 211.091C371.784 212.045 373.625 213.239 375.239 214.67C376.852 216.102 378.045 217.864 378.818 219.955C379.614 222.045 379.773 224.545 379.295 227.455C378.659 231.227 377.136 234.602 374.727 237.58C372.341 240.534 369.205 242.875 365.318 244.602C361.432 246.33 356.943 247.193 351.852 247.193C347.102 247.193 343.102 246.409 339.852 244.841C336.602 243.25 334.205 241.057 332.659 238.261C331.114 235.466 330.523 232.227 330.886 228.545H337.432C337.182 231.295 337.693 233.625 338.966 235.534C340.261 237.443 342.102 238.898 344.489 239.898C346.898 240.875 349.67 241.364 352.807 241.364C356.284 241.364 359.477 240.784 362.386 239.625C365.295 238.443 367.693 236.807 369.58 234.716C371.489 232.602 372.67 230.148 373.125 227.352C373.534 224.989 373.25 223 372.273 221.386C371.318 219.773 369.83 218.42 367.807 217.33C365.807 216.216 363.42 215.239 360.648 214.398L352.67 211.943C347.466 210.352 343.591 208.114 341.045 205.227C338.523 202.341 337.625 198.659 338.352 194.182C338.989 190.409 340.545 187.102 343.023 184.261C345.523 181.398 348.625 179.17 352.33 177.58C356.034 175.989 360.034 175.193 364.33 175.193C368.67 175.193 372.364 176 375.409 177.614C378.477 179.227 380.75 181.455 382.227 184.295C383.727 187.114 384.284 190.352 383.898 194.011H377.693ZM454.5 211.466C453.295 218.67 450.977 224.932 447.545 230.25C444.114 235.568 439.92 239.682 434.966 242.591C430.011 245.5 424.625 246.955 418.807 246.955C412.83 246.955 407.784 245.466 403.67 242.489C399.58 239.489 396.682 235.284 394.977 229.875C393.273 224.443 393.023 218.057 394.227 210.716C395.432 203.511 397.75 197.25 401.182 191.932C404.614 186.614 408.818 182.5 413.795 179.591C418.773 176.682 424.182 175.227 430.023 175.227C435.932 175.227 440.932 176.716 445.023 179.693C449.114 182.67 452.023 186.875 453.75 192.307C455.477 197.716 455.727 204.102 454.5 211.466ZM448.398 210.716C449.443 204.489 449.307 199.182 447.989 194.795C446.693 190.409 444.466 187.057 441.307 184.739C438.148 182.398 434.318 181.227 429.818 181.227C425.159 181.227 420.784 182.432 416.693 184.841C412.602 187.227 409.114 190.682 406.227 195.205C403.341 199.705 401.364 205.125 400.295 211.466C399.273 217.67 399.409 222.977 400.705 227.386C402 231.773 404.227 235.136 407.386 237.477C410.568 239.795 414.42 240.955 418.943 240.955C423.625 240.955 428.011 239.75 432.102 237.341C436.193 234.932 439.67 231.477 442.534 226.977C445.42 222.455 447.375 217.034 448.398 210.716ZM464.19 246L475.781 176.182H482.156L471.52 240.273H504.793L503.838 246H464.19ZM518.19 246L529.781 176.182H570.281L569.327 181.909H535.202L530.838 208.193H562.815L561.861 213.92H529.884L525.52 240.273H560.327L559.372 246H518.19Z" fill="white"/>
<path d="M178.466 198V203H183.537L183.465 197.93L178.466 198ZM172.125 198L167.127 198.143L167.266 203H172.125V198ZM170.693 191.386L166.105 193.374L166.109 193.384L166.114 193.393L170.693 191.386ZM166.977 186.034L163.52 189.646L163.52 189.646L166.977 186.034ZM161.284 182.489L159.486 187.154L159.494 187.157L159.502 187.16L161.284 182.489ZM141.17 184.739L143.646 189.083L143.655 189.078L143.664 189.072L141.17 184.739ZM124.67 211.466L129.602 212.288L129.604 212.277L124.67 211.466ZM125.182 227.659L120.421 229.188L120.424 229.196L125.182 227.659ZM132.102 237.58L129.229 241.672L129.236 241.676L129.243 241.681L132.102 237.58ZM158.455 236.182L161.328 240.274L161.342 240.264L161.357 240.253L158.455 236.182ZM164.08 230.83L160.154 227.733L160.154 227.733L164.08 230.83ZM167.83 224.182V219.182H164.353L163.142 222.441L167.83 224.182ZM174.239 224.182L178.962 225.823L181.27 219.182H174.239V224.182ZM169.568 233.148L173.612 236.089L173.618 236.081L173.623 236.073L169.568 233.148ZM162.477 240.375L159.456 236.391L159.448 236.397L159.44 236.403L162.477 240.375ZM153.511 245.216L151.842 240.503L151.832 240.506L153.511 245.216ZM128.045 242.489L125.103 246.531L125.114 246.539L128.045 242.489ZM119.318 229.909L114.548 231.406L114.551 231.418L114.555 231.43L119.318 229.909ZM118.602 210.716L113.67 209.894L113.67 209.894L118.602 210.716ZM125.523 191.898L121.322 189.187L121.317 189.193L121.313 189.199L125.523 191.898ZM138.136 179.591L140.645 183.916L140.652 183.912L140.659 183.908L138.136 179.591ZM164.386 176.966L162.56 181.621L162.576 181.627L162.591 181.633L164.386 176.966ZM171.92 181.807L168.366 185.323L168.385 185.342L168.404 185.362L171.92 181.807ZM178.466 198V193H172.125V198V203H178.466V198ZM172.125 198L177.123 197.857C177.038 194.881 176.437 192.037 175.273 189.38L170.693 191.386L166.114 193.393C166.722 194.781 167.076 196.346 167.127 198.143L172.125 198ZM170.693 191.386L175.281 189.398C174.133 186.749 172.513 184.411 170.435 182.422L166.977 186.034L163.52 189.646C164.624 190.702 165.481 191.932 166.105 193.374L170.693 191.386ZM166.977 186.034L170.435 182.422C168.328 180.406 165.849 178.879 163.066 177.817L161.284 182.489L159.502 187.16C161.128 187.781 162.445 188.617 163.52 189.646L166.977 186.034ZM161.284 182.489L163.082 177.823C160.244 176.729 157.179 176.227 153.955 176.227V181.227V186.227C156.139 186.227 157.96 186.566 159.486 187.154L161.284 182.489ZM153.955 181.227V176.227C148.577 176.227 143.461 177.652 138.677 180.405L141.17 184.739L143.664 189.072C147.016 187.144 150.423 186.227 153.955 186.227V181.227ZM141.17 184.739L138.695 180.394C133.84 183.161 129.783 187.168 126.481 192.237L130.67 194.966L134.86 197.695C137.421 193.764 140.365 190.952 143.646 189.083L141.17 184.739ZM130.67 194.966L126.481 192.237C123.095 197.433 120.892 203.622 119.737 210.655L124.67 211.466L129.604 212.277C130.585 206.31 132.382 201.498 134.86 197.695L130.67 194.966ZM124.67 211.466L119.738 210.644C118.59 217.536 118.689 223.797 120.421 229.188L125.182 227.659L129.942 226.13C128.856 222.749 128.615 218.214 129.602 212.288L124.67 211.466ZM125.182 227.659L120.424 229.196C122.108 234.41 124.989 238.695 129.229 241.672L132.102 237.58L134.975 233.487C132.806 231.964 131.074 229.636 129.94 226.123L125.182 227.659ZM132.102 237.58L129.243 241.681C133.395 244.576 138.202 245.955 143.455 245.955V240.955V235.955C140.026 235.955 137.264 235.083 134.962 233.478L132.102 237.58ZM143.455 240.955V245.955C146.742 245.955 149.932 245.455 153 244.441L151.432 239.693L149.863 234.946C147.841 235.614 145.713 235.955 143.455 235.955V240.955ZM151.432 239.693L153 244.441C155.998 243.451 158.78 242.063 161.328 240.274L158.455 236.182L155.581 232.09C153.856 233.301 151.957 234.254 149.863 234.946L151.432 239.693ZM158.455 236.182L161.357 240.253C163.876 238.458 166.096 236.346 168.005 233.926L164.08 230.83L160.154 227.733C158.836 229.404 157.306 230.86 155.552 232.11L158.455 236.182ZM164.08 230.83L168.005 233.926C169.934 231.481 171.444 228.809 172.517 225.923L167.83 224.182L163.142 222.441C162.442 224.327 161.452 226.087 160.154 227.733L164.08 230.83ZM167.83 224.182V229.182H174.239V224.182V219.182H167.83V224.182ZM174.239 224.182L169.516 222.541C168.562 225.283 167.232 227.84 165.513 230.223L169.568 233.148L173.623 236.073C175.905 232.91 177.688 229.489 178.962 225.823L174.239 224.182ZM169.568 233.148L165.525 230.207C163.814 232.558 161.796 234.617 159.456 236.391L162.477 240.375L165.498 244.359C168.613 241.997 171.322 239.237 173.612 236.089L169.568 233.148ZM162.477 240.375L159.44 236.403C157.158 238.148 154.633 239.514 151.842 240.503L153.511 245.216L155.181 249.929C158.935 248.599 162.387 246.738 165.515 244.347L162.477 240.375ZM153.511 245.216L151.832 240.506C149.153 241.462 146.269 241.955 143.148 241.955V246.955V251.955C147.344 251.955 151.37 251.288 155.191 249.925L153.511 245.216ZM143.148 246.955V241.955C138.059 241.955 134.098 240.697 130.977 238.438L128.045 242.489L125.114 246.539C130.221 250.235 136.328 251.955 143.148 251.955V246.955ZM128.045 242.489L130.988 238.446C127.86 236.17 125.526 232.914 124.081 228.388L119.318 229.909L114.555 231.43C116.564 237.722 120.049 242.853 125.103 246.531L128.045 242.489ZM119.318 229.909L124.089 228.412C122.681 223.926 122.397 218.359 123.534 211.538L118.602 210.716L113.67 209.894C112.353 217.8 112.546 225.028 114.548 231.406L119.318 229.909ZM118.602 210.716L123.534 211.538C124.645 204.873 126.742 199.26 129.732 194.596L125.523 191.898L121.313 189.199C117.485 195.171 114.969 202.104 113.67 209.894L118.602 210.716ZM125.523 191.898L129.724 194.609C132.771 189.887 136.418 186.367 140.645 183.916L138.136 179.591L135.628 175.266C129.9 178.587 125.138 183.272 121.322 189.187L125.523 191.898ZM138.136 179.591L140.659 183.908C144.861 181.452 149.397 180.227 154.364 180.227V175.227V170.227C147.648 170.227 141.367 171.911 135.613 175.274L138.136 179.591ZM154.364 175.227V180.227C157.573 180.227 160.279 180.726 162.56 181.621L164.386 176.966L166.212 172.311C162.584 170.888 158.609 170.227 154.364 170.227V175.227ZM164.386 176.966L162.591 181.633C164.936 182.534 166.833 183.774 168.366 185.323L171.92 181.807L175.475 178.291C172.871 175.658 169.746 173.67 166.181 172.299L164.386 176.966ZM171.92 181.807L168.404 185.362C170.008 186.948 171.232 188.785 172.093 190.911L176.727 189.034L181.362 187.157C179.995 183.784 178.015 180.802 175.437 178.252L171.92 181.807ZM176.727 189.034L172.093 190.911C172.954 193.038 173.429 195.408 173.466 198.07L178.466 198L183.465 197.93C183.412 194.137 182.728 190.53 181.362 187.157L176.727 189.034ZM248.531 211.466L253.463 212.29L253.463 212.288L248.531 211.466ZM241.577 230.25L237.375 227.539L237.375 227.539L241.577 230.25ZM228.997 242.591L226.466 238.279L226.466 238.279L228.997 242.591ZM197.702 242.489L194.745 246.521L194.757 246.53L194.77 246.539L197.702 242.489ZM189.009 229.875L184.238 231.372L184.24 231.378L189.009 229.875ZM188.259 210.716L183.327 209.891L183.326 209.899L183.325 209.906L188.259 210.716ZM195.213 191.932L191.012 189.221L191.012 189.221L195.213 191.932ZM207.827 179.591L205.304 175.274L205.304 175.274L207.827 179.591ZM247.781 192.307L243.016 193.822L243.018 193.828L247.781 192.307ZM242.429 210.716L237.498 209.888L237.496 209.903L237.493 209.917L242.429 210.716ZM242.02 194.795L237.225 196.212L237.228 196.223L237.231 196.234L242.02 194.795ZM235.338 184.739L232.361 188.756L232.371 188.763L232.38 188.77L235.338 184.739ZM210.724 184.841L213.244 189.16L213.253 189.155L213.262 189.149L210.724 184.841ZM200.259 195.205L204.467 197.904L204.473 197.894L200.259 195.205ZM194.327 211.466L189.396 210.635L189.395 210.644L189.393 210.653L194.327 211.466ZM194.736 227.386L189.939 228.796L189.941 228.803L194.736 227.386ZM201.418 237.477L198.441 241.495L198.457 241.507L198.473 241.518L201.418 237.477ZM226.134 237.341L223.596 233.032L223.596 233.032L226.134 237.341ZM236.565 226.977L232.351 224.287L232.347 224.293L236.565 226.977ZM248.531 211.466L243.6 210.641C242.49 217.277 240.385 222.875 237.375 227.539L241.577 230.25L245.778 232.961C249.632 226.989 252.163 220.064 253.463 212.29L248.531 211.466ZM241.577 230.25L237.375 227.539C234.324 232.268 230.68 235.805 226.466 238.279L228.997 242.591L231.529 246.903C237.224 243.559 241.966 238.868 245.778 232.961L241.577 230.25ZM228.997 242.591L226.466 238.279C222.289 240.732 217.778 241.955 212.838 241.955V246.955V251.955C219.535 251.955 225.797 250.268 231.529 246.903L228.997 242.591ZM212.838 246.955V241.955C207.721 241.955 203.751 240.694 200.633 238.438L197.702 242.489L194.77 246.539C199.88 250.237 206 251.955 212.838 251.955V246.955ZM197.702 242.489L200.659 238.457C197.525 236.159 195.202 232.892 193.777 228.372L189.009 229.875L184.24 231.378C186.224 237.676 189.696 242.818 194.745 246.521L197.702 242.489ZM189.009 229.875L193.779 228.378C192.369 223.884 192.077 218.323 193.193 211.526L188.259 210.716L183.325 209.906C182.031 217.791 182.239 225.002 184.238 231.372L189.009 229.875ZM188.259 210.716L193.19 211.54C194.299 204.905 196.404 199.307 199.414 194.643L195.213 191.932L191.012 189.221C187.158 195.193 184.627 202.118 183.327 209.891L188.259 210.716ZM195.213 191.932L199.414 194.643C202.463 189.919 206.115 186.383 210.35 183.908L207.827 179.591L205.304 175.274C199.584 178.617 194.827 183.309 191.012 189.221L195.213 191.932ZM207.827 179.591L210.35 183.908C214.551 181.452 219.088 180.227 224.054 180.227V175.227V170.227C217.339 170.227 211.057 171.911 205.304 175.274L207.827 179.591ZM224.054 175.227V180.227C229.089 180.227 233.013 181.481 236.112 183.736L239.054 179.693L241.996 175.65C236.913 171.951 230.837 170.227 224.054 170.227V175.227ZM239.054 179.693L236.112 183.736C239.234 186.008 241.569 189.271 243.016 193.822L247.781 192.307L252.546 190.792C250.539 184.479 247.056 179.333 241.996 175.65L239.054 179.693ZM247.781 192.307L243.018 193.828C244.44 198.28 244.736 203.826 243.599 210.644L248.531 211.466L253.463 212.288C254.782 204.378 254.577 197.151 252.544 190.786L247.781 192.307ZM242.429 210.716L247.36 211.544C248.487 204.83 248.415 198.701 246.808 193.356L242.02 194.795L237.231 196.234C238.262 199.662 238.462 204.147 237.498 209.888L242.429 210.716ZM242.02 194.795L246.815 193.379C245.264 188.126 242.479 183.777 238.296 180.708L235.338 184.739L232.38 188.77C234.515 190.337 236.185 192.692 237.225 196.212L242.02 194.795ZM235.338 184.739L238.315 180.721C234.173 177.652 229.26 176.227 223.849 176.227V181.227V186.227C227.439 186.227 230.185 187.143 232.361 188.756L235.338 184.739ZM223.849 181.227V176.227C218.28 176.227 213.032 177.68 208.187 180.532L210.724 184.841L213.262 189.149C216.599 187.184 220.1 186.227 223.849 186.227V181.227ZM210.724 184.841L208.205 180.522C203.341 183.359 199.3 187.412 196.044 192.515L200.259 195.205L204.473 197.894C206.989 193.952 209.926 191.095 213.244 189.16L210.724 184.841ZM200.259 195.205L196.05 192.505C192.733 197.676 190.554 203.761 189.396 210.635L194.327 211.466L199.257 212.296C200.236 206.489 202.011 201.733 204.467 197.904L200.259 195.205ZM194.327 211.466L189.393 210.653C188.291 217.341 188.368 223.451 189.939 228.796L194.736 227.386L199.533 225.977C198.513 222.504 198.317 218 199.26 212.279L194.327 211.466ZM194.736 227.386L189.941 228.803C191.491 234.054 194.272 238.405 198.441 241.495L201.418 237.477L204.394 233.46C202.245 231.867 200.571 229.492 199.531 225.97L194.736 227.386ZM201.418 237.477L198.473 241.518C202.634 244.55 207.557 245.955 212.974 245.955V240.955V235.955C209.346 235.955 206.565 235.041 204.362 233.436L201.418 237.477ZM212.974 240.955V245.955C218.562 245.955 223.822 244.505 228.671 241.649L226.134 237.341L223.596 233.032C220.263 234.995 216.751 235.955 212.974 235.955V240.955ZM226.134 237.341L228.671 241.649C233.523 238.792 237.549 234.745 240.784 229.662L236.565 226.977L232.347 224.293C229.855 228.21 226.926 231.072 223.596 233.032L226.134 237.341ZM236.565 226.977L240.78 229.667C244.097 224.47 246.254 218.378 247.365 211.515L242.429 210.716L237.493 209.917C236.559 215.69 234.807 220.439 232.351 224.287L236.565 226.977ZM324.188 176.182L329.12 177.001L330.086 171.182H324.188V176.182ZM312.597 246V251H316.835L317.529 246.819L312.597 246ZM306.392 246L301.991 248.374L303.408 251H306.392V246ZM274.858 187.534L279.259 185.161L277.842 182.534H274.858V187.534ZM274.312 187.534V182.534H270.075L269.38 186.714L274.312 187.534ZM264.597 246V251H268.834L269.529 246.82L264.597 246ZM258.222 246L253.289 245.181L252.323 251H258.222V246ZM269.812 176.182V171.182H265.574L264.88 175.363L269.812 176.182ZM275.983 176.182L280.382 173.804L278.964 171.182H275.983V176.182ZM307.619 234.716L303.221 237.093L304.638 239.716H307.619V234.716ZM308.165 234.716V239.716H312.401L313.097 235.537L308.165 234.716ZM317.915 176.182V171.182H313.679L312.983 175.36L317.915 176.182ZM324.188 176.182L319.255 175.363L307.664 245.181L312.597 246L317.529 246.819L329.12 177.001L324.188 176.182ZM312.597 246V241H306.392V246V251H312.597V246ZM306.392 246L310.793 243.626L279.259 185.161L274.858 187.534L270.457 189.908L301.991 248.374L306.392 246ZM274.858 187.534V182.534H274.312V187.534V192.534H274.858V187.534ZM274.312 187.534L269.38 186.714L259.664 245.18L264.597 246L269.529 246.82L279.245 188.354L274.312 187.534ZM264.597 246V241H258.222V246V251H264.597V246ZM258.222 246L263.154 246.819L274.745 177.001L269.812 176.182L264.88 175.363L253.289 245.181L258.222 246ZM269.812 176.182V181.182H275.983V176.182V171.182H269.812V176.182ZM275.983 176.182L271.584 178.559L303.221 237.093L307.619 234.716L312.018 232.339L280.382 173.804L275.983 176.182ZM307.619 234.716V239.716H308.165V234.716V229.716H307.619V234.716ZM308.165 234.716L313.097 235.537L322.847 177.003L317.915 176.182L312.983 175.36L303.233 233.894L308.165 234.716ZM317.915 176.182V181.182H324.188V176.182V171.182H317.915V176.182ZM377.693 194.011L372.697 193.817L372.495 199.011H377.693V194.011ZM374.045 184.398L370.695 188.109L370.703 188.117L370.711 188.124L374.045 184.398ZM354.375 182.625L356.306 187.237L356.316 187.233L356.326 187.229L354.375 182.625ZM347.795 187.227L344.049 183.916L344.038 183.929L344.027 183.941L347.795 187.227ZM344.625 193.909L339.691 193.102L339.689 193.109L339.688 193.117L344.625 193.909ZM345.034 198.75L340.408 200.646L340.413 200.66L340.419 200.673L345.034 198.75ZM351.716 204.852L349.616 209.39L349.629 209.396L349.642 209.402L351.716 204.852ZM356.42 206.625L354.984 211.414L354.986 211.415L356.42 206.625ZM363.477 208.739L362.043 213.528L362.056 213.532L362.069 213.536L363.477 208.739ZM378.818 219.955L374.128 221.688L374.136 221.71L374.145 221.732L378.818 219.955ZM379.295 227.455L384.226 228.286L384.228 228.275L384.229 228.264L379.295 227.455ZM374.727 237.58L370.84 234.434L370.838 234.438L374.727 237.58ZM365.318 244.602L367.349 249.171L365.318 244.602ZM339.852 244.841L337.654 249.332L337.667 249.338L337.679 249.344L339.852 244.841ZM332.659 238.261L337.035 235.842L337.035 235.842L332.659 238.261ZM330.886 228.545V223.545H326.356L325.911 228.054L330.886 228.545ZM337.432 228.545L342.411 228.998L342.907 223.545H337.432V228.545ZM338.966 235.534L334.806 238.308L334.817 238.325L334.829 238.342L338.966 235.534ZM344.489 239.898L342.556 244.509L342.583 244.52L342.609 244.531L344.489 239.898ZM362.386 239.625L364.237 244.27L364.253 244.264L364.268 244.257L362.386 239.625ZM369.58 234.716L365.869 231.364L365.867 231.367L369.58 234.716ZM373.125 227.352L368.198 226.5L368.194 226.525L368.19 226.55L373.125 227.352ZM372.273 221.386L367.969 223.932L367.983 223.954L367.996 223.977L372.273 221.386ZM367.807 217.33L365.374 221.698L365.404 221.714L365.433 221.73L367.807 217.33ZM360.648 214.398L359.177 219.177L359.187 219.18L359.197 219.183L360.648 214.398ZM352.67 211.943L354.141 207.164L354.132 207.162L352.67 211.943ZM341.045 205.227L337.281 208.518L337.288 208.526L337.295 208.534L341.045 205.227ZM338.352 194.182L333.422 193.35L333.419 193.365L333.417 193.38L338.352 194.182ZM343.023 184.261L339.256 180.973L339.254 180.975L343.023 184.261ZM352.33 177.58L354.303 182.174L354.303 182.174L352.33 177.58ZM375.409 177.614L373.068 182.032L373.075 182.035L373.082 182.039L375.409 177.614ZM382.227 184.295L377.791 186.602L377.802 186.624L377.814 186.645L382.227 184.295ZM383.898 194.011V199.011H388.398L388.87 194.536L383.898 194.011ZM377.693 194.011L382.689 194.206C382.895 188.919 381.283 184.164 377.379 180.672L374.045 184.398L370.711 188.124C371.99 189.268 372.81 190.922 372.697 193.817L377.693 194.011ZM374.045 184.398L377.396 180.686C373.634 177.291 368.685 175.92 363.239 175.92V180.92V185.92C367.065 185.92 369.32 186.868 370.695 188.109L374.045 184.398ZM363.239 180.92V175.92C359.414 175.92 355.787 176.596 352.424 178.021L354.375 182.625L356.326 187.229C358.327 186.381 360.609 185.92 363.239 185.92V180.92ZM354.375 182.625L352.444 178.013C349.163 179.387 346.326 181.34 344.049 183.916L347.795 187.227L351.542 190.538C352.72 189.206 354.269 188.09 356.306 187.237L354.375 182.625ZM347.795 187.227L344.027 183.941C341.726 186.58 340.254 189.66 339.691 193.102L344.625 193.909L349.559 194.717C349.814 193.158 350.456 191.784 351.564 190.514L347.795 187.227ZM344.625 193.909L339.688 193.117C339.282 195.645 339.415 198.224 340.408 200.646L345.034 198.75L349.661 196.854C349.517 196.504 349.377 195.855 349.562 194.701L344.625 193.909ZM345.034 198.75L340.419 200.673C341.307 202.804 342.672 204.625 344.429 206.112L347.659 202.295L350.889 198.479C350.283 197.966 349.898 197.423 349.649 196.827L345.034 198.75ZM347.659 202.295L344.429 206.112C345.981 207.425 347.72 208.513 349.616 209.39L351.716 204.852L353.815 200.314C352.666 199.783 351.701 199.165 350.889 198.479L347.659 202.295ZM351.716 204.852L349.642 209.402C351.389 210.198 353.17 210.87 354.984 211.414L356.42 206.625L357.857 201.836C356.489 201.425 355.133 200.915 353.79 200.303L351.716 204.852ZM356.42 206.625L354.986 211.415L362.043 213.528L363.477 208.739L364.912 203.949L357.855 201.835L356.42 206.625ZM363.477 208.739L362.069 213.536C363.915 214.078 365.765 214.774 367.621 215.631L369.716 211.091L371.811 206.551C369.531 205.499 367.222 204.627 364.885 203.941L363.477 208.739ZM369.716 211.091L367.621 215.631C369.269 216.391 370.693 217.321 371.92 218.41L375.239 214.67L378.557 210.931C376.557 209.156 374.299 207.699 371.811 206.551L369.716 211.091ZM375.239 214.67L371.92 218.41C372.898 219.278 373.631 220.342 374.128 221.688L378.818 219.955L383.508 218.221C382.46 215.386 380.807 212.927 378.557 210.931L375.239 214.67ZM378.818 219.955L374.145 221.732C374.542 222.777 374.74 224.338 374.361 226.645L379.295 227.455L384.229 228.264C384.805 224.753 384.685 221.314 383.491 218.177L378.818 219.955ZM379.295 227.455L374.365 226.623C373.872 229.547 372.709 232.125 370.84 234.434L374.727 237.58L378.614 240.725C381.564 237.08 383.446 232.908 384.226 228.286L379.295 227.455ZM374.727 237.58L370.838 234.438C369.006 236.705 366.538 238.589 363.287 240.033L365.318 244.602L367.349 249.171C371.871 247.161 375.676 244.363 378.617 240.721L374.727 237.58ZM365.318 244.602L363.287 240.033C360.154 241.426 356.379 242.193 351.852 242.193V247.193V252.193C357.507 252.193 362.71 251.233 367.349 249.171L365.318 244.602ZM351.852 247.193V242.193C347.627 242.193 344.418 241.492 342.025 240.338L339.852 244.841L337.679 249.344C341.786 251.326 346.578 252.193 351.852 252.193V247.193ZM339.852 244.841L342.051 240.35C339.595 239.148 338.02 237.624 337.035 235.842L332.659 238.261L328.283 240.681C330.389 244.49 333.61 247.352 337.654 249.332L339.852 244.841ZM332.659 238.261L337.035 235.842C336.054 234.068 335.582 231.874 335.862 229.037L330.886 228.545L325.911 228.054C325.464 232.58 326.173 236.864 328.283 240.681L332.659 238.261ZM330.886 228.545V233.545H337.432V228.545V223.545H330.886V228.545ZM337.432 228.545L332.452 228.093C332.121 231.74 332.778 235.265 334.806 238.308L338.966 235.534L343.126 232.761C342.609 231.985 342.243 230.851 342.411 228.998L337.432 228.545ZM338.966 235.534L334.829 238.342C336.733 241.148 339.388 243.181 342.556 244.509L344.489 239.898L346.421 235.286C344.817 234.614 343.79 233.738 343.103 232.727L338.966 235.534ZM344.489 239.898L342.609 244.531C345.725 245.795 349.156 246.364 352.807 246.364V241.364V236.364C350.185 236.364 348.071 235.955 346.368 235.264L344.489 239.898ZM352.807 241.364V246.364C356.848 246.364 360.678 245.688 364.237 244.27L362.386 239.625L360.536 234.98C358.277 235.88 355.72 236.364 352.807 236.364V241.364ZM362.386 239.625L364.268 244.257C367.795 242.824 370.845 240.778 373.292 238.065L369.58 234.716L365.867 231.367C364.542 232.836 362.796 234.062 360.504 234.993L362.386 239.625ZM369.58 234.716L373.29 238.067C375.84 235.244 377.45 231.906 378.06 228.155L373.125 227.352L368.19 226.55C367.891 228.39 367.137 229.961 365.869 231.364L369.58 234.716ZM373.125 227.352L378.052 228.205C378.609 224.985 378.307 221.697 376.55 218.796L372.273 221.386L367.996 223.977C368.194 224.303 368.459 224.992 368.198 226.5L373.125 227.352ZM372.273 221.386L376.576 218.841C375.065 216.285 372.823 214.354 370.18 212.929L367.807 217.33L365.433 221.73C366.836 222.487 367.572 223.26 367.969 223.932L372.273 221.386ZM367.807 217.33L370.239 212.961C367.859 211.636 365.127 210.531 362.099 209.613L360.648 214.398L359.197 219.183C361.714 219.946 363.755 220.796 365.374 221.698L367.807 217.33ZM360.648 214.398L362.118 209.619L354.141 207.164L352.67 211.943L351.2 216.722L359.177 219.177L360.648 214.398ZM352.67 211.943L354.132 207.162C349.463 205.734 346.526 203.883 344.796 201.92L341.045 205.227L337.295 208.534C340.656 212.345 345.469 214.97 351.209 216.725L352.67 211.943ZM341.045 205.227L344.81 201.937C343.451 200.382 342.751 198.289 343.288 194.983L338.352 194.182L333.417 193.38C332.499 199.029 333.594 204.3 337.281 208.518L341.045 205.227ZM338.352 194.182L343.283 195.013C343.768 192.136 344.93 189.682 346.791 187.547L343.023 184.261L339.254 180.975C336.161 184.522 334.209 188.682 333.422 193.35L338.352 194.182ZM343.023 184.261L346.789 187.55C348.767 185.284 351.243 183.488 354.303 182.174L352.33 177.58L350.357 172.985C346.007 174.853 342.278 177.511 339.256 180.973L343.023 184.261ZM352.33 177.58L354.303 182.174C357.344 180.868 360.667 180.193 364.33 180.193V175.193V170.193C359.401 170.193 354.725 171.109 350.357 172.985L352.33 177.58ZM364.33 175.193V180.193C368.062 180.193 370.907 180.887 373.068 182.032L375.409 177.614L377.75 173.195C373.82 171.113 369.279 170.193 364.33 170.193V175.193ZM375.409 177.614L373.082 182.039C375.326 183.219 376.824 184.741 377.791 186.602L382.227 184.295L386.663 181.989C384.676 178.168 381.629 175.235 377.736 173.188L375.409 177.614ZM382.227 184.295L377.814 186.645C378.776 188.453 379.223 190.664 378.925 193.486L383.898 194.011L388.87 194.536C389.345 190.041 388.678 185.774 386.641 181.946L382.227 184.295ZM383.898 194.011V189.011H377.693V194.011V199.011H383.898V194.011ZM454.5 211.466L459.432 212.29L459.432 212.288L454.5 211.466ZM447.545 230.25L443.344 227.539L443.344 227.539L447.545 230.25ZM434.966 242.591L432.434 238.279L432.434 238.279L434.966 242.591ZM403.67 242.489L400.714 246.521L400.726 246.53L400.739 246.539L403.67 242.489ZM394.977 229.875L390.207 231.372L390.208 231.378L394.977 229.875ZM394.227 210.716L389.296 209.891L389.294 209.899L389.293 209.906L394.227 210.716ZM401.182 191.932L396.981 189.221L396.981 189.221L401.182 191.932ZM413.795 179.591L411.272 175.274L411.272 175.274L413.795 179.591ZM453.75 192.307L448.985 193.822L448.987 193.828L453.75 192.307ZM448.398 210.716L443.467 209.888L443.464 209.903L443.462 209.917L448.398 210.716ZM447.989 194.795L443.193 196.212L443.197 196.223L443.2 196.234L447.989 194.795ZM441.307 184.739L438.33 188.756L438.339 188.763L438.349 188.77L441.307 184.739ZM416.693 184.841L419.213 189.16L419.221 189.155L419.23 189.149L416.693 184.841ZM406.227 195.205L410.436 197.904L410.442 197.894L406.227 195.205ZM400.295 211.466L395.365 210.635L395.363 210.644L395.362 210.653L400.295 211.466ZM400.705 227.386L395.907 228.796L395.909 228.803L400.705 227.386ZM407.386 237.477L404.41 241.495L404.426 241.507L404.442 241.518L407.386 237.477ZM432.102 237.341L429.565 233.032L429.565 233.032L432.102 237.341ZM442.534 226.977L438.319 224.287L438.316 224.293L442.534 226.977ZM454.5 211.466L449.568 210.641C448.459 217.277 446.354 222.875 443.344 227.539L447.545 230.25L451.747 232.961C455.601 226.989 458.132 220.064 459.432 212.29L454.5 211.466ZM447.545 230.25L443.344 227.539C440.292 232.268 436.649 235.805 432.434 238.279L434.966 242.591L437.498 246.903C443.192 243.559 447.935 238.868 451.747 232.961L447.545 230.25ZM434.966 242.591L432.434 238.279C428.257 240.732 423.747 241.955 418.807 241.955V246.955V251.955C425.503 251.955 431.765 250.268 437.498 246.903L434.966 242.591ZM418.807 246.955V241.955C413.69 241.955 409.719 240.694 406.602 238.438L403.67 242.489L400.739 246.539C405.849 250.237 411.969 251.955 418.807 251.955V246.955ZM403.67 242.489L406.627 238.457C403.494 236.159 401.17 232.892 399.746 228.372L394.977 229.875L390.208 231.378C392.193 237.676 395.665 242.818 400.714 246.521L403.67 242.489ZM394.977 229.875L399.748 228.378C398.338 223.884 398.046 218.323 399.161 211.526L394.227 210.716L389.293 209.906C388 217.791 388.208 225.002 390.207 231.372L394.977 229.875ZM394.227 210.716L399.159 211.54C400.268 204.905 402.373 199.307 405.383 194.643L401.182 191.932L396.981 189.221C393.127 195.193 390.595 202.118 389.296 209.891L394.227 210.716ZM401.182 191.932L405.383 194.643C408.432 189.919 412.083 186.383 416.318 183.908L413.795 179.591L411.272 175.274C405.553 178.617 400.796 183.309 396.981 189.221L401.182 191.932ZM413.795 179.591L416.318 183.908C420.52 181.452 425.056 180.227 430.023 180.227V175.227V170.227C423.307 170.227 417.026 171.911 411.272 175.274L413.795 179.591ZM430.023 175.227V180.227C435.058 180.227 438.982 181.481 442.081 183.736L445.023 179.693L447.965 175.65C442.882 171.951 436.806 170.227 430.023 170.227V175.227ZM445.023 179.693L442.081 183.736C445.203 186.008 447.538 189.271 448.985 193.822L453.75 192.307L458.515 190.792C456.508 184.479 453.025 179.333 447.965 175.65L445.023 179.693ZM453.75 192.307L448.987 193.828C450.409 198.28 450.704 203.826 449.568 210.644L454.5 211.466L459.432 212.288C460.75 204.378 460.546 197.151 458.513 190.786L453.75 192.307ZM448.398 210.716L453.329 211.544C454.456 204.83 454.383 198.701 452.777 193.356L447.989 194.795L443.2 196.234C444.23 199.662 444.431 204.147 443.467 209.888L448.398 210.716ZM447.989 194.795L452.784 193.379C451.232 188.126 448.448 183.777 444.265 180.708L441.307 184.739L438.349 188.77C440.484 190.337 442.154 192.692 443.193 196.212L447.989 194.795ZM441.307 184.739L444.284 180.721C440.142 177.652 435.229 176.227 429.818 176.227V181.227V186.227C433.408 186.227 436.153 187.143 438.33 188.756L441.307 184.739ZM429.818 181.227V176.227C424.249 176.227 419 177.68 414.156 180.532L416.693 184.841L419.23 189.149C422.568 187.184 426.069 186.227 429.818 186.227V181.227ZM416.693 184.841L414.174 180.522C409.31 183.359 405.269 187.412 402.012 192.515L406.227 195.205L410.442 197.894C412.958 193.952 415.895 191.095 419.213 189.16L416.693 184.841ZM406.227 195.205L402.019 192.505C398.702 197.676 396.523 203.761 395.365 210.635L400.295 211.466L405.226 212.296C406.204 206.489 407.98 201.733 410.436 197.904L406.227 195.205ZM400.295 211.466L395.362 210.653C394.26 217.341 394.337 223.451 395.907 228.796L400.705 227.386L405.502 225.977C404.481 222.504 404.286 218 405.229 212.279L400.295 211.466ZM400.705 227.386L395.909 228.803C397.46 234.054 400.241 238.405 404.41 241.495L407.386 237.477L410.363 233.46C408.214 231.867 406.54 229.492 405.5 225.97L400.705 227.386ZM407.386 237.477L404.442 241.518C408.603 244.55 413.526 245.955 418.943 245.955V240.955V235.955C415.315 235.955 412.534 235.041 410.331 233.436L407.386 237.477ZM418.943 240.955V245.955C424.53 245.955 429.791 244.505 434.639 241.649L432.102 237.341L429.565 233.032C426.232 234.995 422.72 235.955 418.943 235.955V240.955ZM432.102 237.341L434.639 241.649C439.491 238.792 443.518 234.745 446.752 229.662L442.534 226.977L438.316 224.293C435.823 228.21 432.895 231.072 429.565 233.032L432.102 237.341ZM442.534 226.977L446.749 229.667C450.066 224.47 452.222 218.378 453.333 211.515L448.398 210.716L443.462 209.917C442.528 215.69 440.775 220.439 438.319 224.287L442.534 226.977ZM464.19 246L459.258 245.181L458.292 251H464.19V246ZM475.781 176.182V171.182H471.543L470.849 175.363L475.781 176.182ZM482.156 176.182L487.089 177L488.054 171.182H482.156V176.182ZM471.52 240.273L466.587 239.454L465.622 245.273H471.52V240.273ZM504.793 240.273L509.725 241.095L510.695 235.273H504.793V240.273ZM503.838 246V251H508.074L508.77 246.822L503.838 246ZM464.19 246L469.123 246.819L480.714 177.001L475.781 176.182L470.849 175.363L459.258 245.181L464.19 246ZM475.781 176.182V181.182H482.156V176.182V171.182H475.781V176.182ZM482.156 176.182L477.224 175.363L466.587 239.454L471.52 240.273L476.452 241.091L487.089 177L482.156 176.182ZM471.52 240.273V245.273H504.793V240.273V235.273H471.52V240.273ZM504.793 240.273L499.861 239.451L498.906 245.178L503.838 246L508.77 246.822L509.725 241.095L504.793 240.273ZM503.838 246V241H464.19V246V251H503.838V246ZM518.19 246L513.258 245.181L512.292 251H518.19V246ZM529.781 176.182V171.182H525.543L524.849 175.363L529.781 176.182ZM570.281 176.182L575.213 177.004L576.184 171.182H570.281V176.182ZM569.327 181.909V186.909H573.562L574.259 182.731L569.327 181.909ZM535.202 181.909V176.909H530.963L530.269 181.09L535.202 181.909ZM530.838 208.193L525.906 207.374L524.94 213.193H530.838V208.193ZM562.815 208.193L567.747 209.015L568.718 203.193H562.815V208.193ZM561.861 213.92V218.92H566.096L566.793 214.742L561.861 213.92ZM529.884 213.92V208.92H525.643L524.951 213.104L529.884 213.92ZM525.52 240.273L520.587 239.456L519.624 245.273H525.52V240.273ZM560.327 240.273L565.259 241.095L566.229 235.273H560.327V240.273ZM559.372 246V251H563.608L564.304 246.822L559.372 246ZM518.19 246L523.123 246.819L534.714 177.001L529.781 176.182L524.849 175.363L513.258 245.181L518.19 246ZM529.781 176.182V181.182H570.281V176.182V171.182H529.781V176.182ZM570.281 176.182L565.349 175.36L564.395 181.087L569.327 181.909L574.259 182.731L575.213 177.004L570.281 176.182ZM569.327 181.909V176.909H535.202V181.909V186.909H569.327V181.909ZM535.202 181.909L530.269 181.09L525.906 207.374L530.838 208.193L535.771 209.012L540.134 182.728L535.202 181.909ZM530.838 208.193V213.193H562.815V208.193V203.193H530.838V208.193ZM562.815 208.193L557.883 207.371L556.929 213.098L561.861 213.92L566.793 214.742L567.747 209.015L562.815 208.193ZM561.861 213.92V208.92H529.884V213.92V218.92H561.861V213.92ZM529.884 213.92L524.951 213.104L520.587 239.456L525.52 240.273L530.453 241.09L534.816 214.737L529.884 213.92ZM525.52 240.273V245.273H560.327V240.273V235.273H525.52V240.273ZM560.327 240.273L555.395 239.451L554.44 245.178L559.372 246L564.304 246.822L565.259 241.095L560.327 240.273ZM559.372 246V241H518.19V246V251H559.372V246Z" fill="#C9C9C9" fill-opacity="0.65" mask="url(#path-69-outside-1_1620_2)"/>
<mask id="path-71-outside-2_1620_2" maskUnits="userSpaceOnUse" x="228" y="92" width="141" height="40" fill="black">
<rect fill="white" x="228" y="92" width="141" height="40"/>
<path d="M240.088 127H237.304L252.716 97.9091H255.557L261.31 127H258.526L253.682 101.361H253.497L240.088 127ZM243.952 115.849H258.384L257.986 118.236H243.554L243.952 115.849ZM265.77 127L269.406 105.182H271.864L271.295 108.534H271.48C272.086 107.436 272.991 106.55 274.193 105.878C275.405 105.196 276.698 104.855 278.071 104.855C278.279 104.855 278.511 104.86 278.767 104.869C279.023 104.869 279.236 104.879 279.406 104.898L278.966 107.469C278.852 107.45 278.653 107.421 278.369 107.384C278.095 107.346 277.787 107.327 277.446 107.327C276.31 107.327 275.259 107.568 274.293 108.051C273.336 108.525 272.531 109.183 271.878 110.026C271.234 110.868 270.817 111.83 270.628 112.909L268.298 127H265.77ZM283.732 118.761L284.243 115.423H284.811L296.729 105.182H299.967L288.192 115.295L287.964 115.338L283.732 118.761ZM280.067 127L284.896 97.9091H287.425L282.595 127H280.067ZM293.703 127L286.672 115.793L288.732 114.045L296.899 127H293.703ZM309.094 97.9091L304.264 127H301.608L306.438 97.9091H309.094ZM320.592 127H311.999L316.828 97.9091H325.791C328.556 97.9091 330.839 98.4962 332.638 99.6705C334.437 100.845 335.687 102.526 336.388 104.713C337.089 106.891 337.183 109.495 336.672 112.526C336.17 115.556 335.209 118.151 333.788 120.31C332.368 122.469 330.54 124.126 328.305 125.281C326.08 126.427 323.509 127 320.592 127ZM315.053 124.614H320.734C323.215 124.614 325.384 124.112 327.24 123.108C329.096 122.104 330.607 120.679 331.771 118.832C332.936 116.976 333.727 114.775 334.143 112.227C334.56 109.727 334.513 107.587 334.001 105.807C333.5 104.027 332.529 102.663 331.089 101.716C329.66 100.769 327.761 100.295 325.393 100.295H319.072L315.053 124.614ZM340.71 127L345.539 97.9091H362.414L362.016 100.295H347.798L345.979 111.247H359.303L358.906 113.634H345.582L343.763 124.614H358.266L357.869 127H340.71Z"/>
</mask>
<path d="M240.088 127H237.304L252.716 97.9091H255.557L261.31 127H258.526L253.682 101.361H253.497L240.088 127ZM243.952 115.849H258.384L257.986 118.236H243.554L243.952 115.849ZM265.77 127L269.406 105.182H271.864L271.295 108.534H271.48C272.086 107.436 272.991 106.55 274.193 105.878C275.405 105.196 276.698 104.855 278.071 104.855C278.279 104.855 278.511 104.86 278.767 104.869C279.023 104.869 279.236 104.879 279.406 104.898L278.966 107.469C278.852 107.45 278.653 107.421 278.369 107.384C278.095 107.346 277.787 107.327 277.446 107.327C276.31 107.327 275.259 107.568 274.293 108.051C273.336 108.525 272.531 109.183 271.878 110.026C271.234 110.868 270.817 111.83 270.628 112.909L268.298 127H265.77ZM283.732 118.761L284.243 115.423H284.811L296.729 105.182H299.967L288.192 115.295L287.964 115.338L283.732 118.761ZM280.067 127L284.896 97.9091H287.425L282.595 127H280.067ZM293.703 127L286.672 115.793L288.732 114.045L296.899 127H293.703ZM309.094 97.9091L304.264 127H301.608L306.438 97.9091H309.094ZM320.592 127H311.999L316.828 97.9091H325.791C328.556 97.9091 330.839 98.4962 332.638 99.6705C334.437 100.845 335.687 102.526 336.388 104.713C337.089 106.891 337.183 109.495 336.672 112.526C336.17 115.556 335.209 118.151 333.788 120.31C332.368 122.469 330.54 124.126 328.305 125.281C326.08 126.427 323.509 127 320.592 127ZM315.053 124.614H320.734C323.215 124.614 325.384 124.112 327.24 123.108C329.096 122.104 330.607 120.679 331.771 118.832C332.936 116.976 333.727 114.775 334.143 112.227C334.56 109.727 334.513 107.587 334.001 105.807C333.5 104.027 332.529 102.663 331.089 101.716C329.66 100.769 327.761 100.295 325.393 100.295H319.072L315.053 124.614ZM340.71 127L345.539 97.9091H362.414L362.016 100.295H347.798L345.979 111.247H359.303L358.906 113.634H345.582L343.763 124.614H358.266L357.869 127H340.71Z" fill="white"/>
<path d="M240.088 127V132H243.116L244.519 129.317L240.088 127ZM237.304 127L232.886 124.659L228.997 132H237.304V127ZM252.716 97.9091V92.9091H249.706L248.298 95.5684L252.716 97.9091ZM255.557 97.9091L260.462 96.9391L259.665 92.9091H255.557V97.9091ZM261.31 127V132H267.395L266.215 126.03L261.31 127ZM258.526 127L253.612 127.928L254.382 132H258.526V127ZM253.682 101.361L258.595 100.433L257.826 96.3608H253.682V101.361ZM253.497 101.361V96.3608H250.47L249.067 99.0436L253.497 101.361ZM243.952 115.849V110.849H239.716L239.02 115.027L243.952 115.849ZM258.384 115.849L263.315 116.671L264.286 110.849H258.384V115.849ZM257.986 118.236V123.236H262.221L262.918 119.058L257.986 118.236ZM243.554 118.236L238.622 117.414L237.652 123.236H243.554V118.236ZM240.088 127V122H237.304V127V132H240.088V127ZM237.304 127L241.722 129.341L257.134 100.25L252.716 97.9091L248.298 95.5684L232.886 124.659L237.304 127ZM252.716 97.9091V102.909H255.557V97.9091V92.9091H252.716V97.9091ZM255.557 97.9091L250.652 98.8791L256.405 127.97L261.31 127L266.215 126.03L260.462 96.9391L255.557 97.9091ZM261.31 127V122H258.526V127V132H261.31V127ZM258.526 127L263.439 126.072L258.595 100.433L253.682 101.361L248.769 102.289L253.612 127.928L258.526 127ZM253.682 101.361V96.3608H253.497V101.361V106.361H253.682V101.361ZM253.497 101.361L249.067 99.0436L235.657 124.683L240.088 127L244.519 129.317L257.928 103.678L253.497 101.361ZM243.952 115.849V120.849H258.384V115.849V110.849H243.952V115.849ZM258.384 115.849L253.452 115.027L253.054 117.414L257.986 118.236L262.918 119.058L263.315 116.671L258.384 115.849ZM257.986 118.236V113.236H243.554V118.236V123.236H257.986V118.236ZM243.554 118.236L248.486 119.058L248.884 116.671L243.952 115.849L239.02 115.027L238.622 117.414L243.554 118.236ZM265.77 127L260.838 126.178L259.868 132H265.77V127ZM269.406 105.182V100.182H265.171L264.474 104.36L269.406 105.182ZM271.864 105.182L276.793 106.017L277.782 100.182H271.864V105.182ZM271.295 108.534L266.366 107.699L265.377 113.534H271.295V108.534ZM271.48 108.534V113.534H274.432L275.858 110.949L271.48 108.534ZM274.193 105.878L276.633 110.242L276.644 110.236L274.193 105.878ZM278.767 104.869L278.582 109.866L278.674 109.869H278.767V104.869ZM279.406 104.898L284.334 105.742L285.23 100.514L279.958 99.9283L279.406 104.898ZM278.966 107.469L278.144 112.401L283.054 113.219L283.894 108.313L278.966 107.469ZM278.369 107.384L277.686 112.337L277.697 112.338L277.709 112.34L278.369 107.384ZM274.293 108.051L276.511 112.532L276.52 112.528L276.529 112.523L274.293 108.051ZM271.878 110.026L267.926 106.962L267.915 106.976L267.905 106.99L271.878 110.026ZM270.628 112.909L265.703 112.045L265.699 112.069L265.695 112.094L270.628 112.909ZM268.298 127V132H272.54L273.231 127.816L268.298 127ZM265.77 127L270.702 127.822L274.338 106.004L269.406 105.182L264.474 104.36L260.838 126.178L265.77 127ZM269.406 105.182V110.182H271.864V105.182V100.182H269.406V105.182ZM271.864 105.182L266.934 104.346L266.366 107.699L271.295 108.534L276.225 109.37L276.793 106.017L271.864 105.182ZM271.295 108.534V113.534H271.48V108.534V103.534H271.295V108.534ZM271.48 108.534L275.858 110.949C275.969 110.748 276.163 110.505 276.633 110.242L274.193 105.878L271.753 101.514C269.818 102.595 268.203 104.123 267.102 106.119L271.48 108.534ZM274.193 105.878L276.644 110.236C277.118 109.969 277.568 109.855 278.071 109.855V104.855V99.8551C275.828 99.8551 273.692 100.423 271.742 101.52L274.193 105.878ZM278.071 104.855V109.855C278.206 109.855 278.375 109.858 278.582 109.866L278.767 104.869L278.952 99.8727C278.648 99.8615 278.353 99.8551 278.071 99.8551V104.855ZM278.767 104.869V109.869C278.835 109.869 278.877 109.871 278.897 109.871C278.906 109.872 278.907 109.872 278.901 109.872C278.895 109.871 278.879 109.87 278.854 109.867L279.406 104.898L279.958 99.9283C279.539 99.8817 279.127 99.8693 278.767 99.8693V104.869ZM279.406 104.898L274.478 104.054L274.038 106.625L278.966 107.469L283.894 108.313L284.334 105.742L279.406 104.898ZM278.966 107.469L279.788 102.537C279.585 102.503 279.312 102.465 279.03 102.427L278.369 107.384L277.709 112.34C277.841 112.357 277.945 112.372 278.024 112.383C278.064 112.389 278.094 112.393 278.116 112.396C278.139 112.4 278.147 112.401 278.144 112.401L278.966 107.469ZM278.369 107.384L279.053 102.43C278.507 102.355 277.966 102.327 277.446 102.327V107.327V112.327C277.525 112.327 277.584 112.329 277.625 112.331C277.667 112.334 277.687 112.337 277.686 112.337L278.369 107.384ZM277.446 107.327V102.327C275.575 102.327 273.753 102.731 272.057 103.579L274.293 108.051L276.529 112.523C276.764 112.406 277.044 112.327 277.446 112.327V107.327ZM274.293 108.051L272.074 103.57C270.441 104.379 269.043 105.521 267.926 106.962L271.878 110.026L275.829 113.089C276.019 112.844 276.231 112.67 276.511 112.532L274.293 108.051ZM271.878 110.026L267.905 106.99C266.758 108.492 266.026 110.203 265.703 112.045L270.628 112.909L275.553 113.773C275.608 113.456 275.71 113.245 275.851 113.061L271.878 110.026ZM270.628 112.909L265.695 112.094L263.365 126.184L268.298 127L273.231 127.816L275.561 113.725L270.628 112.909ZM268.298 127V122H265.77V127V132H268.298V127ZM283.732 118.761L278.789 118.004L276.834 130.77L286.876 122.649L283.732 118.761ZM284.243 115.423V110.423H279.951L279.301 114.666L284.243 115.423ZM284.811 115.423V120.423H286.664L288.07 119.215L284.811 115.423ZM296.729 105.182V100.182H294.875L293.47 101.39L296.729 105.182ZM299.967 105.182L303.225 108.975L313.463 100.182H299.967V105.182ZM288.192 115.295L289.113 120.21L290.432 119.963L291.449 119.089L288.192 115.295ZM287.964 115.338L287.043 110.424L285.802 110.656L284.82 111.45L287.964 115.338ZM280.067 127L275.134 126.181L274.168 132H280.067V127ZM284.896 97.9091V92.9091H280.658L279.964 97.0902L284.896 97.9091ZM287.425 97.9091L292.357 98.728L293.323 92.9091H287.425V97.9091ZM282.595 127V132H286.834L287.528 127.819L282.595 127ZM293.703 127L289.468 129.657L290.937 132H293.703V127ZM286.672 115.793L283.437 111.98L280.135 114.781L282.436 118.45L286.672 115.793ZM288.732 114.045L292.961 111.379L289.889 106.507L285.497 110.233L288.732 114.045ZM296.899 127V132H305.962L301.129 124.333L296.899 127ZM283.732 118.761L288.674 119.518L289.185 116.18L284.243 115.423L279.301 114.666L278.789 118.004L283.732 118.761ZM284.243 115.423V120.423H284.811V115.423V110.423H284.243V115.423ZM284.811 115.423L288.07 119.215L299.987 108.974L296.729 105.182L293.47 101.39L281.552 111.631L284.811 115.423ZM296.729 105.182V110.182H299.967V105.182V100.182H296.729V105.182ZM299.967 105.182L296.71 101.389L284.934 111.502L288.192 115.295L291.449 119.089L303.225 108.975L299.967 105.182ZM288.192 115.295L287.27 110.381L287.043 110.424L287.964 115.338L288.886 120.252L289.113 120.21L288.192 115.295ZM287.964 115.338L284.82 111.45L280.587 114.874L283.732 118.761L286.876 122.649L291.109 119.226L287.964 115.338ZM280.067 127L284.999 127.819L289.829 98.728L284.896 97.9091L279.964 97.0902L275.134 126.181L280.067 127ZM284.896 97.9091V102.909H287.425V97.9091V92.9091H284.896V97.9091ZM287.425 97.9091L282.492 97.0902L277.663 126.181L282.595 127L287.528 127.819L292.357 98.728L287.425 97.9091ZM282.595 127V122H280.067V127V132H282.595V127ZM293.703 127L297.939 124.343L290.907 113.135L286.672 115.793L282.436 118.45L289.468 129.657L293.703 127ZM286.672 115.793L289.906 119.606L291.966 117.858L288.732 114.045L285.497 110.233L283.437 111.98L286.672 115.793ZM288.732 114.045L284.502 116.712L292.67 129.667L296.899 127L301.129 124.333L292.961 111.379L288.732 114.045ZM296.899 127V122H293.703V127V132H296.899V127ZM309.094 97.9091L314.026 98.728L314.992 92.9091H309.094V97.9091ZM304.264 127V132H308.503L309.197 127.819L304.264 127ZM301.608 127L296.675 126.181L295.709 132H301.608V127ZM306.438 97.9091V92.9091H302.199L301.505 97.0902L306.438 97.9091ZM309.094 97.9091L304.161 97.0902L299.332 126.181L304.264 127L309.197 127.819L314.026 98.728L309.094 97.9091ZM304.264 127V122H301.608V127V132H304.264V127ZM301.608 127L306.54 127.819L311.37 98.728L306.438 97.9091L301.505 97.0902L296.675 126.181L301.608 127ZM306.438 97.9091V102.909H309.094V97.9091V92.9091H306.438V97.9091ZM311.999 127L307.066 126.181L306.1 132H311.999V127ZM316.828 97.9091V92.9091H312.59L311.896 97.0902L316.828 97.9091ZM332.638 99.6705L335.37 95.4833L335.37 95.4833L332.638 99.6705ZM336.388 104.713L331.626 106.238L331.628 106.244L336.388 104.713ZM336.672 112.526L331.742 111.694L331.74 111.701L331.739 111.709L336.672 112.526ZM333.788 120.31L329.611 117.562L329.611 117.562L333.788 120.31ZM328.305 125.281L330.594 129.727L330.601 129.723L328.305 125.281ZM315.053 124.614L310.12 123.798L309.158 129.614H315.053V124.614ZM327.24 123.108L329.619 127.506L329.619 127.506L327.24 123.108ZM331.771 118.832L336 121.5L336.006 121.49L331.771 118.832ZM334.143 112.227L329.211 111.405L329.21 111.413L329.209 111.42L334.143 112.227ZM334.001 105.807L329.189 107.164L329.192 107.175L329.196 107.187L334.001 105.807ZM331.089 101.716L328.329 105.885L328.335 105.889L328.341 105.893L331.089 101.716ZM319.072 100.295V95.2955H314.831L314.139 99.48L319.072 100.295ZM320.592 127V122H311.999V127V132H320.592V127ZM311.999 127L316.931 127.819L321.761 98.728L316.828 97.9091L311.896 97.0902L307.066 126.181L311.999 127ZM316.828 97.9091V102.909H325.791V97.9091V92.9091H316.828V97.9091ZM325.791 97.9091V102.909C327.862 102.909 329.122 103.347 329.905 103.858L332.638 99.6705L335.37 95.4833C332.555 93.6457 329.251 92.9091 325.791 92.9091V97.9091ZM332.638 99.6705L329.905 103.858C330.673 104.359 331.25 105.064 331.626 106.238L336.388 104.713L341.149 103.188C340.124 99.9874 338.201 97.3305 335.37 95.4833L332.638 99.6705ZM336.388 104.713L331.628 106.244C332.014 107.444 332.163 109.194 331.742 111.694L336.672 112.526L341.602 113.358C342.203 109.796 342.163 106.339 341.147 103.182L336.388 104.713ZM336.672 112.526L331.739 111.709C331.33 114.177 330.582 116.086 329.611 117.562L333.788 120.31L337.965 123.058C339.835 120.215 341.01 116.934 341.605 113.343L336.672 112.526ZM333.788 120.31L329.611 117.562C328.649 119.025 327.461 120.089 326.009 120.84L328.305 125.281L330.601 129.723C333.62 128.163 336.087 125.913 337.965 123.058L333.788 120.31ZM328.305 125.281L326.017 120.836C324.608 121.561 322.844 122 320.592 122V127V132C324.174 132 327.553 131.293 330.594 129.727L328.305 125.281ZM315.053 124.614V129.614H320.734V124.614V119.614H315.053V124.614ZM320.734 124.614V129.614C323.9 129.614 326.913 128.969 329.619 127.506L327.24 123.108L324.862 118.71C323.855 119.254 322.531 119.614 320.734 119.614V124.614ZM327.24 123.108L329.619 127.506C332.257 126.079 334.394 124.046 336 121.5L331.771 118.832L327.542 116.165C326.819 117.312 325.936 118.129 324.862 118.71L327.24 123.108ZM331.771 118.832L336.006 121.49C337.582 118.979 338.573 116.124 339.078 113.034L334.143 112.227L329.209 111.42C328.881 113.425 328.29 114.974 327.536 116.175L331.771 118.832ZM334.143 112.227L339.075 113.049C339.572 110.07 339.585 107.135 338.807 104.426L334.001 105.807L329.196 107.187C329.44 108.039 329.548 109.384 329.211 111.405L334.143 112.227ZM334.001 105.807L338.814 104.45C338.012 101.604 336.359 99.1978 333.838 97.5388L331.089 101.716L328.341 105.893C328.699 106.128 328.988 106.449 329.189 107.164L334.001 105.807ZM331.089 101.716L333.85 97.5472C331.345 95.8881 328.381 95.2955 325.393 95.2955V100.295V105.295C327.14 105.295 327.974 105.65 328.329 105.885L331.089 101.716ZM325.393 100.295V95.2955H319.072V100.295V105.295H325.393V100.295ZM319.072 100.295L314.139 99.48L310.12 123.798L315.053 124.614L319.986 125.429L324.005 101.111L319.072 100.295ZM340.71 127L335.777 126.181L334.811 132H340.71V127ZM345.539 97.9091V92.9091H341.301L340.607 97.0902L345.539 97.9091ZM362.414 97.9091L367.346 98.7311L368.316 92.9091H362.414V97.9091ZM362.016 100.295V105.295H366.252L366.948 101.117L362.016 100.295ZM347.798 100.295V95.2955H343.559L342.865 99.4766L347.798 100.295ZM345.979 111.247L341.047 110.428L340.081 116.247H345.979V111.247ZM359.303 111.247L364.235 112.069L365.206 106.247H359.303V111.247ZM358.906 113.634V118.634H363.141L363.838 114.456L358.906 113.634ZM345.582 113.634V108.634H341.342L340.649 112.817L345.582 113.634ZM343.763 124.614L338.831 123.797L337.867 129.614H343.763V124.614ZM358.266 124.614L363.198 125.436L364.169 119.614H358.266V124.614ZM357.869 127V132H362.104L362.801 127.822L357.869 127ZM340.71 127L345.642 127.819L350.472 98.728L345.539 97.9091L340.607 97.0902L335.777 126.181L340.71 127ZM345.539 97.9091V102.909H362.414V97.9091V92.9091H345.539V97.9091ZM362.414 97.9091L357.482 97.0871L357.084 99.4735L362.016 100.295L366.948 101.117L367.346 98.7311L362.414 97.9091ZM362.016 100.295V95.2955H347.798V100.295V105.295H362.016V100.295ZM347.798 100.295L342.865 99.4766L341.047 110.428L345.979 111.247L350.912 112.066L352.73 101.114L347.798 100.295ZM345.979 111.247V116.247H359.303V111.247V106.247H345.979V111.247ZM359.303 111.247L354.371 110.425L353.974 112.812L358.906 113.634L363.838 114.456L364.235 112.069L359.303 111.247ZM358.906 113.634V108.634H345.582V113.634V118.634H358.906V113.634ZM345.582 113.634L340.649 112.817L338.831 123.797L343.763 124.614L348.696 125.43L350.515 114.45L345.582 113.634ZM343.763 124.614V129.614H358.266V124.614V119.614H343.763V124.614ZM358.266 124.614L353.334 123.792L352.937 126.178L357.869 127L362.801 127.822L363.198 125.436L358.266 124.614ZM357.869 127V122H340.71V127V132H357.869V127Z" fill="#C9C9C9" fill-opacity="0.65" mask="url(#path-71-outside-2_1620_2)"/>
<mask id="path-73-outside-3_1620_2" maskUnits="userSpaceOnUse" x="30" y="149" width="94" height="122" fill="black">
<rect fill="white" x="30" y="149" width="94" height="122"/>
<path d="M42.2273 252.682C40.4091 252.682 38.8788 252.045 37.6364 250.773C36.4242 249.5 35.8182 247.955 35.8182 246.136C35.8182 244.318 36.4848 242.788 37.8182 241.545C39.1515 240.303 40.7121 239.682 42.5 239.682C44.2879 239.682 45.8182 240.318 47.0909 241.591C48.3636 242.864 48.9697 244.379 48.9091 246.136C48.8788 247.348 48.5455 248.455 47.9091 249.455C47.303 250.424 46.5 251.212 45.5 251.818C44.5303 252.394 43.4394 252.682 42.2273 252.682ZM115.648 154.545L67.2386 266H59.6477L108.011 154.545H115.648Z"/>
</mask>
<path d="M42.2273 252.682C40.4091 252.682 38.8788 252.045 37.6364 250.773C36.4242 249.5 35.8182 247.955 35.8182 246.136C35.8182 244.318 36.4848 242.788 37.8182 241.545C39.1515 240.303 40.7121 239.682 42.5 239.682C44.2879 239.682 45.8182 240.318 47.0909 241.591C48.3636 242.864 48.9697 244.379 48.9091 246.136C48.8788 247.348 48.5455 248.455 47.9091 249.455C47.303 250.424 46.5 251.212 45.5 251.818C44.5303 252.394 43.4394 252.682 42.2273 252.682ZM115.648 154.545L67.2386 266H59.6477L108.011 154.545H115.648Z" fill="white"/>
<path d="M37.6364 250.773L34.0157 254.221L34.0369 254.243L34.0585 254.265L37.6364 250.773ZM37.8182 241.545L34.4096 237.887L34.4096 237.887L37.8182 241.545ZM47.0909 241.591L50.6264 238.055L50.6264 238.055L47.0909 241.591ZM48.9091 246.136L43.9121 245.964L43.9112 245.988L43.9107 246.011L48.9091 246.136ZM47.9091 249.455L43.6908 246.77L43.6799 246.787L43.6691 246.805L47.9091 249.455ZM45.5 251.818L48.0527 256.117L48.0722 256.106L48.0915 256.094L45.5 251.818ZM42.2273 252.682V247.682C41.7223 247.682 41.4925 247.565 41.2142 247.28L37.6364 250.773L34.0585 254.265C36.2651 256.526 39.0958 257.682 42.2273 257.682V252.682ZM37.6364 250.773L41.2571 247.324C40.9637 247.016 40.8182 246.72 40.8182 246.136H35.8182H30.8182C30.8182 249.189 31.8848 251.984 34.0157 254.221L37.6364 250.773ZM35.8182 246.136H40.8182C40.8182 245.709 40.9057 245.503 41.2268 245.203L37.8182 241.545L34.4096 237.887C32.064 240.073 30.8182 242.927 30.8182 246.136H35.8182ZM37.8182 241.545L41.2268 245.203C41.6545 244.805 42.0041 244.682 42.5 244.682V239.682V234.682C39.4202 234.682 36.6486 235.801 34.4096 237.887L37.8182 241.545ZM42.5 239.682V244.682C42.9518 244.682 43.2132 244.784 43.5554 245.126L47.0909 241.591L50.6264 238.055C48.4231 235.852 45.624 234.682 42.5 234.682V239.682ZM47.0909 241.591L43.5554 245.126C43.8742 245.445 43.9237 245.628 43.9121 245.964L48.9091 246.136L53.9061 246.309C54.0157 243.13 52.8531 240.282 50.6264 238.055L47.0909 241.591ZM48.9091 246.136L43.9107 246.011C43.9025 246.337 43.8278 246.555 43.6908 246.77L47.9091 249.455L52.1274 252.139C53.2631 250.354 53.8551 248.36 53.9075 246.261L48.9091 246.136ZM47.9091 249.455L43.6691 246.805C43.4873 247.095 43.255 247.332 42.9085 247.542L45.5 251.818L48.0915 256.094C49.745 255.092 51.1187 253.753 52.1491 252.105L47.9091 249.455ZM45.5 251.818L42.9473 247.519C42.8079 247.602 42.6107 247.682 42.2273 247.682V252.682V257.682C44.2681 257.682 46.2527 257.186 48.0527 256.117L45.5 251.818ZM115.648 154.545L120.234 156.537L123.271 149.545H115.648V154.545ZM67.2386 266V271H70.5182L71.8247 267.992L67.2386 266ZM59.6477 266L55.061 264.01L52.0276 271H59.6477V266ZM108.011 154.545V149.545H104.731L103.425 152.555L108.011 154.545ZM115.648 154.545L111.062 152.554L62.6525 264.008L67.2386 266L71.8247 267.992L120.234 156.537L115.648 154.545ZM67.2386 266V261H59.6477V266V271H67.2386V266ZM59.6477 266L64.2345 267.99L112.598 156.536L108.011 154.545L103.425 152.555L55.061 264.01L59.6477 266ZM108.011 154.545V159.545H115.648V154.545V149.545H108.011V154.545Z" fill="#C9C9C9" fill-opacity="0.65" mask="url(#path-73-outside-3_1620_2)"/>
</g>
<defs>
<clipPath id="clip0_1620_2">
<rect width="600" height="372" fill="white"/>
</clipPath>
</defs>
</svg>
