<svg width="600" height="372" viewBox="0 0 600 372" fill="none" xmlns="http://www.w3.org/2000/svg">
<rect width="600" height="372" fill="url(#paint0_linear_1669_2)"/>
<mask id="path-1-outside-1_1669_2" maskUnits="userSpaceOnUse" x="333" y="29" width="253" height="315" fill="black">
<rect fill="white" x="333" y="29" width="253" height="315"/>
<path d="M385.006 53.0114C385.165 48.9205 383.949 45.7159 381.358 43.3977C378.79 41.0795 375.188 39.9205 370.551 39.9205C367.324 39.9205 364.369 40.4886 361.688 41.625C359.028 42.7386 356.835 44.2727 355.108 46.2273C353.403 48.1818 352.347 50.4091 351.938 52.9091C351.642 54.75 351.778 56.3636 352.347 57.75C352.915 59.1136 353.79 60.2955 354.972 61.2955C356.153 62.2955 357.506 63.1477 359.028 63.8523C360.574 64.5568 362.142 65.1477 363.733 65.625L370.79 67.7386C372.881 68.3523 374.96 69.1364 377.028 70.0909C379.097 71.0455 380.938 72.2386 382.551 73.6705C384.165 75.1023 385.358 76.8636 386.131 78.9545C386.926 81.0455 387.085 83.5455 386.608 86.4545C385.972 90.2273 384.449 93.6023 382.04 96.5795C379.653 99.5341 376.517 101.875 372.631 103.602C368.744 105.33 364.256 106.193 359.165 106.193C354.415 106.193 350.415 105.409 347.165 103.841C343.915 102.25 341.517 100.057 339.972 97.2614C338.426 94.4659 337.835 91.2273 338.199 87.5455H344.744C344.494 90.2955 345.006 92.625 346.278 94.5341C347.574 96.4432 349.415 97.8977 351.801 98.8977C354.21 99.875 356.983 100.364 360.119 100.364C363.597 100.364 366.79 99.7841 369.699 98.625C372.608 97.4432 375.006 95.8068 376.892 93.7159C378.801 91.6023 379.983 89.1477 380.438 86.3523C380.847 83.9886 380.563 82 379.585 80.3864C378.631 78.7727 377.142 77.4205 375.119 76.3295C373.119 75.2159 370.733 74.2386 367.96 73.3977L359.983 70.9432C354.778 69.3523 350.903 67.1136 348.358 64.2273C345.835 61.3409 344.938 57.6591 345.665 53.1818C346.301 49.4091 347.858 46.1023 350.335 43.2614C352.835 40.3977 355.938 38.1705 359.642 36.5795C363.347 34.9886 367.347 34.1932 371.642 34.1932C375.983 34.1932 379.676 35 382.722 36.6136C385.79 38.2273 388.063 40.4545 389.54 43.2955C391.04 46.1136 391.597 49.3523 391.21 53.0114H385.006ZM426.938 52.6364L426.085 57.9205H401.062L401.949 52.6364H426.938ZM411.801 40.0909H417.903L409.381 91.3295C409.017 93.5114 409.108 95.2273 409.653 96.4773C410.199 97.7045 411.04 98.5795 412.176 99.1023C413.313 99.6023 414.563 99.8523 415.926 99.8523C416.722 99.8523 417.403 99.8068 417.972 99.7159C418.562 99.6023 419.085 99.4886 419.54 99.375L419.983 104.864C419.324 105.091 418.54 105.295 417.631 105.477C416.722 105.682 415.631 105.784 414.358 105.784C412.131 105.784 410.074 105.295 408.188 104.318C406.301 103.341 404.869 101.886 403.892 99.9545C402.915 98.0227 402.653 95.625 403.108 92.7614L411.801 40.0909ZM452.02 106.091C447.429 106.091 443.565 104.932 440.429 102.614C437.293 100.273 435.077 97.0341 433.781 92.8977C432.486 88.7614 432.27 83.9886 433.134 78.5795C433.997 73.3068 435.713 68.6705 438.281 64.6705C440.872 60.6477 444.054 57.5227 447.827 55.2955C451.599 53.0455 455.702 51.9205 460.134 51.9205C464.747 51.9205 468.611 53.0909 471.724 55.4318C474.861 57.7727 477.077 61.0114 478.372 65.1477C479.69 69.2841 479.918 74.0682 479.054 79.5C478.19 84.75 476.463 89.375 473.872 93.375C471.281 97.3523 468.099 100.466 464.327 102.716C460.577 104.966 456.474 106.091 452.02 106.091ZM452.088 100.534C455.815 100.534 459.134 99.5455 462.043 97.5682C464.974 95.5682 467.395 92.9091 469.304 89.5909C471.213 86.25 472.497 82.5795 473.156 78.5795C473.77 74.7614 473.702 71.25 472.952 68.0455C472.202 64.8409 470.759 62.2727 468.622 60.3409C466.486 58.4091 463.645 57.4432 460.099 57.4432C456.395 57.4432 453.077 58.4545 450.145 60.4773C447.213 62.4773 444.793 65.1591 442.884 68.5227C440.974 71.8636 439.702 75.5227 439.065 79.5C438.429 83.3409 438.474 86.8523 439.202 90.0341C439.952 93.2159 441.395 95.7614 443.531 97.6705C445.69 99.5795 448.543 100.534 452.088 100.534ZM488.148 105L496.875 52.6364H502.773L501.409 60.6818H501.852C503.307 58.0455 505.477 55.9205 508.364 54.3068C511.273 52.6705 514.375 51.8523 517.67 51.8523C518.17 51.8523 518.727 51.8636 519.341 51.8864C519.955 51.8864 520.466 51.9091 520.875 51.9545L519.818 58.125C519.545 58.0795 519.068 58.0114 518.386 57.9205C517.727 57.8295 516.989 57.7841 516.17 57.7841C513.443 57.7841 510.92 58.3636 508.602 59.5227C506.307 60.6591 504.375 62.2386 502.807 64.2614C501.261 66.2841 500.261 68.5909 499.807 71.1818L494.216 105H488.148ZM541.901 106.091C537.014 106.091 532.98 104.955 529.798 102.682C526.616 100.386 524.389 97.2159 523.116 93.1705C521.844 89.1023 521.651 84.4205 522.537 79.125C523.423 73.8523 525.173 69.1705 527.787 65.0795C530.401 60.9659 533.628 57.75 537.469 55.4318C541.31 53.0909 545.48 51.9205 549.98 51.9205C552.821 51.9205 555.48 52.4432 557.957 53.4886C560.435 54.5114 562.537 56.0909 564.264 58.2273C566.014 60.3409 567.23 63.0114 567.912 66.2386C568.594 69.4432 568.571 73.2386 567.844 77.625L567.366 80.625H526.457L527.31 75.2727H562.048C562.616 71.9091 562.457 68.8864 561.571 66.2045C560.685 63.5227 559.173 61.3977 557.037 59.8295C554.923 58.2386 552.298 57.4432 549.162 57.4432C545.957 57.4432 542.923 58.3409 540.06 60.1364C537.219 61.9318 534.81 64.2727 532.832 67.1591C530.878 70.0227 529.616 73.0795 529.048 76.3295L528.366 80.3523C527.639 84.7841 527.73 88.5 528.639 91.5C529.548 94.4773 531.196 96.7273 533.582 98.25C535.969 99.7727 539.026 100.534 542.753 100.534C545.253 100.534 547.514 100.148 549.537 99.375C551.56 98.6023 553.321 97.5682 554.821 96.2727C556.321 94.9545 557.526 93.5114 558.435 91.9432L563.855 93.8182C562.696 96.0227 561.06 98.0568 558.946 99.9205C556.855 101.784 554.366 103.284 551.48 104.42C548.616 105.534 545.423 106.091 541.901 106.091ZM452.531 151.182H459.895L475.168 212H475.815L511.168 151.182H518.531L506.94 221H500.94L510.349 164.648H509.804L476.838 221H471.043L456.895 164.648H456.349L446.94 221H440.94L452.531 151.182ZM525.264 240.636C524.06 240.636 522.946 240.523 521.923 240.295C520.923 240.068 520.139 239.818 519.571 239.545L522.128 234.193C524.037 234.852 525.787 235.057 527.378 234.807C528.991 234.58 530.526 233.807 531.98 232.489C533.435 231.17 534.866 229.205 536.276 226.591L539.139 221.273L528.776 168.636H535.082L543.264 213.091H543.707L566.651 168.636H573.503L541.287 229.216C539.901 231.83 538.366 233.977 536.685 235.659C535.026 237.341 533.23 238.591 531.298 239.409C529.389 240.227 527.378 240.636 525.264 240.636ZM406.943 285.011C407.102 280.92 405.886 277.716 403.295 275.398C400.727 273.08 397.125 271.92 392.489 271.92C389.261 271.92 386.307 272.489 383.625 273.625C380.966 274.739 378.773 276.273 377.045 278.227C375.341 280.182 374.284 282.409 373.875 284.909C373.58 286.75 373.716 288.364 374.284 289.75C374.852 291.114 375.727 292.295 376.909 293.295C378.091 294.295 379.443 295.148 380.966 295.852C382.511 296.557 384.08 297.148 385.67 297.625L392.727 299.739C394.818 300.352 396.898 301.136 398.966 302.091C401.034 303.045 402.875 304.239 404.489 305.67C406.102 307.102 407.295 308.864 408.068 310.955C408.864 313.045 409.023 315.545 408.545 318.455C407.909 322.227 406.386 325.602 403.977 328.58C401.591 331.534 398.455 333.875 394.568 335.602C390.682 337.33 386.193 338.193 381.102 338.193C376.352 338.193 372.352 337.409 369.102 335.841C365.852 334.25 363.455 332.057 361.909 329.261C360.364 326.466 359.773 323.227 360.136 319.545H366.682C366.432 322.295 366.943 324.625 368.216 326.534C369.511 328.443 371.352 329.898 373.739 330.898C376.148 331.875 378.92 332.364 382.057 332.364C385.534 332.364 388.727 331.784 391.636 330.625C394.545 329.443 396.943 327.807 398.83 325.716C400.739 323.602 401.92 321.148 402.375 318.352C402.784 315.989 402.5 314 401.523 312.386C400.568 310.773 399.08 309.42 397.057 308.33C395.057 307.216 392.67 306.239 389.898 305.398L381.92 302.943C376.716 301.352 372.841 299.114 370.295 296.227C367.773 293.341 366.875 289.659 367.602 285.182C368.239 281.409 369.795 278.102 372.273 275.261C374.773 272.398 377.875 270.17 381.58 268.58C385.284 266.989 389.284 266.193 393.58 266.193C397.92 266.193 401.614 267 404.659 268.614C407.727 270.227 410 272.455 411.477 275.295C412.977 278.114 413.534 281.352 413.148 285.011H406.943ZM448.875 284.636L448.023 289.92H423L423.886 284.636H448.875ZM433.739 272.091H439.841L431.318 323.33C430.955 325.511 431.045 327.227 431.591 328.477C432.136 329.705 432.977 330.58 434.114 331.102C435.25 331.602 436.5 331.852 437.864 331.852C438.659 331.852 439.341 331.807 439.909 331.716C440.5 331.602 441.023 331.489 441.477 331.375L441.92 336.864C441.261 337.091 440.477 337.295 439.568 337.477C438.659 337.682 437.568 337.784 436.295 337.784C434.068 337.784 432.011 337.295 430.125 336.318C428.239 335.341 426.807 333.886 425.83 331.955C424.852 330.023 424.591 327.625 425.045 324.761L433.739 272.091ZM490.509 316.989L495.929 284.636H501.997L493.27 337H487.202L488.634 328.307H488.19C486.554 330.989 484.236 333.227 481.236 335.023C478.259 336.795 474.849 337.682 471.009 337.682C467.668 337.682 464.815 336.955 462.452 335.5C460.111 334.023 458.44 331.864 457.44 329.023C456.44 326.182 456.281 322.693 456.963 318.557L462.656 284.636H468.724L463.134 318.182C462.474 322.273 463.134 325.568 465.111 328.068C467.111 330.545 469.997 331.784 473.77 331.784C476.134 331.784 478.497 331.216 480.861 330.08C483.247 328.943 485.315 327.284 487.065 325.102C488.838 322.898 489.986 320.193 490.509 316.989ZM539.608 284.636L538.722 289.92H513.017L513.869 284.636H539.608ZM513.188 337L523.176 276.966C523.631 274.148 524.665 271.773 526.278 269.841C527.915 267.909 529.869 266.443 532.142 265.443C534.415 264.443 536.744 263.943 539.131 263.943C540.722 263.943 542.017 264.08 543.017 264.352C544.017 264.602 544.801 264.852 545.369 265.102L542.778 270.42C542.324 270.284 541.778 270.125 541.142 269.943C540.528 269.761 539.722 269.67 538.722 269.67C536.085 269.67 533.926 270.409 532.244 271.886C530.563 273.364 529.483 275.477 529.006 278.227L519.256 337H513.188ZM573.264 284.636L572.378 289.92H546.673L547.526 284.636H573.264ZM546.844 337L556.832 276.966C557.287 274.148 558.321 271.773 559.935 269.841C561.571 267.909 563.526 266.443 565.798 265.443C568.071 264.443 570.401 263.943 572.787 263.943C574.378 263.943 575.673 264.08 576.673 264.352C577.673 264.602 578.457 264.852 579.026 265.102L576.435 270.42C575.98 270.284 575.435 270.125 574.798 269.943C574.185 269.761 573.378 269.67 572.378 269.67C569.741 269.67 567.582 270.409 565.901 271.886C564.219 273.364 563.139 275.477 562.662 278.227L552.912 337H546.844Z"/>
</mask>
<path d="M385.006 53.0114C385.165 48.9205 383.949 45.7159 381.358 43.3977C378.79 41.0795 375.188 39.9205 370.551 39.9205C367.324 39.9205 364.369 40.4886 361.688 41.625C359.028 42.7386 356.835 44.2727 355.108 46.2273C353.403 48.1818 352.347 50.4091 351.938 52.9091C351.642 54.75 351.778 56.3636 352.347 57.75C352.915 59.1136 353.79 60.2955 354.972 61.2955C356.153 62.2955 357.506 63.1477 359.028 63.8523C360.574 64.5568 362.142 65.1477 363.733 65.625L370.79 67.7386C372.881 68.3523 374.96 69.1364 377.028 70.0909C379.097 71.0455 380.938 72.2386 382.551 73.6705C384.165 75.1023 385.358 76.8636 386.131 78.9545C386.926 81.0455 387.085 83.5455 386.608 86.4545C385.972 90.2273 384.449 93.6023 382.04 96.5795C379.653 99.5341 376.517 101.875 372.631 103.602C368.744 105.33 364.256 106.193 359.165 106.193C354.415 106.193 350.415 105.409 347.165 103.841C343.915 102.25 341.517 100.057 339.972 97.2614C338.426 94.4659 337.835 91.2273 338.199 87.5455H344.744C344.494 90.2955 345.006 92.625 346.278 94.5341C347.574 96.4432 349.415 97.8977 351.801 98.8977C354.21 99.875 356.983 100.364 360.119 100.364C363.597 100.364 366.79 99.7841 369.699 98.625C372.608 97.4432 375.006 95.8068 376.892 93.7159C378.801 91.6023 379.983 89.1477 380.438 86.3523C380.847 83.9886 380.563 82 379.585 80.3864C378.631 78.7727 377.142 77.4205 375.119 76.3295C373.119 75.2159 370.733 74.2386 367.96 73.3977L359.983 70.9432C354.778 69.3523 350.903 67.1136 348.358 64.2273C345.835 61.3409 344.938 57.6591 345.665 53.1818C346.301 49.4091 347.858 46.1023 350.335 43.2614C352.835 40.3977 355.938 38.1705 359.642 36.5795C363.347 34.9886 367.347 34.1932 371.642 34.1932C375.983 34.1932 379.676 35 382.722 36.6136C385.79 38.2273 388.063 40.4545 389.54 43.2955C391.04 46.1136 391.597 49.3523 391.21 53.0114H385.006ZM426.938 52.6364L426.085 57.9205H401.062L401.949 52.6364H426.938ZM411.801 40.0909H417.903L409.381 91.3295C409.017 93.5114 409.108 95.2273 409.653 96.4773C410.199 97.7045 411.04 98.5795 412.176 99.1023C413.313 99.6023 414.563 99.8523 415.926 99.8523C416.722 99.8523 417.403 99.8068 417.972 99.7159C418.562 99.6023 419.085 99.4886 419.54 99.375L419.983 104.864C419.324 105.091 418.54 105.295 417.631 105.477C416.722 105.682 415.631 105.784 414.358 105.784C412.131 105.784 410.074 105.295 408.188 104.318C406.301 103.341 404.869 101.886 403.892 99.9545C402.915 98.0227 402.653 95.625 403.108 92.7614L411.801 40.0909ZM452.02 106.091C447.429 106.091 443.565 104.932 440.429 102.614C437.293 100.273 435.077 97.0341 433.781 92.8977C432.486 88.7614 432.27 83.9886 433.134 78.5795C433.997 73.3068 435.713 68.6705 438.281 64.6705C440.872 60.6477 444.054 57.5227 447.827 55.2955C451.599 53.0455 455.702 51.9205 460.134 51.9205C464.747 51.9205 468.611 53.0909 471.724 55.4318C474.861 57.7727 477.077 61.0114 478.372 65.1477C479.69 69.2841 479.918 74.0682 479.054 79.5C478.19 84.75 476.463 89.375 473.872 93.375C471.281 97.3523 468.099 100.466 464.327 102.716C460.577 104.966 456.474 106.091 452.02 106.091ZM452.088 100.534C455.815 100.534 459.134 99.5455 462.043 97.5682C464.974 95.5682 467.395 92.9091 469.304 89.5909C471.213 86.25 472.497 82.5795 473.156 78.5795C473.77 74.7614 473.702 71.25 472.952 68.0455C472.202 64.8409 470.759 62.2727 468.622 60.3409C466.486 58.4091 463.645 57.4432 460.099 57.4432C456.395 57.4432 453.077 58.4545 450.145 60.4773C447.213 62.4773 444.793 65.1591 442.884 68.5227C440.974 71.8636 439.702 75.5227 439.065 79.5C438.429 83.3409 438.474 86.8523 439.202 90.0341C439.952 93.2159 441.395 95.7614 443.531 97.6705C445.69 99.5795 448.543 100.534 452.088 100.534ZM488.148 105L496.875 52.6364H502.773L501.409 60.6818H501.852C503.307 58.0455 505.477 55.9205 508.364 54.3068C511.273 52.6705 514.375 51.8523 517.67 51.8523C518.17 51.8523 518.727 51.8636 519.341 51.8864C519.955 51.8864 520.466 51.9091 520.875 51.9545L519.818 58.125C519.545 58.0795 519.068 58.0114 518.386 57.9205C517.727 57.8295 516.989 57.7841 516.17 57.7841C513.443 57.7841 510.92 58.3636 508.602 59.5227C506.307 60.6591 504.375 62.2386 502.807 64.2614C501.261 66.2841 500.261 68.5909 499.807 71.1818L494.216 105H488.148ZM541.901 106.091C537.014 106.091 532.98 104.955 529.798 102.682C526.616 100.386 524.389 97.2159 523.116 93.1705C521.844 89.1023 521.651 84.4205 522.537 79.125C523.423 73.8523 525.173 69.1705 527.787 65.0795C530.401 60.9659 533.628 57.75 537.469 55.4318C541.31 53.0909 545.48 51.9205 549.98 51.9205C552.821 51.9205 555.48 52.4432 557.957 53.4886C560.435 54.5114 562.537 56.0909 564.264 58.2273C566.014 60.3409 567.23 63.0114 567.912 66.2386C568.594 69.4432 568.571 73.2386 567.844 77.625L567.366 80.625H526.457L527.31 75.2727H562.048C562.616 71.9091 562.457 68.8864 561.571 66.2045C560.685 63.5227 559.173 61.3977 557.037 59.8295C554.923 58.2386 552.298 57.4432 549.162 57.4432C545.957 57.4432 542.923 58.3409 540.06 60.1364C537.219 61.9318 534.81 64.2727 532.832 67.1591C530.878 70.0227 529.616 73.0795 529.048 76.3295L528.366 80.3523C527.639 84.7841 527.73 88.5 528.639 91.5C529.548 94.4773 531.196 96.7273 533.582 98.25C535.969 99.7727 539.026 100.534 542.753 100.534C545.253 100.534 547.514 100.148 549.537 99.375C551.56 98.6023 553.321 97.5682 554.821 96.2727C556.321 94.9545 557.526 93.5114 558.435 91.9432L563.855 93.8182C562.696 96.0227 561.06 98.0568 558.946 99.9205C556.855 101.784 554.366 103.284 551.48 104.42C548.616 105.534 545.423 106.091 541.901 106.091ZM452.531 151.182H459.895L475.168 212H475.815L511.168 151.182H518.531L506.94 221H500.94L510.349 164.648H509.804L476.838 221H471.043L456.895 164.648H456.349L446.94 221H440.94L452.531 151.182ZM525.264 240.636C524.06 240.636 522.946 240.523 521.923 240.295C520.923 240.068 520.139 239.818 519.571 239.545L522.128 234.193C524.037 234.852 525.787 235.057 527.378 234.807C528.991 234.58 530.526 233.807 531.98 232.489C533.435 231.17 534.866 229.205 536.276 226.591L539.139 221.273L528.776 168.636H535.082L543.264 213.091H543.707L566.651 168.636H573.503L541.287 229.216C539.901 231.83 538.366 233.977 536.685 235.659C535.026 237.341 533.23 238.591 531.298 239.409C529.389 240.227 527.378 240.636 525.264 240.636ZM406.943 285.011C407.102 280.92 405.886 277.716 403.295 275.398C400.727 273.08 397.125 271.92 392.489 271.92C389.261 271.92 386.307 272.489 383.625 273.625C380.966 274.739 378.773 276.273 377.045 278.227C375.341 280.182 374.284 282.409 373.875 284.909C373.58 286.75 373.716 288.364 374.284 289.75C374.852 291.114 375.727 292.295 376.909 293.295C378.091 294.295 379.443 295.148 380.966 295.852C382.511 296.557 384.08 297.148 385.67 297.625L392.727 299.739C394.818 300.352 396.898 301.136 398.966 302.091C401.034 303.045 402.875 304.239 404.489 305.67C406.102 307.102 407.295 308.864 408.068 310.955C408.864 313.045 409.023 315.545 408.545 318.455C407.909 322.227 406.386 325.602 403.977 328.58C401.591 331.534 398.455 333.875 394.568 335.602C390.682 337.33 386.193 338.193 381.102 338.193C376.352 338.193 372.352 337.409 369.102 335.841C365.852 334.25 363.455 332.057 361.909 329.261C360.364 326.466 359.773 323.227 360.136 319.545H366.682C366.432 322.295 366.943 324.625 368.216 326.534C369.511 328.443 371.352 329.898 373.739 330.898C376.148 331.875 378.92 332.364 382.057 332.364C385.534 332.364 388.727 331.784 391.636 330.625C394.545 329.443 396.943 327.807 398.83 325.716C400.739 323.602 401.92 321.148 402.375 318.352C402.784 315.989 402.5 314 401.523 312.386C400.568 310.773 399.08 309.42 397.057 308.33C395.057 307.216 392.67 306.239 389.898 305.398L381.92 302.943C376.716 301.352 372.841 299.114 370.295 296.227C367.773 293.341 366.875 289.659 367.602 285.182C368.239 281.409 369.795 278.102 372.273 275.261C374.773 272.398 377.875 270.17 381.58 268.58C385.284 266.989 389.284 266.193 393.58 266.193C397.92 266.193 401.614 267 404.659 268.614C407.727 270.227 410 272.455 411.477 275.295C412.977 278.114 413.534 281.352 413.148 285.011H406.943ZM448.875 284.636L448.023 289.92H423L423.886 284.636H448.875ZM433.739 272.091H439.841L431.318 323.33C430.955 325.511 431.045 327.227 431.591 328.477C432.136 329.705 432.977 330.58 434.114 331.102C435.25 331.602 436.5 331.852 437.864 331.852C438.659 331.852 439.341 331.807 439.909 331.716C440.5 331.602 441.023 331.489 441.477 331.375L441.92 336.864C441.261 337.091 440.477 337.295 439.568 337.477C438.659 337.682 437.568 337.784 436.295 337.784C434.068 337.784 432.011 337.295 430.125 336.318C428.239 335.341 426.807 333.886 425.83 331.955C424.852 330.023 424.591 327.625 425.045 324.761L433.739 272.091ZM490.509 316.989L495.929 284.636H501.997L493.27 337H487.202L488.634 328.307H488.19C486.554 330.989 484.236 333.227 481.236 335.023C478.259 336.795 474.849 337.682 471.009 337.682C467.668 337.682 464.815 336.955 462.452 335.5C460.111 334.023 458.44 331.864 457.44 329.023C456.44 326.182 456.281 322.693 456.963 318.557L462.656 284.636H468.724L463.134 318.182C462.474 322.273 463.134 325.568 465.111 328.068C467.111 330.545 469.997 331.784 473.77 331.784C476.134 331.784 478.497 331.216 480.861 330.08C483.247 328.943 485.315 327.284 487.065 325.102C488.838 322.898 489.986 320.193 490.509 316.989ZM539.608 284.636L538.722 289.92H513.017L513.869 284.636H539.608ZM513.188 337L523.176 276.966C523.631 274.148 524.665 271.773 526.278 269.841C527.915 267.909 529.869 266.443 532.142 265.443C534.415 264.443 536.744 263.943 539.131 263.943C540.722 263.943 542.017 264.08 543.017 264.352C544.017 264.602 544.801 264.852 545.369 265.102L542.778 270.42C542.324 270.284 541.778 270.125 541.142 269.943C540.528 269.761 539.722 269.67 538.722 269.67C536.085 269.67 533.926 270.409 532.244 271.886C530.563 273.364 529.483 275.477 529.006 278.227L519.256 337H513.188ZM573.264 284.636L572.378 289.92H546.673L547.526 284.636H573.264ZM546.844 337L556.832 276.966C557.287 274.148 558.321 271.773 559.935 269.841C561.571 267.909 563.526 266.443 565.798 265.443C568.071 264.443 570.401 263.943 572.787 263.943C574.378 263.943 575.673 264.08 576.673 264.352C577.673 264.602 578.457 264.852 579.026 265.102L576.435 270.42C575.98 270.284 575.435 270.125 574.798 269.943C574.185 269.761 573.378 269.67 572.378 269.67C569.741 269.67 567.582 270.409 565.901 271.886C564.219 273.364 563.139 275.477 562.662 278.227L552.912 337H546.844Z" fill="white"/>
<path d="M385.006 53.0114L380.009 52.8171L379.807 58.0114H385.006V53.0114ZM381.358 43.3977L378.008 47.1093L378.016 47.1166L378.024 47.1239L381.358 43.3977ZM361.688 41.625L363.619 46.2369L363.629 46.2328L363.638 46.2288L361.688 41.625ZM355.108 46.2273L351.361 42.9163L351.35 42.9286L351.34 42.941L355.108 46.2273ZM351.938 52.9091L347.003 52.1017L347.002 52.1092L347.001 52.1168L351.938 52.9091ZM352.347 57.75L347.72 59.6461L347.726 59.6596L347.731 59.6731L352.347 57.75ZM359.028 63.8523L356.929 68.3901L356.942 68.396L356.954 68.4018L359.028 63.8523ZM363.733 65.625L362.296 70.4141L362.298 70.4148L363.733 65.625ZM370.79 67.7386L369.355 72.5284L369.368 72.5324L369.382 72.5363L370.79 67.7386ZM386.131 78.9545L381.441 80.6878L381.449 80.7101L381.457 80.7324L386.131 78.9545ZM386.608 86.4545L391.538 87.2862L391.54 87.2751L391.542 87.264L386.608 86.4545ZM382.04 96.5795L378.153 93.4344L378.15 93.4379L382.04 96.5795ZM372.631 103.602L374.661 108.171L372.631 103.602ZM347.165 103.841L344.966 108.332L344.979 108.338L344.992 108.344L347.165 103.841ZM339.972 97.2614L344.347 94.8422V94.8422L339.972 97.2614ZM338.199 87.5455V82.5455H333.668L333.223 87.054L338.199 87.5455ZM344.744 87.5455L349.724 87.9981L350.219 82.5455H344.744V87.5455ZM346.278 94.5341L342.118 97.3076L342.13 97.3246L342.141 97.3416L346.278 94.5341ZM351.801 98.8977L349.869 103.509L349.895 103.52L349.922 103.531L351.801 98.8977ZM369.699 98.625L371.55 103.27L371.565 103.264L371.581 103.257L369.699 98.625ZM376.892 93.7159L373.182 90.3645L373.18 90.3666L376.892 93.7159ZM380.438 86.3523L375.511 85.4996L375.506 85.5247L375.502 85.5498L380.438 86.3523ZM379.585 80.3864L375.282 82.9321L375.295 82.9544L375.308 82.9765L379.585 80.3864ZM375.119 76.3295L372.687 80.698L372.716 80.7143L372.746 80.7303L375.119 76.3295ZM367.96 73.3977L366.49 78.1766L366.499 78.1796L366.509 78.1825L367.96 73.3977ZM359.983 70.9432L361.453 66.1643L361.445 66.1616L359.983 70.9432ZM348.358 64.2273L344.593 67.5177L344.601 67.5261L344.608 67.5344L348.358 64.2273ZM345.665 53.1818L340.734 52.3502L340.732 52.3652L340.729 52.3801L345.665 53.1818ZM350.335 43.2614L346.569 39.9731L346.567 39.9752L350.335 43.2614ZM359.642 36.5795L361.615 41.1738V41.1738L359.642 36.5795ZM382.722 36.6136L380.381 41.0318L380.387 41.0354L380.394 41.0389L382.722 36.6136ZM389.54 43.2955L385.104 45.6022L385.115 45.6235L385.126 45.6447L389.54 43.2955ZM391.21 53.0114V58.0114H395.71L396.183 53.5364L391.21 53.0114ZM385.006 53.0114L390.002 53.2057C390.207 47.9194 388.596 43.1642 384.692 39.6715L381.358 43.3977L378.024 47.1239C379.302 48.2676 380.122 49.9215 380.009 52.8171L385.006 53.0114ZM381.358 43.3977L384.708 39.6862C380.947 36.2909 375.998 34.9205 370.551 34.9205V39.9205V44.9205C374.377 44.9205 376.633 45.8682 378.008 47.1093L381.358 43.3977ZM370.551 39.9205V34.9205C366.726 34.9205 363.099 35.5965 359.737 37.0212L361.688 41.625L363.638 46.2288C365.639 45.3808 367.921 44.9205 370.551 44.9205V39.9205ZM361.688 41.625L359.756 37.0131C356.476 38.387 353.638 40.3396 351.361 42.9163L355.108 46.2273L358.855 49.5383C360.032 48.2059 361.581 47.0903 363.619 46.2369L361.688 41.625ZM355.108 46.2273L351.34 42.941C349.039 45.5796 347.566 48.6602 347.003 52.1017L351.938 52.9091L356.872 53.7165C357.127 52.158 357.768 50.7841 358.876 49.5136L355.108 46.2273ZM351.938 52.9091L347.001 52.1168C346.595 54.6447 346.727 57.2238 347.72 59.6461L352.347 57.75L356.973 55.8539C356.83 55.5035 356.689 54.8553 356.874 53.7014L351.938 52.9091ZM352.347 57.75L347.731 59.6731C348.619 61.8044 349.984 63.6253 351.742 65.1124L354.972 61.2955L358.201 57.4785C357.595 56.9656 357.21 56.4229 356.962 55.8269L352.347 57.75ZM354.972 61.2955L351.742 65.1124C353.294 66.4255 355.033 67.5127 356.929 68.3901L359.028 63.8523L361.128 59.3145C359.979 58.7827 359.013 58.1654 358.201 57.4785L354.972 61.2955ZM359.028 63.8523L356.954 68.4018C358.702 69.1985 360.483 69.8701 362.296 70.4141L363.733 65.625L365.17 60.8359C363.801 60.4253 362.446 59.9151 361.102 59.3027L359.028 63.8523ZM363.733 65.625L362.298 70.4148L369.355 72.5284L370.79 67.7386L372.224 62.9489L365.168 60.8352L363.733 65.625ZM370.79 67.7386L369.382 72.5363C371.227 73.0779 373.077 73.7742 374.933 74.6307L377.028 70.0909L379.124 65.5511C376.843 64.4985 374.534 63.6266 372.198 62.941L370.79 67.7386ZM377.028 70.0909L374.933 74.6307C376.581 75.3915 378.005 76.3214 379.233 77.4104L382.551 73.6705L385.87 69.9305C383.87 68.1559 381.612 66.6994 379.124 65.5511L377.028 70.0909ZM382.551 73.6705L379.233 77.4104C380.21 78.2777 380.943 79.3417 381.441 80.6878L386.131 78.9545L390.821 77.2213C389.773 74.3855 388.119 71.9268 385.87 69.9305L382.551 73.6705ZM386.131 78.9545L381.457 80.7324C381.855 81.7772 382.052 83.3377 381.674 85.6451L386.608 86.4545L391.542 87.264C392.118 83.7532 391.997 80.3137 390.804 77.1767L386.131 78.9545ZM386.608 86.4545L381.678 85.6229C381.184 88.5467 380.022 91.125 378.153 93.4344L382.04 96.5795L385.927 99.7247C388.876 96.0795 390.759 91.9079 391.538 87.2862L386.608 86.4545ZM382.04 96.5795L378.15 93.4379C376.319 95.7054 373.85 97.5887 370.6 99.0332L372.631 103.602L374.661 108.171C379.184 106.161 382.988 103.363 385.929 99.7212L382.04 96.5795ZM372.631 103.602L370.6 99.0332C367.466 100.426 363.692 101.193 359.165 101.193V106.193V111.193C364.82 111.193 370.023 110.233 374.661 108.171L372.631 103.602ZM359.165 106.193V101.193C354.939 101.193 351.731 100.493 349.338 99.3377L347.165 103.841L344.992 108.344C349.099 110.326 353.89 111.193 359.165 111.193V106.193ZM347.165 103.841L349.363 99.3501C346.907 98.1479 345.332 96.6238 344.347 94.8422L339.972 97.2614L335.596 99.6805C337.702 103.49 340.922 106.352 344.966 108.332L347.165 103.841ZM339.972 97.2614L344.347 94.8422C343.367 93.068 342.894 90.8745 343.175 88.0369L338.199 87.5455L333.223 87.054C332.776 91.5801 333.486 95.8638 335.596 99.6805L339.972 97.2614ZM338.199 87.5455V92.5455H344.744V87.5455V82.5455H338.199V87.5455ZM344.744 87.5455L339.765 87.0928C339.433 90.7402 340.09 94.2654 342.118 97.3076L346.278 94.5341L350.439 91.7606C349.921 90.9846 349.555 89.8507 349.724 87.9981L344.744 87.5455ZM346.278 94.5341L342.141 97.3416C344.046 100.148 346.7 102.181 349.869 103.509L351.801 98.8977L353.734 94.2862C352.129 93.614 351.102 92.7381 350.416 91.7266L346.278 94.5341ZM351.801 98.8977L349.922 103.531C353.037 104.795 356.468 105.364 360.119 105.364V100.364V95.3636C357.497 95.3636 355.383 94.9551 353.681 94.2644L351.801 98.8977ZM360.119 100.364V105.364C364.16 105.364 367.99 104.688 371.55 103.27L369.699 98.625L367.848 93.9801C365.59 94.88 363.033 95.3636 360.119 95.3636V100.364ZM369.699 98.625L371.581 103.257C375.108 101.824 378.157 99.7781 380.604 97.0652L376.892 93.7159L373.18 90.3666C371.854 91.8356 370.108 93.0619 367.817 93.9927L369.699 98.625ZM376.892 93.7159L380.603 97.0673C383.153 94.2439 384.763 90.9057 385.373 87.1547L380.438 86.3523L375.502 85.5498C375.203 87.3898 374.45 88.9607 373.182 90.3645L376.892 93.7159ZM380.438 86.3523L385.364 87.205C385.922 83.9849 385.619 80.6972 383.862 77.7962L379.585 80.3864L375.308 82.9765C375.506 83.3028 375.772 83.9923 375.511 85.4996L380.438 86.3523ZM379.585 80.3864L383.889 77.8407C382.377 75.2855 380.135 73.3539 377.493 71.9288L375.119 76.3295L372.746 80.7303C374.149 81.487 374.884 82.26 375.282 82.9321L379.585 80.3864ZM375.119 76.3295L377.552 71.9611C375.171 70.6355 372.44 69.5314 369.411 68.6129L367.96 73.3977L366.509 78.1825C369.026 78.9459 371.068 79.7963 372.687 80.698L375.119 76.3295ZM367.96 73.3977L369.431 68.6188L361.453 66.1643L359.983 70.9432L358.513 75.7221L366.49 78.1766L367.96 73.3977ZM359.983 70.9432L361.445 66.1616C356.776 64.7344 353.839 62.8825 352.108 60.9201L348.358 64.2273L344.608 67.5344C347.968 71.3448 352.781 73.9701 358.521 75.7248L359.983 70.9432ZM348.358 64.2273L352.123 60.9368C350.763 59.3817 350.063 57.2894 350.6 53.9835L345.665 53.1818L340.729 52.3801C339.812 58.0288 340.907 63.3001 344.593 67.5177L348.358 64.2273ZM345.665 53.1818L350.595 54.0134C351.08 51.136 352.242 48.6821 354.104 46.5475L350.335 43.2614L346.567 39.9752C343.474 43.5224 341.522 47.6822 340.734 52.3502L345.665 53.1818ZM350.335 43.2614L354.102 46.5497C356.08 44.2841 358.556 42.4875 361.615 41.1738L359.642 36.5795L357.669 31.9853C353.319 33.8534 349.591 36.5113 346.569 39.9731L350.335 43.2614ZM359.642 36.5795L361.615 41.1738C364.656 39.8678 367.98 39.1932 371.642 39.1932V34.1932V29.1932C366.713 29.1932 362.037 30.1095 357.669 31.9853L359.642 36.5795ZM371.642 34.1932V39.1932C375.374 39.1932 378.22 39.8867 380.381 41.0318L382.722 36.6136L385.063 32.1955C381.133 30.1133 376.592 29.1932 371.642 29.1932V34.1932ZM382.722 36.6136L380.394 41.0389C382.638 42.2191 384.136 43.7415 385.104 45.6022L389.54 43.2955L393.976 40.9887C391.989 37.1676 388.941 34.2354 385.049 32.1883L382.722 36.6136ZM389.54 43.2955L385.126 45.6447C386.089 47.4532 386.536 49.6639 386.238 52.4863L391.21 53.0114L396.183 53.5364C396.657 49.0407 395.991 44.7741 393.954 40.9462L389.54 43.2955ZM391.21 53.0114V48.0114H385.006V53.0114V58.0114H391.21V53.0114ZM426.938 52.6364L431.874 53.4325L432.809 47.6364H426.938V52.6364ZM426.085 57.9205V62.9205H430.343L431.021 58.7166L426.085 57.9205ZM401.062 57.9205L396.131 57.0933L395.154 62.9205H401.062V57.9205ZM401.949 52.6364V47.6364H397.718L397.018 51.8092L401.949 52.6364ZM411.801 40.0909V35.0909H407.559L406.868 39.2767L411.801 40.0909ZM417.903 40.0909L422.836 40.9113L423.804 35.0909H417.903V40.0909ZM409.381 91.3295L414.313 92.1515L414.313 92.1499L409.381 91.3295ZM409.653 96.4773L405.071 98.477L405.077 98.4925L405.084 98.508L409.653 96.4773ZM412.176 99.1023L410.087 103.645L410.124 103.662L410.162 103.679L412.176 99.1023ZM417.972 99.7159L418.762 104.653L418.839 104.641L418.916 104.626L417.972 99.7159ZM419.54 99.375L424.524 98.9726L424.049 93.0938L418.327 94.5243L419.54 99.375ZM419.983 104.864L421.613 109.59L425.279 108.326L424.967 104.461L419.983 104.864ZM417.631 105.477L416.65 100.574L416.591 100.586L416.533 100.599L417.631 105.477ZM408.188 104.318L405.887 108.758V108.758L408.188 104.318ZM403.892 99.9545L408.354 97.6975V97.6975L403.892 99.9545ZM403.108 92.7614L398.175 91.9471L398.172 91.9623L398.17 91.9775L403.108 92.7614ZM426.938 52.6364L422.001 51.8402L421.149 57.1243L426.085 57.9205L431.021 58.7166L431.874 53.4325L426.938 52.6364ZM426.085 57.9205V52.9205H401.062V57.9205V62.9205H426.085V57.9205ZM401.062 57.9205L405.994 58.7476L406.88 53.4635L401.949 52.6364L397.018 51.8092L396.131 57.0933L401.062 57.9205ZM401.949 52.6364V57.6364H426.938V52.6364V47.6364H401.949V52.6364ZM411.801 40.0909V45.0909H417.903V40.0909V35.0909H411.801V40.0909ZM417.903 40.0909L412.971 39.2705L404.448 90.5091L409.381 91.3295L414.313 92.1499L422.836 40.9113L417.903 40.0909ZM409.381 91.3295L404.449 90.5075C404.016 93.1057 403.966 95.9458 405.071 98.477L409.653 96.4773L414.236 94.4775C414.256 94.5236 414.191 94.397 414.169 93.9883C414.147 93.58 414.175 92.9802 414.313 92.1515L409.381 91.3295ZM409.653 96.4773L405.084 98.508C406.084 100.757 407.761 102.575 410.087 103.645L412.176 99.1023L414.266 94.5598C414.251 94.5533 414.254 94.5529 414.265 94.5613C414.278 94.5699 414.289 94.5803 414.298 94.5894C414.307 94.5982 414.304 94.5972 414.292 94.579C414.28 94.5603 414.255 94.5188 414.222 94.4466L409.653 96.4773ZM412.176 99.1023L410.162 103.679C411.993 104.484 413.938 104.852 415.926 104.852V99.8523V94.8523C415.187 94.8523 414.632 94.7201 414.19 94.5257L412.176 99.1023ZM415.926 99.8523V104.852C416.894 104.852 417.855 104.798 418.762 104.653L417.972 99.7159L417.182 94.7787C416.952 94.8154 416.549 94.8523 415.926 94.8523V99.8523ZM417.972 99.7159L418.916 104.626C419.573 104.5 420.188 104.367 420.752 104.226L419.54 99.375L418.327 94.5243C417.982 94.6105 417.552 94.705 417.027 94.8059L417.972 99.7159ZM419.54 99.375L414.556 99.7774L414.999 105.266L419.983 104.864L424.967 104.461L424.524 98.9726L419.54 99.375ZM419.983 104.864L418.353 100.137C417.962 100.272 417.406 100.423 416.65 100.574L417.631 105.477L418.611 110.38C419.674 110.168 420.686 109.91 421.613 109.59L419.983 104.864ZM417.631 105.477L416.533 100.599C416.088 100.699 415.386 100.784 414.358 100.784V105.784V110.784C415.876 110.784 417.355 110.664 418.728 110.355L417.631 105.477ZM414.358 105.784V100.784C412.891 100.784 411.628 100.47 410.488 99.8786L408.188 104.318L405.887 108.758C408.519 110.121 411.37 110.784 414.358 110.784V105.784ZM408.188 104.318L410.488 99.8786C409.552 99.3938 408.867 98.7121 408.354 97.6975L403.892 99.9545L399.43 102.212C400.872 105.061 403.051 107.288 405.887 108.758L408.188 104.318ZM403.892 99.9545L408.354 97.6975C407.989 96.9758 407.701 95.7182 408.046 93.5452L403.108 92.7614L398.17 91.9775C397.606 95.5318 397.841 99.0697 399.43 102.212L403.892 99.9545ZM403.108 92.7614L408.041 93.5756L416.734 40.9051L411.801 40.0909L406.868 39.2767L398.175 91.9471L403.108 92.7614ZM440.429 102.614L437.438 106.621L437.448 106.628L437.457 106.635L440.429 102.614ZM433.781 92.8977L429.01 94.3921L433.781 92.8977ZM433.134 78.5795L428.199 77.7713L428.198 77.7813L428.196 77.7912L433.134 78.5795ZM438.281 64.6705L434.078 61.9631L434.074 61.9691L438.281 64.6705ZM447.827 55.2955L450.369 59.6011L450.378 59.5955L450.388 59.5898L447.827 55.2955ZM471.724 55.4318L468.72 59.4283L468.727 59.4336L468.734 59.4388L471.724 55.4318ZM478.372 65.1477L473.601 66.6421L473.604 66.654L473.608 66.6659L478.372 65.1477ZM479.054 79.5L483.988 80.3116L483.99 80.2984L483.992 80.2851L479.054 79.5ZM473.872 93.375L478.062 96.1042L478.069 96.0932L473.872 93.375ZM464.327 102.716L461.766 98.4216L461.754 98.4284L464.327 102.716ZM462.043 97.5682L464.853 101.703L464.86 101.699L462.043 97.5682ZM469.304 89.5909L473.638 92.0844L473.642 92.078L473.645 92.0716L469.304 89.5909ZM473.156 78.5795L478.09 79.3924L478.091 79.3827L478.093 79.3729L473.156 78.5795ZM450.145 60.4773L452.963 64.6077L452.973 64.6003L452.984 64.5928L450.145 60.4773ZM442.884 68.5227L447.225 71.0034L447.228 70.9971L447.232 70.9908L442.884 68.5227ZM439.065 79.5L443.998 80.3173L444 80.3036L444.003 80.2899L439.065 79.5ZM439.202 90.0341L434.327 91.1482L434.331 91.1647L434.335 91.1812L439.202 90.0341ZM443.531 97.6705L440.2 101.399L440.209 101.407L440.219 101.416L443.531 97.6705ZM452.02 106.091V101.091C448.303 101.091 445.532 100.168 443.401 98.5928L440.429 102.614L437.457 106.635C441.599 109.696 446.555 111.091 452.02 111.091V106.091ZM440.429 102.614L443.42 98.6067C441.217 96.9625 439.569 94.6489 438.553 91.4034L433.781 92.8977L429.01 94.3921C430.584 99.4192 433.368 103.583 437.438 106.621L440.429 102.614ZM433.781 92.8977L438.553 91.4034C437.541 88.1734 437.298 84.2094 438.071 79.3679L433.134 78.5795L428.196 77.7912C427.242 83.7678 427.43 89.3494 429.01 94.3921L433.781 92.8977ZM433.134 78.5795L438.068 79.3877C438.835 74.7055 440.333 70.7298 442.489 67.3718L438.281 64.6705L434.074 61.9691C431.093 66.6111 429.16 71.9081 428.199 77.7713L433.134 78.5795ZM438.281 64.6705L442.485 67.3778C444.693 63.9486 447.327 61.3968 450.369 59.6011L447.827 55.2955L445.285 50.9898C440.781 53.6486 437.051 57.3468 434.078 61.9631L438.281 64.6705ZM447.827 55.2955L450.388 59.5898C453.379 57.8059 456.595 56.9205 460.134 56.9205V51.9205V46.9205C454.808 46.9205 449.82 48.285 445.266 51.0012L447.827 55.2955ZM460.134 51.9205V56.9205C463.87 56.9205 466.624 57.8527 468.72 59.4283L471.724 55.4318L474.729 51.4353C470.598 48.3291 465.625 46.9205 460.134 46.9205V51.9205ZM471.724 55.4318L468.734 59.4388C470.937 61.0829 472.584 63.3965 473.601 66.6421L478.372 65.1477L483.144 63.6534C481.569 58.6262 478.785 54.4625 474.715 51.4249L471.724 55.4318ZM478.372 65.1477L473.608 66.6659C474.635 69.8869 474.889 73.8537 474.116 78.7149L479.054 79.5L483.992 80.2851C484.946 74.2827 484.746 68.6812 483.136 63.6295L478.372 65.1477ZM479.054 79.5L474.12 78.6884C473.355 83.3382 471.851 87.2986 469.676 90.6568L473.872 93.375L478.069 96.0932C481.075 91.4514 483.025 86.1618 483.988 80.3116L479.054 79.5ZM473.872 93.375L469.683 90.6459C467.474 94.0365 464.832 96.5932 461.766 98.4216L464.327 102.716L466.888 107.01C471.367 104.339 475.089 100.668 478.062 96.1041L473.872 93.375ZM464.327 102.716L461.754 98.4284C458.796 100.203 455.586 101.091 452.02 101.091V106.091V111.091C457.363 111.091 462.357 109.729 466.899 107.003L464.327 102.716ZM452.088 100.534V105.534C456.755 105.534 461.065 104.279 464.853 101.703L462.043 97.5682L459.232 93.4329C457.203 94.8123 454.876 95.5341 452.088 95.5341V100.534ZM462.043 97.5682L464.86 101.699C468.462 99.2414 471.383 96.0032 473.638 92.0844L469.304 89.5909L464.97 87.0974C463.407 89.815 461.486 91.895 459.225 93.4377L462.043 97.5682ZM469.304 89.5909L473.645 92.0716C475.865 88.1872 477.339 83.9474 478.09 79.3924L473.156 78.5795L468.223 77.7666C467.655 81.2117 466.561 84.3128 464.963 87.1102L469.304 89.5909ZM473.156 78.5795L478.093 79.3729C478.792 75.0229 478.742 70.845 477.82 66.906L472.952 68.0455L468.083 69.1849C468.661 71.655 468.748 74.4999 468.22 77.7862L473.156 78.5795ZM472.952 68.0455L477.82 66.906C476.873 62.8571 474.971 59.3406 471.976 56.6323L468.622 60.3409L465.269 64.0495C466.546 65.2048 467.531 66.8247 468.083 69.1849L472.952 68.0455ZM468.622 60.3409L471.976 56.6323C468.72 53.6883 464.585 52.4432 460.099 52.4432V57.4432V62.4432C462.705 62.4432 464.252 63.1299 465.269 64.0495L468.622 60.3409ZM460.099 57.4432V52.4432C455.424 52.4432 451.107 53.739 447.305 56.3617L450.145 60.4773L452.984 64.5928C455.046 63.1701 457.366 62.4432 460.099 62.4432V57.4432ZM450.145 60.4773L447.327 56.3468C443.71 58.8145 440.786 62.0879 438.535 66.0547L442.884 68.5227L447.232 70.9908C448.799 68.2302 450.716 66.1401 452.963 64.6077L450.145 60.4773ZM442.884 68.5227L438.542 66.042C436.32 69.9302 434.855 74.1661 434.128 78.7101L439.065 79.5L444.003 80.2899C444.548 76.8794 445.628 73.797 447.225 71.0034L442.884 68.5227ZM439.065 79.5L434.133 78.6827C433.41 83.0439 433.43 87.2229 434.327 91.1482L439.202 90.0341L444.076 88.92C443.519 86.4817 443.448 83.6379 443.998 80.3173L439.065 79.5ZM439.202 90.0341L434.335 91.1812C435.286 95.2147 437.195 98.7135 440.2 101.399L443.531 97.6705L446.863 93.9422C445.595 92.8092 444.618 91.2171 444.068 88.887L439.202 90.0341ZM443.531 97.6705L440.219 101.416C443.49 104.308 447.615 105.534 452.088 105.534V100.534V95.5341C449.47 95.5341 447.891 94.8507 446.843 93.9247L443.531 97.6705ZM488.148 105L483.216 104.178L482.245 110H488.148V105ZM496.875 52.6364V47.6364H492.639L491.943 51.8144L496.875 52.6364ZM502.773 52.6364L507.702 53.4719L508.691 47.6364H502.773V52.6364ZM501.409 60.6818L496.479 59.8463L495.49 65.6818H501.409V60.6818ZM501.852 60.6818V65.6818H504.804L506.23 63.0972L501.852 60.6818ZM508.364 54.3068L510.804 58.6711L510.815 58.6647L508.364 54.3068ZM519.341 51.8864L519.156 56.8829L519.248 56.8864H519.341V51.8864ZM520.875 51.9545L525.803 52.7986L526.699 47.5709L521.427 46.9851L520.875 51.9545ZM519.818 58.125L518.996 63.057L523.906 63.8753L524.746 58.9691L519.818 58.125ZM518.386 57.9205L517.703 62.8736L517.714 62.8751L517.726 62.8766L518.386 57.9205ZM508.602 59.5227L510.821 64.0037L510.829 63.9993L510.838 63.9949L508.602 59.5227ZM502.807 64.2614L498.855 61.1978L498.844 61.2118L498.834 61.2258L502.807 64.2614ZM499.807 71.1818L494.882 70.3178L494.878 70.342L494.874 70.3663L499.807 71.1818ZM494.216 105V110H498.457L499.149 105.816L494.216 105ZM488.148 105L493.08 105.822L501.807 53.4584L496.875 52.6364L491.943 51.8144L483.216 104.178L488.148 105ZM496.875 52.6364V57.6364H502.773V52.6364V47.6364H496.875V52.6364ZM502.773 52.6364L497.843 51.8008L496.479 59.8463L501.409 60.6818L506.339 61.5174L507.702 53.4719L502.773 52.6364ZM501.409 60.6818V65.6818H501.852V60.6818V55.6818H501.409V60.6818ZM501.852 60.6818L506.23 63.0972C507.19 61.3581 508.65 59.8752 510.804 58.6711L508.364 54.3068L505.924 49.9425C502.305 51.9657 499.424 54.7328 497.474 58.2664L501.852 60.6818ZM508.364 54.3068L510.815 58.6647C512.986 57.4436 515.245 56.8523 517.67 56.8523V51.8523V46.8523C513.505 46.8523 509.56 47.8973 505.912 49.9489L508.364 54.3068ZM517.67 51.8523V56.8523C518.097 56.8523 518.591 56.862 519.156 56.8829L519.341 51.8864L519.526 46.8898C518.864 46.8653 518.244 46.8523 517.67 46.8523V51.8523ZM519.341 51.8864V56.8864C519.85 56.8864 520.162 56.9061 520.323 56.924L520.875 51.9545L521.427 46.9851C520.769 46.912 520.059 46.8864 519.341 46.8864V51.8864ZM520.875 51.9545L515.947 51.1105L514.89 57.2809L519.818 58.125L524.746 58.9691L525.803 52.7986L520.875 51.9545ZM519.818 58.125L520.64 53.193C520.278 53.1326 519.727 53.055 519.047 52.9643L518.386 57.9205L517.726 62.8766C518.409 62.9678 518.813 63.0264 518.996 63.057L519.818 58.125ZM518.386 57.9205L519.07 52.9674C518.14 52.8391 517.167 52.7841 516.17 52.7841V57.7841V62.7841C516.81 62.7841 517.315 62.82 517.703 62.8736L518.386 57.9205ZM516.17 57.7841V52.7841C512.709 52.7841 509.415 53.5262 506.366 55.0506L508.602 59.5227L510.838 63.9949C512.426 63.2011 514.178 62.7841 516.17 62.7841V57.7841ZM508.602 59.5227L506.384 55.0418C503.412 56.5132 500.887 58.5772 498.855 61.1978L502.807 64.2614L506.758 67.3249C507.863 65.9001 509.202 64.8049 510.821 64.0037L508.602 59.5227ZM502.807 64.2614L498.834 61.2258C496.785 63.9072 495.47 66.9645 494.882 70.3178L499.807 71.1818L504.732 72.0458C505.052 70.2173 505.738 68.6609 506.78 67.297L502.807 64.2614ZM499.807 71.1818L494.874 70.3663L489.283 104.184L494.216 105L499.149 105.816L504.74 71.9974L499.807 71.1818ZM494.216 105V100H488.148V105V110H494.216V105ZM529.798 102.682L526.873 106.737L526.883 106.744L526.892 106.75L529.798 102.682ZM523.116 93.1705L518.345 94.6633L518.347 94.671L523.116 93.1705ZM522.537 79.125L517.606 78.2961L517.606 78.2996L522.537 79.125ZM527.787 65.0795L532 67.7715L532.007 67.7609L527.787 65.0795ZM537.469 55.4318L540.052 59.7126L540.062 59.707L540.071 59.7013L537.469 55.4318ZM557.957 53.4886L556.013 58.0952L556.031 58.1028L556.049 58.1103L557.957 53.4886ZM564.264 58.2273L560.376 61.3709L560.394 61.3935L560.413 61.416L564.264 58.2273ZM567.912 66.2386L563.02 67.2722L563.021 67.2792L567.912 66.2386ZM567.844 77.625L562.911 76.8072L562.908 76.8233L562.906 76.8394L567.844 77.625ZM567.366 80.625V85.625H571.634L572.304 81.4106L567.366 80.625ZM526.457 80.625L521.52 79.8387L520.598 85.625H526.457V80.625ZM527.31 75.2727V70.2727H523.043L522.372 74.4865L527.31 75.2727ZM562.048 75.2727V80.2727H566.275L566.978 76.1055L562.048 75.2727ZM561.571 66.2045L556.824 67.7736V67.7736L561.571 66.2045ZM557.037 59.8295L554.03 63.8244L554.054 63.8424L554.078 63.8602L557.037 59.8295ZM540.06 60.1364L537.404 55.9002L537.396 55.9049L537.388 55.9097L540.06 60.1364ZM532.832 67.1591L528.707 64.3333L528.703 64.3404L532.832 67.1591ZM529.048 76.3295L524.123 75.4685L524.121 75.4812L524.119 75.494L529.048 76.3295ZM528.366 80.3523L523.437 79.5167L523.435 79.5297L523.432 79.5426L528.366 80.3523ZM528.639 91.5L523.854 92.95L523.857 92.9602L528.639 91.5ZM533.582 98.25L530.893 102.465V102.465L533.582 98.25ZM549.537 99.375L551.321 104.046V104.046L549.537 99.375ZM554.821 96.2727L558.089 100.057L558.105 100.043L558.122 100.029L554.821 96.2727ZM558.435 91.9432L560.069 87.2179L556.175 85.871L554.109 89.4355L558.435 91.9432ZM563.855 93.8182L568.281 96.145L570.988 90.995L565.49 89.0929L563.855 93.8182ZM558.946 99.9205L555.639 96.1701L555.629 96.179L555.619 96.1879L558.946 99.9205ZM551.48 104.42L553.292 109.08L553.302 109.077L553.312 109.073L551.48 104.42ZM541.901 106.091V101.091C537.794 101.091 534.847 100.144 532.704 98.6132L529.798 102.682L526.892 106.75C531.113 109.766 536.235 111.091 541.901 111.091V106.091ZM529.798 102.682L532.724 98.6269C530.488 97.0139 528.863 94.7756 527.886 91.6699L523.116 93.1705L518.347 94.671C519.915 99.6562 522.745 103.759 526.873 106.737L529.798 102.682ZM523.116 93.1705L527.888 91.6776C526.903 88.5281 526.679 84.6674 527.468 79.9504L522.537 79.125L517.606 78.2996C516.622 84.1735 516.784 89.6765 518.345 94.6633L523.116 93.1705ZM522.537 79.125L527.468 79.9539C528.254 75.2766 529.784 71.2409 532 67.7715L527.787 65.0795L523.573 62.3876C520.563 67.1 518.593 72.428 517.606 78.2961L522.537 79.125ZM527.787 65.0795L532.007 67.7609C534.243 64.2423 536.929 61.5976 540.052 59.7126L537.469 55.4318L534.885 51.1511C530.326 53.9024 526.558 57.6895 523.567 62.3982L527.787 65.0795ZM537.469 55.4318L540.071 59.7013C543.128 57.8384 546.398 56.9205 549.98 56.9205V51.9205V46.9205C544.563 46.9205 539.492 48.3434 534.867 51.1623L537.469 55.4318ZM549.98 51.9205V56.9205C552.192 56.9205 554.186 57.3239 556.013 58.0952L557.957 53.4886L559.901 48.882C556.775 47.5624 553.45 46.9205 549.98 46.9205V51.9205ZM557.957 53.4886L556.049 58.1103C557.733 58.8055 559.161 59.8681 560.376 61.3709L564.264 58.2273L568.152 55.0837C565.913 52.3137 563.136 50.2172 559.865 48.867L557.957 53.4886ZM564.264 58.2273L560.413 61.416C561.552 62.792 562.472 64.6781 563.02 67.2722L567.912 66.2386L572.804 65.2051C571.988 61.3447 570.476 57.8899 568.115 55.0386L564.264 58.2273ZM567.912 66.2386L563.021 67.2792C563.536 69.6966 563.57 72.8311 562.911 76.8072L567.844 77.625L572.776 78.4428C573.572 73.6461 573.652 69.1898 572.802 65.1981L567.912 66.2386ZM567.844 77.625L562.906 76.8394L562.429 79.8394L567.366 80.625L572.304 81.4106L572.782 78.4106L567.844 77.625ZM567.366 80.625V75.625H526.457V80.625V85.625H567.366V80.625ZM526.457 80.625L531.395 81.4113L532.247 76.059L527.31 75.2727L522.372 74.4865L521.52 79.8387L526.457 80.625ZM527.31 75.2727V80.2727H562.048V75.2727V70.2727H527.31V75.2727ZM562.048 75.2727L566.978 76.1055C567.654 72.1039 567.509 68.2362 566.318 64.6355L561.571 66.2045L556.824 67.7736C557.406 69.5365 557.579 71.7143 557.118 74.4399L562.048 75.2727ZM561.571 66.2045L566.318 64.6355C565.129 61.0359 563.026 58.0233 559.996 55.7989L557.037 59.8295L554.078 63.8602C555.321 64.7722 556.241 66.0096 556.824 67.7736L561.571 66.2045ZM557.037 59.8295L560.044 55.8347C556.911 53.4766 553.175 52.4432 549.162 52.4432V57.4432V62.4432C551.421 62.4432 552.936 63.0007 554.03 63.8244L557.037 59.8295ZM549.162 57.4432V52.4432C544.965 52.4432 541.018 53.6342 537.404 55.9002L540.06 60.1364L542.716 64.3726C544.829 63.0476 546.949 62.4432 549.162 62.4432V57.4432ZM540.06 60.1364L537.388 55.9097C533.949 58.0834 531.053 60.9095 528.707 64.3333L532.832 67.1591L536.957 69.9848C538.566 67.6359 540.488 65.7803 542.731 64.363L540.06 60.1364ZM532.832 67.1591L528.703 64.3404C526.367 67.7619 524.82 71.4811 524.123 75.4685L529.048 76.3295L533.974 77.1906C534.413 74.678 535.388 72.2836 536.962 69.9778L532.832 67.1591ZM529.048 76.3295L524.119 75.494L523.437 79.5167L528.366 80.3523L533.296 81.1878L533.978 77.1651L529.048 76.3295ZM528.366 80.3523L523.432 79.5426C522.631 84.4252 522.648 88.9715 523.854 92.95L528.639 91.5L533.424 90.05C532.812 88.0285 532.647 85.1429 533.3 81.162L528.366 80.3523ZM528.639 91.5L523.857 92.9602C525.077 96.9537 527.401 100.237 530.893 102.465L533.582 98.25L536.272 94.035C534.991 93.2176 534.02 92.0009 533.421 90.0398L528.639 91.5ZM533.582 98.25L530.893 102.465C534.3 104.639 538.368 105.534 542.753 105.534V100.534V95.5341C539.683 95.5341 537.637 94.9063 536.272 94.035L533.582 98.25ZM542.753 100.534V105.534C545.77 105.534 548.648 105.067 551.321 104.046L549.537 99.375L547.753 94.7042C546.38 95.2284 544.736 95.5341 542.753 95.5341V100.534ZM549.537 99.375L551.321 104.046C553.836 103.085 556.111 101.765 558.089 100.057L554.821 96.2727L551.553 92.4886C550.531 93.3711 549.283 94.1195 547.753 94.7042L549.537 99.375ZM554.821 96.2727L558.122 100.029C559.988 98.3888 561.553 96.533 562.76 94.4508L558.435 91.9432L554.109 89.4355C553.498 90.4897 552.654 91.5203 551.52 92.5169L554.821 96.2727ZM558.435 91.9432L556.8 96.6685L562.221 98.5435L563.855 93.8182L565.49 89.0929L560.069 87.2179L558.435 91.9432ZM563.855 93.8182L559.43 91.4913C558.588 93.0913 557.356 94.6565 555.639 96.1701L558.946 99.9205L562.253 103.671C564.763 101.457 566.804 98.9542 568.281 96.145L563.855 93.8182ZM558.946 99.9205L555.619 96.1879C554.013 97.6192 552.045 98.8246 549.648 99.768L551.48 104.42L553.312 109.073C556.688 107.744 559.697 105.949 562.273 103.653L558.946 99.9205ZM551.48 104.42L549.668 99.7604C547.46 100.619 544.893 101.091 541.901 101.091V106.091V111.091C545.953 111.091 549.773 110.449 553.292 109.08L551.48 104.42ZM452.531 151.182V146.182H448.293L447.599 150.363L452.531 151.182ZM459.895 151.182L464.744 149.964L463.795 146.182H459.895V151.182ZM475.168 212L470.318 213.218L471.268 217H475.168V212ZM475.815 212V217H478.692L480.138 214.513L475.815 212ZM511.168 151.182V146.182H508.291L506.845 148.669L511.168 151.182ZM518.531 151.182L523.464 152.001L524.43 146.182H518.531V151.182ZM506.94 221V226H511.179L511.873 221.819L506.94 221ZM500.94 221L496.009 220.177L495.036 226H500.94V221ZM510.349 164.648L515.281 165.471L516.253 159.648H510.349V164.648ZM509.804 164.648V159.648H506.936L505.488 162.123L509.804 164.648ZM476.838 221V226H479.706L481.154 223.525L476.838 221ZM471.043 221L466.193 222.218L467.143 226H471.043V221ZM456.895 164.648L461.744 163.43L460.795 159.648H456.895V164.648ZM456.349 164.648V159.648H452.115L451.418 163.824L456.349 164.648ZM446.94 221V226H451.175L451.872 221.823L446.94 221ZM440.94 221L436.008 220.181L435.042 226H440.94V221ZM452.531 151.182V156.182H459.895V151.182V146.182H452.531V151.182ZM459.895 151.182L455.045 152.4L470.318 213.218L475.168 212L480.017 210.782L464.744 149.964L459.895 151.182ZM475.168 212V217H475.815V212V207H475.168V212ZM475.815 212L480.138 214.513L515.49 153.695L511.168 151.182L506.845 148.669L471.493 209.487L475.815 212ZM511.168 151.182V156.182H518.531V151.182V146.182H511.168V151.182ZM518.531 151.182L513.599 150.363L502.008 220.181L506.94 221L511.873 221.819L523.464 152.001L518.531 151.182ZM506.94 221V216H500.94V221V226H506.94V221ZM500.94 221L505.872 221.823L515.281 165.471L510.349 164.648L505.418 163.824L496.009 220.177L500.94 221ZM510.349 164.648V159.648H509.804V164.648V169.648H510.349V164.648ZM509.804 164.648L505.488 162.123L472.522 218.475L476.838 221L481.154 223.525L514.12 167.172L509.804 164.648ZM476.838 221V216H471.043V221V226H476.838V221ZM471.043 221L475.892 219.782L461.744 163.43L456.895 164.648L452.045 165.865L466.193 222.218L471.043 221ZM456.895 164.648V159.648H456.349V164.648V169.648H456.895V164.648ZM456.349 164.648L451.418 163.824L442.009 220.177L446.94 221L451.872 221.823L461.281 165.471L456.349 164.648ZM446.94 221V216H440.94V221V226H446.94V221ZM440.94 221L445.873 221.819L457.464 152.001L452.531 151.182L447.599 150.363L436.008 220.181L440.94 221ZM521.923 240.295L520.815 245.171L520.827 245.174L520.839 245.176L521.923 240.295ZM519.571 239.545L515.059 237.39L512.908 241.893L517.407 244.053L519.571 239.545ZM522.128 234.193L523.76 229.467L519.54 228.01L517.616 232.038L522.128 234.193ZM527.378 234.807L526.68 229.856L526.641 229.861L526.602 229.867L527.378 234.807ZM531.98 232.489L528.623 228.784V228.784L531.98 232.489ZM536.276 226.591L540.677 228.964L540.678 228.961L536.276 226.591ZM539.139 221.273L543.542 223.643L544.391 222.065L544.045 220.307L539.139 221.273ZM528.776 168.636V163.636H522.695L523.87 169.602L528.776 168.636ZM535.082 168.636L540 167.731L539.246 163.636H535.082V168.636ZM543.264 213.091L538.347 213.996L539.1 218.091H543.264V213.091ZM543.707 213.091V218.091H546.754L548.151 215.384L543.707 213.091ZM566.651 168.636V163.636H563.604L562.207 166.343L566.651 168.636ZM573.503 168.636L577.917 170.984L581.825 163.636H573.503V168.636ZM541.287 229.216L536.872 226.868L536.87 226.873L541.287 229.216ZM536.685 235.659L533.149 232.124L533.137 232.136L533.125 232.148L536.685 235.659ZM531.298 239.409L529.348 234.805L529.339 234.809L529.329 234.813L531.298 239.409ZM525.264 240.636V235.636C524.371 235.636 523.626 235.552 523.008 235.415L521.923 240.295L520.839 245.176C522.266 245.494 523.748 245.636 525.264 245.636V240.636ZM521.923 240.295L523.031 235.42C522.199 235.231 521.823 235.08 521.735 235.038L519.571 239.545L517.407 244.053C518.456 244.556 519.647 244.906 520.815 245.171L521.923 240.295ZM519.571 239.545L524.083 241.701L526.639 236.348L522.128 234.193L517.616 232.038L515.059 237.39L519.571 239.545ZM522.128 234.193L520.496 238.919C522.986 239.779 525.575 240.151 528.154 239.746L527.378 234.807L526.602 229.867C525.999 229.962 525.088 229.926 523.76 229.467L522.128 234.193ZM527.378 234.807L528.075 239.758C530.868 239.365 533.295 238.044 535.338 236.194L531.98 232.489L528.623 228.784C527.756 229.569 527.115 229.795 526.68 229.856L527.378 234.807ZM531.98 232.489L535.338 236.194C537.371 234.351 539.122 231.848 540.677 228.964L536.276 226.591L531.874 224.218C530.611 226.561 529.498 227.99 528.623 228.784L531.98 232.489ZM536.276 226.591L540.678 228.961L543.542 223.643L539.139 221.273L534.737 218.902L531.873 224.22L536.276 226.591ZM539.139 221.273L544.045 220.307L533.681 167.67L528.776 168.636L523.87 169.602L534.233 222.239L539.139 221.273ZM528.776 168.636V173.636H535.082V168.636V163.636H528.776V168.636ZM535.082 168.636L530.165 169.541L538.347 213.996L543.264 213.091L548.182 212.186L540 167.731L535.082 168.636ZM543.264 213.091V218.091H543.707V213.091V208.091H543.264V213.091ZM543.707 213.091L548.151 215.384L571.094 170.929L566.651 168.636L562.207 166.343L539.264 210.798L543.707 213.091ZM566.651 168.636V173.636H573.503V168.636V163.636H566.651V168.636ZM573.503 168.636L569.088 166.289L536.872 226.868L541.287 229.216L545.702 231.564L577.917 170.984L573.503 168.636ZM541.287 229.216L536.87 226.873C535.662 229.15 534.406 230.867 533.149 232.124L536.685 235.659L540.22 239.195C542.327 237.088 544.139 234.509 545.704 231.559L541.287 229.216ZM536.685 235.659L533.125 232.148C531.868 233.422 530.606 234.272 529.348 234.805L531.298 239.409L533.248 244.013C535.854 242.909 538.183 241.26 540.244 239.171L536.685 235.659ZM531.298 239.409L529.329 234.813C528.053 235.36 526.713 235.636 525.264 235.636V240.636V245.636C528.043 245.636 530.725 245.095 533.268 244.005L531.298 239.409ZM406.943 285.011L401.947 284.817L401.745 290.011H406.943V285.011ZM403.295 275.398L399.945 279.109L399.953 279.117L399.961 279.124L403.295 275.398ZM383.625 273.625L385.556 278.237L385.566 278.233L385.576 278.229L383.625 273.625ZM377.045 278.227L373.299 274.916L373.288 274.929L373.277 274.941L377.045 278.227ZM373.875 284.909L368.941 284.102L368.939 284.109L368.938 284.117L373.875 284.909ZM374.284 289.75L369.658 291.646L369.663 291.66L369.669 291.673L374.284 289.75ZM380.966 295.852L378.866 300.39L378.879 300.396L378.892 300.402L380.966 295.852ZM385.67 297.625L384.234 302.414L384.236 302.415L385.67 297.625ZM392.727 299.739L391.293 304.528L391.306 304.532L391.319 304.536L392.727 299.739ZM408.068 310.955L403.378 312.688L403.386 312.71L403.395 312.732L408.068 310.955ZM408.545 318.455L413.476 319.286L413.478 319.275L413.479 319.264L408.545 318.455ZM403.977 328.58L400.09 325.434L400.088 325.438L403.977 328.58ZM394.568 335.602L396.599 340.171L394.568 335.602ZM369.102 335.841L366.904 340.332L366.917 340.338L366.929 340.344L369.102 335.841ZM361.909 329.261L366.285 326.842V326.842L361.909 329.261ZM360.136 319.545V314.545H355.606L355.161 319.054L360.136 319.545ZM366.682 319.545L371.661 319.998L372.157 314.545H366.682V319.545ZM368.216 326.534L364.056 329.308L364.067 329.325L364.079 329.342L368.216 326.534ZM373.739 330.898L371.806 335.509L371.833 335.52L371.859 335.531L373.739 330.898ZM391.636 330.625L393.487 335.27L393.503 335.264L393.518 335.257L391.636 330.625ZM398.83 325.716L395.119 322.364L395.117 322.367L398.83 325.716ZM402.375 318.352L397.448 317.5L397.444 317.525L397.44 317.55L402.375 318.352ZM401.523 312.386L397.219 314.932L397.232 314.954L397.246 314.977L401.523 312.386ZM397.057 308.33L394.624 312.698L394.654 312.714L394.683 312.73L397.057 308.33ZM389.898 305.398L388.427 310.177L388.437 310.18L388.447 310.183L389.898 305.398ZM381.92 302.943L383.391 298.164L383.382 298.162L381.92 302.943ZM370.295 296.227L366.531 299.518L366.538 299.526L366.545 299.534L370.295 296.227ZM367.602 285.182L362.672 284.35L362.669 284.365L362.667 284.38L367.602 285.182ZM372.273 275.261L368.506 271.973L368.504 271.975L372.273 275.261ZM381.58 268.58L383.553 273.174V273.174L381.58 268.58ZM404.659 268.614L402.318 273.032L402.325 273.035L402.332 273.039L404.659 268.614ZM411.477 275.295L407.041 277.602L407.052 277.624L407.064 277.645L411.477 275.295ZM413.148 285.011V290.011H417.648L418.12 285.536L413.148 285.011ZM406.943 285.011L411.939 285.206C412.145 279.919 410.533 275.164 406.629 271.672L403.295 275.398L399.961 279.124C401.24 280.268 402.06 281.922 401.947 284.817L406.943 285.011ZM403.295 275.398L406.646 271.686C402.884 268.291 397.935 266.92 392.489 266.92V271.92V276.92C396.315 276.92 398.57 277.868 399.945 279.109L403.295 275.398ZM392.489 271.92V266.92C388.664 266.92 385.037 267.596 381.674 269.021L383.625 273.625L385.576 278.229C387.577 277.381 389.859 276.92 392.489 276.92V271.92ZM383.625 273.625L381.694 269.013C378.413 270.387 375.576 272.34 373.299 274.916L377.045 278.227L380.792 281.538C381.97 280.206 383.519 279.09 385.556 278.237L383.625 273.625ZM377.045 278.227L373.277 274.941C370.976 277.58 369.504 280.66 368.941 284.102L373.875 284.909L378.809 285.717C379.064 284.158 379.706 282.784 380.814 281.514L377.045 278.227ZM373.875 284.909L368.938 284.117C368.532 286.645 368.665 289.224 369.658 291.646L374.284 289.75L378.911 287.854C378.767 287.504 378.627 286.855 378.812 285.701L373.875 284.909ZM374.284 289.75L369.669 291.673C370.557 293.804 371.922 295.625 373.679 297.112L376.909 293.295L380.139 289.479C379.533 288.966 379.148 288.423 378.899 287.827L374.284 289.75ZM376.909 293.295L373.679 297.112C375.231 298.425 376.97 299.513 378.866 300.39L380.966 295.852L383.065 291.314C381.916 290.783 380.951 290.165 380.139 289.479L376.909 293.295ZM380.966 295.852L378.892 300.402C380.639 301.198 382.42 301.87 384.234 302.414L385.67 297.625L387.107 292.836C385.739 292.425 384.383 291.915 383.04 291.303L380.966 295.852ZM385.67 297.625L384.236 302.415L391.293 304.528L392.727 299.739L394.162 294.949L387.105 292.835L385.67 297.625ZM392.727 299.739L391.319 304.536C393.165 305.078 395.015 305.774 396.871 306.631L398.966 302.091L401.061 297.551C398.781 296.499 396.472 295.627 394.135 294.941L392.727 299.739ZM398.966 302.091L396.871 306.631C398.519 307.391 399.943 308.321 401.17 309.41L404.489 305.67L407.807 301.931C405.807 300.156 403.549 298.699 401.061 297.551L398.966 302.091ZM404.489 305.67L401.17 309.41C402.148 310.278 402.881 311.342 403.378 312.688L408.068 310.955L412.758 309.221C411.71 306.386 410.057 303.927 407.807 301.931L404.489 305.67ZM408.068 310.955L403.395 312.732C403.792 313.777 403.99 315.338 403.611 317.645L408.545 318.455L413.479 319.264C414.055 315.753 413.935 312.314 412.741 309.177L408.068 310.955ZM408.545 318.455L403.615 317.623C403.122 320.547 401.959 323.125 400.09 325.434L403.977 328.58L407.864 331.725C410.814 328.08 412.696 323.908 413.476 319.286L408.545 318.455ZM403.977 328.58L400.088 325.438C398.256 327.705 395.788 329.589 392.537 331.033L394.568 335.602L396.599 340.171C401.121 338.161 404.926 335.363 407.867 331.721L403.977 328.58ZM394.568 335.602L392.537 331.033C389.404 332.426 385.629 333.193 381.102 333.193V338.193V343.193C386.757 343.193 391.96 342.233 396.599 340.171L394.568 335.602ZM381.102 338.193V333.193C376.877 333.193 373.668 332.492 371.275 331.338L369.102 335.841L366.929 340.344C371.036 342.326 375.828 343.193 381.102 343.193V338.193ZM369.102 335.841L371.301 331.35C368.845 330.148 367.27 328.624 366.285 326.842L361.909 329.261L357.533 331.681C359.639 335.49 362.86 338.352 366.904 340.332L369.102 335.841ZM361.909 329.261L366.285 326.842C365.304 325.068 364.832 322.874 365.112 320.037L360.136 319.545L355.161 319.054C354.714 323.58 355.423 327.864 357.533 331.681L361.909 329.261ZM360.136 319.545V324.545H366.682V319.545V314.545H360.136V319.545ZM366.682 319.545L361.702 319.093C361.371 322.74 362.028 326.265 364.056 329.308L368.216 326.534L372.376 323.761C371.859 322.985 371.493 321.851 371.661 319.998L366.682 319.545ZM368.216 326.534L364.079 329.342C365.983 332.148 368.638 334.181 371.806 335.509L373.739 330.898L375.671 326.286C374.067 325.614 373.04 324.738 372.353 323.727L368.216 326.534ZM373.739 330.898L371.859 335.531C374.975 336.795 378.406 337.364 382.057 337.364V332.364V327.364C379.435 327.364 377.321 326.955 375.618 326.264L373.739 330.898ZM382.057 332.364V337.364C386.098 337.364 389.928 336.688 393.487 335.27L391.636 330.625L389.786 325.98C387.527 326.88 384.97 327.364 382.057 327.364V332.364ZM391.636 330.625L393.518 335.257C397.045 333.824 400.095 331.778 402.542 329.065L398.83 325.716L395.117 322.367C393.792 323.836 392.046 325.062 389.754 325.993L391.636 330.625ZM398.83 325.716L402.54 329.067C405.09 326.244 406.7 322.906 407.31 319.155L402.375 318.352L397.44 317.55C397.141 319.39 396.387 320.961 395.119 322.364L398.83 325.716ZM402.375 318.352L407.302 319.205C407.859 315.985 407.557 312.697 405.8 309.796L401.523 312.386L397.246 314.977C397.443 315.303 397.709 315.992 397.448 317.5L402.375 318.352ZM401.523 312.386L405.826 309.841C404.315 307.285 402.073 305.354 399.43 303.929L397.057 308.33L394.683 312.73C396.086 313.487 396.822 314.26 397.219 314.932L401.523 312.386ZM397.057 308.33L399.489 303.961C397.109 302.635 394.377 301.531 391.349 300.613L389.898 305.398L388.447 310.183C390.964 310.946 393.005 311.796 394.624 312.698L397.057 308.33ZM389.898 305.398L391.368 300.619L383.391 298.164L381.92 302.943L380.45 307.722L388.427 310.177L389.898 305.398ZM381.92 302.943L383.382 298.162C378.713 296.734 375.776 294.883 374.046 292.92L370.295 296.227L366.545 299.534C369.906 303.345 374.719 305.97 380.459 307.725L381.92 302.943ZM370.295 296.227L374.06 292.937C372.701 291.382 372.001 289.289 372.538 285.983L367.602 285.182L362.667 284.38C361.749 290.029 362.844 295.3 366.531 299.518L370.295 296.227ZM367.602 285.182L372.533 286.013C373.018 283.136 374.18 280.682 376.041 278.547L372.273 275.261L368.504 271.975C365.411 275.522 363.459 279.682 362.672 284.35L367.602 285.182ZM372.273 275.261L376.039 278.55C378.017 276.284 380.493 274.488 383.553 273.174L381.58 268.58L379.607 263.985C375.257 265.853 371.528 268.511 368.506 271.973L372.273 275.261ZM381.58 268.58L383.553 273.174C386.594 271.868 389.917 271.193 393.58 271.193V266.193V261.193C388.651 261.193 383.975 262.109 379.607 263.985L381.58 268.58ZM393.58 266.193V271.193C397.312 271.193 400.157 271.887 402.318 273.032L404.659 268.614L407 264.195C403.07 262.113 398.529 261.193 393.58 261.193V266.193ZM404.659 268.614L402.332 273.039C404.576 274.219 406.074 275.741 407.041 277.602L411.477 275.295L415.913 272.989C413.926 269.168 410.879 266.235 406.986 264.188L404.659 268.614ZM411.477 275.295L407.064 277.645C408.026 279.453 408.473 281.664 408.175 284.486L413.148 285.011L418.12 285.536C418.595 281.041 417.928 276.774 415.891 272.946L411.477 275.295ZM413.148 285.011V280.011H406.943V285.011V290.011H413.148V285.011ZM448.875 284.636L453.811 285.433L454.746 279.636H448.875V284.636ZM448.023 289.92V294.92H452.281L452.959 290.717L448.023 289.92ZM423 289.92L418.069 289.093L417.091 294.92H423V289.92ZM423.886 284.636V279.636H419.655L418.955 283.809L423.886 284.636ZM433.739 272.091V267.091H429.496L428.805 271.277L433.739 272.091ZM439.841 272.091L444.773 272.911L445.741 267.091H439.841V272.091ZM431.318 323.33L436.25 324.152L436.25 324.15L431.318 323.33ZM431.591 328.477L427.008 330.477L427.015 330.492L427.022 330.508L431.591 328.477ZM434.114 331.102L432.024 335.645L432.062 335.662L432.1 335.679L434.114 331.102ZM439.909 331.716L440.699 336.653L440.776 336.641L440.853 336.626L439.909 331.716ZM441.477 331.375L446.461 330.973L445.986 325.094L440.265 326.524L441.477 331.375ZM441.92 336.864L443.55 341.591L447.216 340.326L446.904 336.461L441.92 336.864ZM439.568 337.477L438.588 332.574L438.529 332.586L438.471 332.599L439.568 337.477ZM430.125 336.318L427.825 340.758V340.758L430.125 336.318ZM425.83 331.955L430.291 329.698V329.698L425.83 331.955ZM425.045 324.761L420.112 323.947L420.11 323.962L420.107 323.978L425.045 324.761ZM448.875 284.636L443.939 283.84L443.087 289.124L448.023 289.92L452.959 290.717L453.811 285.433L448.875 284.636ZM448.023 289.92V284.92H423V289.92V294.92H448.023V289.92ZM423 289.92L427.931 290.748L428.817 285.464L423.886 284.636L418.955 283.809L418.069 289.093L423 289.92ZM423.886 284.636V289.636H448.875V284.636V279.636H423.886V284.636ZM433.739 272.091V277.091H439.841V272.091V267.091H433.739V272.091ZM439.841 272.091L434.909 271.271L426.386 322.509L431.318 323.33L436.25 324.15L444.773 272.911L439.841 272.091ZM431.318 323.33L426.386 322.508C425.953 325.106 425.904 327.946 427.008 330.477L431.591 328.477L436.174 326.478C436.194 326.524 436.128 326.397 436.107 325.988C436.085 325.58 436.112 324.98 436.25 324.152L431.318 323.33ZM431.591 328.477L427.022 330.508C428.022 332.757 429.698 334.575 432.024 335.645L434.114 331.102L436.203 326.56C436.189 326.553 436.191 326.553 436.203 326.561C436.215 326.57 436.227 326.58 436.236 326.589C436.244 326.598 436.241 326.597 436.229 326.579C436.217 326.56 436.192 326.519 436.16 326.447L431.591 328.477ZM434.114 331.102L432.1 335.679C433.931 336.484 435.875 336.852 437.864 336.852V331.852V326.852C437.125 326.852 436.569 326.72 436.127 326.526L434.114 331.102ZM437.864 331.852V336.852C438.831 336.852 439.792 336.798 440.699 336.653L439.909 331.716L439.119 326.779C438.89 326.815 438.487 326.852 437.864 326.852V331.852ZM439.909 331.716L440.853 336.626C441.51 336.5 442.126 336.367 442.69 336.226L441.477 331.375L440.265 326.524C439.92 326.611 439.49 326.705 438.965 326.806L439.909 331.716ZM441.477 331.375L436.493 331.777L436.937 337.266L441.92 336.864L446.904 336.461L446.461 330.973L441.477 331.375ZM441.92 336.864L440.29 332.137C439.9 332.272 439.343 332.423 438.588 332.574L439.568 337.477L440.549 342.38C441.611 342.168 442.623 341.91 443.55 341.591L441.92 336.864ZM439.568 337.477L438.471 332.599C438.025 332.699 437.323 332.784 436.295 332.784V337.784V342.784C437.813 342.784 439.293 342.664 440.666 342.355L439.568 337.477ZM436.295 337.784V332.784C434.829 332.784 433.566 332.47 432.425 331.879L430.125 336.318L427.825 340.758C430.457 342.121 433.308 342.784 436.295 342.784V337.784ZM430.125 336.318L432.425 331.879C431.489 331.394 430.804 330.712 430.291 329.698L425.83 331.955L421.368 334.212C422.809 337.061 424.988 339.288 427.825 340.758L430.125 336.318ZM425.83 331.955L430.291 329.698C429.926 328.976 429.639 327.718 429.984 325.545L425.045 324.761L420.107 323.978C419.543 327.532 419.779 331.07 421.368 334.212L425.83 331.955ZM425.045 324.761L429.979 325.576L438.672 272.905L433.739 272.091L428.805 271.277L420.112 323.947L425.045 324.761ZM490.509 316.989L485.577 316.162L485.575 316.173L485.574 316.184L490.509 316.989ZM495.929 284.636V279.636H491.697L490.998 283.81L495.929 284.636ZM501.997 284.636L506.929 285.458L507.899 279.636H501.997V284.636ZM493.27 337V342H497.506L498.202 337.822L493.27 337ZM487.202 337L482.268 336.187L481.311 342H487.202V337ZM488.634 328.307L493.567 329.119L494.524 323.307H488.634V328.307ZM488.19 328.307V323.307H485.384L483.922 325.702L488.19 328.307ZM481.236 335.023L483.794 339.319L483.803 339.313L481.236 335.023ZM462.452 335.5L459.783 339.728L459.807 339.743L459.831 339.758L462.452 335.5ZM457.44 329.023L462.157 327.363V327.363L457.44 329.023ZM456.963 318.557L452.032 317.729L452.031 317.736L452.03 317.744L456.963 318.557ZM462.656 284.636V279.636H458.426L457.725 283.809L462.656 284.636ZM468.724 284.636L473.656 285.458L474.627 279.636H468.724V284.636ZM463.134 318.182L458.202 317.36L458.199 317.373L458.197 317.387L463.134 318.182ZM465.111 328.068L461.189 331.17L461.205 331.19L461.22 331.209L465.111 328.068ZM480.861 330.08L478.711 325.565L478.703 325.569L478.694 325.573L480.861 330.08ZM487.065 325.102L483.169 321.969L483.165 321.974L487.065 325.102ZM490.509 316.989L495.44 317.815L500.86 285.463L495.929 284.636L490.998 283.81L485.577 316.162L490.509 316.989ZM495.929 284.636V289.636H501.997V284.636V279.636H495.929V284.636ZM501.997 284.636L497.065 283.814L488.338 336.178L493.27 337L498.202 337.822L506.929 285.458L501.997 284.636ZM493.27 337V332H487.202V337V342H493.27V337ZM487.202 337L492.135 337.813L493.567 329.119L488.634 328.307L483.7 327.494L482.268 336.187L487.202 337ZM488.634 328.307V323.307H488.19V328.307V333.307H488.634V328.307ZM488.19 328.307L483.922 325.702C482.754 327.618 481.053 329.305 478.668 330.732L481.236 335.023L483.803 339.313C487.419 337.149 490.354 334.36 492.459 330.911L488.19 328.307ZM481.236 335.023L478.678 330.727C476.556 331.99 474.049 332.682 471.009 332.682V337.682V342.682C475.65 342.682 479.961 341.601 483.794 339.319L481.236 335.023ZM471.009 337.682V332.682C468.403 332.682 466.501 332.121 465.072 331.242L462.452 335.5L459.831 339.758C463.13 341.788 466.932 342.682 471.009 342.682V337.682ZM462.452 335.5L465.12 331.272C463.817 330.449 462.818 329.241 462.157 327.363L457.44 329.023L452.724 330.683C454.063 334.486 456.404 337.596 459.783 339.728L462.452 335.5ZM457.44 329.023L462.157 327.363C461.524 325.565 461.301 322.985 461.896 319.37L456.963 318.557L452.03 317.744C451.262 322.401 451.357 326.799 452.724 330.683L457.44 329.023ZM456.963 318.557L461.894 319.384L467.587 285.464L462.656 284.636L457.725 283.809L452.032 317.729L456.963 318.557ZM462.656 284.636V289.636H468.724V284.636V279.636H462.656V284.636ZM468.724 284.636L463.792 283.814L458.202 317.36L463.134 318.182L468.065 319.004L473.656 285.458L468.724 284.636ZM463.134 318.182L458.197 317.387C457.386 322.422 458.1 327.265 461.189 331.17L465.111 328.068L469.032 324.966C468.167 323.872 467.563 322.123 468.07 318.977L463.134 318.182ZM465.111 328.068L461.22 331.209C464.349 335.085 468.797 336.784 473.77 336.784V331.784V326.784C471.197 326.784 469.872 326.006 469.001 324.927L465.111 328.068ZM473.77 331.784V336.784C476.962 336.784 480.062 336.011 483.027 334.586L480.861 330.08L478.694 325.573C476.932 326.421 475.305 326.784 473.77 326.784V331.784ZM480.861 330.08L483.01 334.594C486.117 333.115 488.772 330.965 490.966 328.231L487.065 325.102L483.165 321.974C481.858 323.603 480.377 324.772 478.711 325.565L480.861 330.08ZM487.065 325.102L490.962 328.236C493.352 325.264 494.802 321.723 495.443 317.794L490.509 316.989L485.574 316.184C485.169 318.663 484.324 320.532 483.169 321.969L487.065 325.102ZM539.608 284.636L544.539 285.464L545.517 279.636H539.608V284.636ZM538.722 289.92V294.92H542.953L543.653 290.748L538.722 289.92ZM513.017 289.92L508.081 289.124L507.146 294.92H513.017V289.92ZM513.869 284.636V279.636H509.611L508.933 283.84L513.869 284.636ZM513.188 337L508.255 336.179L507.287 342H513.188V337ZM523.176 276.966L528.108 277.787L528.11 277.774L528.112 277.762L523.176 276.966ZM526.278 269.841L522.463 266.609L522.452 266.622L522.441 266.636L526.278 269.841ZM532.142 265.443L530.128 260.867V260.867L532.142 265.443ZM543.017 264.352L541.701 269.176L541.753 269.19L541.804 269.203L543.017 264.352ZM545.369 265.102L549.864 267.292L552.141 262.619L547.383 260.526L545.369 265.102ZM542.778 270.42L541.342 275.21L545.412 276.431L547.273 272.61L542.778 270.42ZM541.142 269.943L539.722 274.737L539.745 274.744L539.768 274.751L541.142 269.943ZM529.006 278.227L524.079 277.372L524.076 277.391L524.073 277.409L529.006 278.227ZM519.256 337V342H523.495L524.188 337.818L519.256 337ZM539.608 284.636L534.677 283.809L533.79 289.093L538.722 289.92L543.653 290.748L544.539 285.464L539.608 284.636ZM538.722 289.92V284.92H513.017V289.92V294.92H538.722V289.92ZM513.017 289.92L517.953 290.717L518.806 285.433L513.869 284.636L508.933 283.84L508.081 289.124L513.017 289.92ZM513.869 284.636V289.636H539.608V284.636V279.636H513.869V284.636ZM513.188 337L518.12 337.821L528.108 277.787L523.176 276.966L518.244 276.145L508.255 336.179L513.188 337ZM523.176 276.966L528.112 277.762C528.443 275.71 529.152 274.2 530.116 273.046L526.278 269.841L522.441 266.636C520.177 269.346 518.818 272.586 518.24 276.17L523.176 276.966ZM526.278 269.841L530.094 273.073C531.249 271.708 532.592 270.708 534.156 270.02L532.142 265.443L530.128 260.867C527.147 262.178 524.58 264.11 522.463 266.609L526.278 269.841ZM532.142 265.443L534.156 270.02C535.82 269.287 537.466 268.943 539.131 268.943V263.943V258.943C536.023 258.943 533.009 259.599 530.128 260.867L532.142 265.443ZM539.131 263.943V268.943C540.487 268.943 541.294 269.065 541.701 269.176L543.017 264.352L544.333 259.528C542.74 259.094 540.956 258.943 539.131 258.943V263.943ZM543.017 264.352L541.804 269.203C542.684 269.423 543.159 269.592 543.356 269.679L545.369 265.102L547.383 260.526C546.443 260.112 545.35 259.782 544.23 259.502L543.017 264.352ZM545.369 265.102L540.874 262.912L538.283 268.231L542.778 270.42L547.273 272.61L549.864 267.292L545.369 265.102ZM542.778 270.42L544.215 265.631C543.733 265.487 543.166 265.321 542.516 265.136L541.142 269.943L539.768 274.751C540.391 274.929 540.914 275.081 541.342 275.21L542.778 270.42ZM541.142 269.943L542.562 265.149C541.305 264.777 539.965 264.67 538.722 264.67V269.67V274.67C539.075 274.67 539.336 274.687 539.517 274.707C539.702 274.728 539.759 274.748 539.722 274.737L541.142 269.943ZM538.722 269.67V264.67C535.099 264.67 531.697 265.712 528.945 268.13L532.244 271.886L535.544 275.643C536.156 275.106 537.072 274.67 538.722 274.67V269.67ZM532.244 271.886L528.945 268.13C526.211 270.531 524.702 273.782 524.079 277.372L529.006 278.227L533.932 279.082C534.264 277.172 534.914 276.196 535.544 275.643L532.244 271.886ZM529.006 278.227L524.073 277.409L514.323 336.182L519.256 337L524.188 337.818L533.938 279.046L529.006 278.227ZM519.256 337V332H513.188V337V342H519.256V337ZM573.264 284.636L578.195 285.464L579.173 279.636H573.264V284.636ZM572.378 289.92V294.92H576.609L577.309 290.748L572.378 289.92ZM546.673 289.92L541.737 289.124L540.802 294.92H546.673V289.92ZM547.526 284.636V279.636H543.267L542.589 283.84L547.526 284.636ZM546.844 337L541.912 336.179L540.943 342H546.844V337ZM556.832 276.966L561.765 277.787L561.767 277.774L561.769 277.762L556.832 276.966ZM559.935 269.841L556.119 266.609L556.108 266.622L556.097 266.636L559.935 269.841ZM565.798 265.443L563.785 260.867V260.867L565.798 265.443ZM576.673 264.352L575.358 269.176L575.409 269.19L575.461 269.203L576.673 264.352ZM579.026 265.102L583.521 267.292L585.797 262.619L581.039 260.526L579.026 265.102ZM576.435 270.42L574.998 275.21L579.068 276.431L580.93 272.61L576.435 270.42ZM574.798 269.943L573.378 274.737L573.401 274.744L573.425 274.751L574.798 269.943ZM562.662 278.227L557.736 277.372L557.732 277.391L557.729 277.409L562.662 278.227ZM552.912 337V342H557.151L557.845 337.818L552.912 337ZM573.264 284.636L568.333 283.809L567.447 289.093L572.378 289.92L577.309 290.748L578.195 285.464L573.264 284.636ZM572.378 289.92V284.92H546.673V289.92V294.92H572.378V289.92ZM546.673 289.92L551.609 290.717L552.462 285.433L547.526 284.636L542.589 283.84L541.737 289.124L546.673 289.92ZM547.526 284.636V289.636H573.264V284.636V279.636H547.526V284.636ZM546.844 337L551.776 337.821L561.765 277.787L556.832 276.966L551.9 276.145L541.912 336.179L546.844 337ZM556.832 276.966L561.769 277.762C562.1 275.71 562.809 274.2 563.772 273.046L559.935 269.841L556.097 266.636C553.833 269.346 552.474 272.586 551.896 276.17L556.832 276.966ZM559.935 269.841L563.75 273.073C564.906 271.708 566.248 270.708 567.812 270.02L565.798 265.443L563.785 260.867C560.803 262.178 558.236 264.11 556.119 266.609L559.935 269.841ZM565.798 265.443L567.812 270.02C569.476 269.287 571.122 268.943 572.787 268.943V263.943V258.943C569.679 258.943 566.666 259.599 563.785 260.867L565.798 265.443ZM572.787 263.943V268.943C574.143 268.943 574.95 269.065 575.358 269.176L576.673 264.352L577.989 259.528C576.396 259.094 574.612 258.943 572.787 258.943V263.943ZM576.673 264.352L575.461 269.203C576.34 269.423 576.816 269.592 577.012 269.679L579.026 265.102L581.039 260.526C580.099 260.112 579.006 259.782 577.886 259.502L576.673 264.352ZM579.026 265.102L574.531 262.912L571.94 268.231L576.435 270.42L580.93 272.61L583.521 267.292L579.026 265.102ZM576.435 270.42L577.871 265.631C577.389 265.487 576.822 265.321 576.172 265.136L574.798 269.943L573.425 274.751C574.047 274.929 574.571 275.081 574.998 275.21L576.435 270.42ZM574.798 269.943L576.219 265.149C574.961 264.777 573.621 264.67 572.378 264.67V269.67V274.67C572.732 274.67 572.992 274.687 573.173 274.707C573.359 274.728 573.415 274.748 573.378 274.737L574.798 269.943ZM572.378 269.67V264.67C568.755 264.67 565.353 265.712 562.601 268.13L565.901 271.886L569.2 275.643C569.812 275.106 570.728 274.67 572.378 274.67V269.67ZM565.901 271.886L562.601 268.13C559.867 270.531 558.359 273.782 557.736 277.372L562.662 278.227L567.588 279.082C567.92 277.172 568.57 276.196 569.2 275.643L565.901 271.886ZM562.662 278.227L557.729 277.409L547.979 336.182L552.912 337L557.845 337.818L567.595 279.046L562.662 278.227ZM552.912 337V332H546.844V337V342H552.912V337Z" fill="#C9C9C9" fill-opacity="0.65" mask="url(#path-1-outside-1_1669_2)"/>
<path d="M69.4286 62C49.8875 62 34 77.8875 34 97.4286V132.857C34 152.398 49.8875 168.286 69.4286 168.286H246.571C266.112 168.286 282 152.398 282 132.857V97.4286C282 77.8875 266.112 62 246.571 62H69.4286ZM189 101.857C196.362 101.857 202.286 107.78 202.286 115.143C202.286 122.505 196.362 128.429 189 128.429C181.637 128.429 175.714 122.505 175.714 115.143C175.714 107.78 181.637 101.857 189 101.857ZM220 115.143C220 107.78 225.923 101.857 233.286 101.857C240.648 101.857 246.571 107.78 246.571 115.143C246.571 122.505 240.648 128.429 233.286 128.429C225.923 128.429 220 122.505 220 115.143ZM69.4286 203.714C49.8875 203.714 34 219.602 34 239.143V274.571C34 294.112 49.8875 310 69.4286 310H246.571C266.112 310 282 294.112 282 274.571V239.143C282 219.602 266.112 203.714 246.571 203.714H69.4286ZM189 243.571C196.362 243.571 202.286 249.495 202.286 256.857C202.286 264.22 196.362 270.143 189 270.143C181.637 270.143 175.714 264.22 175.714 256.857C175.714 249.495 181.637 243.571 189 243.571ZM220 256.857C220 249.495 225.923 243.571 233.286 243.571C240.648 243.571 246.571 249.495 246.571 256.857C246.571 264.22 240.648 270.143 233.286 270.143C225.923 270.143 220 264.22 220 256.857Z" fill="white"/>
<path d="M69.4287 206.214H246.571C264.732 206.214 279.5 220.982 279.5 239.143V274.571C279.5 292.732 264.732 307.5 246.571 307.5H69.4287C51.2684 307.5 36.5 292.732 36.5 274.571V239.143C36.5001 220.982 51.2684 206.214 69.4287 206.214ZM189 241.071C180.257 241.071 173.214 248.114 173.214 256.857C173.214 265.601 180.257 272.643 189 272.643C197.743 272.643 204.786 265.6 204.786 256.857C204.786 248.114 197.743 241.071 189 241.071ZM233.286 241.071C224.543 241.071 217.5 248.114 217.5 256.857C217.5 265.601 224.543 272.643 233.286 272.643C242.029 272.642 249.071 265.6 249.071 256.857C249.071 248.114 242.029 241.072 233.286 241.071ZM69.4287 64.5H246.571C264.732 64.5 279.5 79.2684 279.5 97.4287V132.857C279.5 151.018 264.732 165.786 246.571 165.786H69.4287C51.2684 165.786 36.5002 151.018 36.5 132.857V97.4287C36.5 79.2684 51.2684 64.5 69.4287 64.5ZM189 99.3574C180.257 99.3574 173.214 106.399 173.214 115.143C173.214 123.886 180.257 130.929 189 130.929C197.743 130.929 204.786 123.886 204.786 115.143C204.786 106.399 197.743 99.3574 189 99.3574ZM233.286 99.3574C224.543 99.3574 217.5 106.399 217.5 115.143C217.5 123.886 224.543 130.929 233.286 130.929C242.029 130.928 249.071 123.886 249.071 115.143C249.071 106.4 242.029 99.3577 233.286 99.3574Z" stroke="#C9C9C9" stroke-opacity="0.65" stroke-width="5"/>
<defs>
<linearGradient id="paint0_linear_1669_2" x1="300" y1="0" x2="300" y2="372" gradientUnits="userSpaceOnUse">
<stop stop-color="#406CFF"/>
<stop offset="1" stop-color="#7300FF"/>
</linearGradient>
</defs>
</svg>
