<svg width="600" height="372" viewBox="0 0 600 372" fill="none" xmlns="http://www.w3.org/2000/svg">
<rect width="600" height="372" fill="url(#paint0_linear_1622_2)"/>
<mask id="path-1-outside-1_1622_2" maskUnits="userSpaceOnUse" x="47" y="87" width="259" height="199" fill="black">
<rect fill="white" x="47" y="87" width="259" height="199"/>
<path d="M53.5838 98.9091L54.5384 93.1818H105.163L104.209 98.9091H82.0838L71.4474 163H65.0724L75.7088 98.9091H53.5838ZM106.732 163L115.459 110.636H121.561L112.834 163H106.732ZM120.709 101.534C119.436 101.534 118.357 101.102 117.47 100.239C116.607 99.375 116.186 98.3295 116.209 97.1023C116.254 95.9432 116.72 94.9432 117.607 94.1023C118.516 93.2386 119.584 92.8068 120.811 92.8068C122.084 92.8068 123.163 93.25 124.05 94.1364C124.936 95 125.357 96.0455 125.311 97.2727C125.288 98.4318 124.822 99.4318 123.913 100.273C123.004 101.114 121.936 101.534 120.709 101.534ZM128.882 163L137.609 110.636H143.507L142.143 118.682H142.689C144.212 115.977 146.325 113.852 149.03 112.307C151.734 110.739 154.803 109.955 158.234 109.955C161.825 109.955 164.643 110.807 166.689 112.511C168.734 114.193 170.098 116.511 170.78 119.466H171.223C172.859 116.557 175.166 114.25 178.143 112.545C181.121 110.818 184.518 109.955 188.337 109.955C193.178 109.955 196.757 111.489 199.075 114.557C201.393 117.625 202.064 122.08 201.087 127.92L195.223 163H189.155L195.018 127.92C195.678 123.784 195.143 120.682 193.416 118.614C191.689 116.545 189.098 115.511 185.643 115.511C181.643 115.511 178.337 116.739 175.723 119.193C173.132 121.625 171.53 124.739 170.916 128.534L165.155 163H158.95L164.916 127.375C165.484 123.83 164.973 120.966 163.382 118.784C161.814 116.602 159.234 115.511 155.643 115.511C153.212 115.511 150.928 116.114 148.791 117.318C146.678 118.5 144.882 120.148 143.405 122.261C141.95 124.352 140.996 126.75 140.541 129.455L134.95 163H128.882ZM232.322 164.091C227.436 164.091 223.402 162.955 220.22 160.682C217.038 158.386 214.811 155.216 213.538 151.17C212.266 147.102 212.072 142.42 212.959 137.125C213.845 131.852 215.595 127.17 218.209 123.08C220.822 118.966 224.05 115.75 227.891 113.432C231.732 111.091 235.902 109.92 240.402 109.92C243.243 109.92 245.902 110.443 248.379 111.489C250.857 112.511 252.959 114.091 254.686 116.227C256.436 118.341 257.652 121.011 258.334 124.239C259.016 127.443 258.993 131.239 258.266 135.625L257.788 138.625H216.879L217.732 133.273H252.47C253.038 129.909 252.879 126.886 251.993 124.205C251.107 121.523 249.595 119.398 247.459 117.83C245.345 116.239 242.72 115.443 239.584 115.443C236.379 115.443 233.345 116.341 230.482 118.136C227.641 119.932 225.232 122.273 223.254 125.159C221.3 128.023 220.038 131.08 219.47 134.33L218.788 138.352C218.061 142.784 218.152 146.5 219.061 149.5C219.97 152.477 221.618 154.727 224.004 156.25C226.391 157.773 229.447 158.534 233.175 158.534C235.675 158.534 237.936 158.148 239.959 157.375C241.982 156.602 243.743 155.568 245.243 154.273C246.743 152.955 247.947 151.511 248.857 149.943L254.277 151.818C253.118 154.023 251.482 156.057 249.368 157.92C247.277 159.784 244.788 161.284 241.902 162.42C239.038 163.534 235.845 164.091 232.322 164.091ZM267.07 163L275.797 110.636H281.695L280.331 118.682H280.774C282.229 116.045 284.399 113.92 287.286 112.307C290.195 110.67 293.297 109.852 296.592 109.852C297.092 109.852 297.649 109.864 298.263 109.886C298.876 109.886 299.388 109.909 299.797 109.955L298.74 116.125C298.467 116.08 297.99 116.011 297.308 115.92C296.649 115.83 295.911 115.784 295.092 115.784C292.365 115.784 289.842 116.364 287.524 117.523C285.229 118.659 283.297 120.239 281.729 122.261C280.183 124.284 279.183 126.591 278.729 129.182L273.138 163H267.07ZM133.331 209.182H139.706L132.07 255.409C131.274 260.159 129.456 264.409 126.615 268.159C123.774 271.886 120.183 274.83 115.842 276.989C111.524 279.125 106.74 280.193 101.49 280.193C96.2628 280.193 91.8423 279.114 88.2287 276.955C84.6151 274.795 82.0014 271.852 80.3878 268.125C78.7741 264.398 78.3651 260.159 79.1605 255.409L86.7969 209.182H93.1719L85.5696 254.966C84.9787 258.67 85.2628 261.977 86.4219 264.886C87.581 267.773 89.5128 270.045 92.2173 271.705C94.9446 273.364 98.331 274.193 102.376 274.193C106.445 274.193 110.126 273.364 113.422 271.705C116.74 270.045 119.467 267.773 121.604 264.886C123.763 261.977 125.149 258.67 125.763 254.966L133.331 209.182ZM174.734 226.636L173.882 231.92H148.859L149.746 226.636H174.734ZM159.598 214.091H165.7L157.178 265.33C156.814 267.511 156.905 269.227 157.45 270.477C157.996 271.705 158.837 272.58 159.973 273.102C161.109 273.602 162.359 273.852 163.723 273.852C164.518 273.852 165.2 273.807 165.768 273.716C166.359 273.602 166.882 273.489 167.337 273.375L167.78 278.864C167.121 279.091 166.337 279.295 165.428 279.477C164.518 279.682 163.428 279.784 162.155 279.784C159.928 279.784 157.871 279.295 155.984 278.318C154.098 277.341 152.666 275.886 151.689 273.955C150.712 272.023 150.45 269.625 150.905 266.761L159.598 214.091ZM179.857 279L188.584 226.636H194.686L185.959 279H179.857ZM193.834 217.534C192.561 217.534 191.482 217.102 190.595 216.239C189.732 215.375 189.311 214.33 189.334 213.102C189.379 211.943 189.845 210.943 190.732 210.102C191.641 209.239 192.709 208.807 193.936 208.807C195.209 208.807 196.288 209.25 197.175 210.136C198.061 211 198.482 212.045 198.436 213.273C198.413 214.432 197.947 215.432 197.038 216.273C196.129 217.114 195.061 217.534 193.834 217.534ZM219.666 209.182L208.075 279H202.007L213.598 209.182H219.666ZM266.132 238.125L260.303 239.625C260.007 238.057 259.462 236.648 258.666 235.398C257.893 234.125 256.768 233.125 255.291 232.398C253.837 231.648 251.928 231.273 249.564 231.273C246.018 231.273 242.962 232.136 240.393 233.864C237.825 235.568 236.325 237.75 235.893 240.409C235.53 242.636 235.996 244.443 237.291 245.83C238.609 247.216 240.814 248.307 243.905 249.102L251.541 251.045C255.768 252.136 258.78 253.841 260.575 256.159C262.393 258.477 263.018 261.409 262.45 264.955C261.95 267.909 260.689 270.523 258.666 272.795C256.666 275.068 254.098 276.852 250.962 278.148C247.848 279.443 244.371 280.091 240.53 280.091C235.371 280.091 231.314 278.932 228.359 276.614C225.428 274.295 223.859 270.955 223.655 266.591L229.757 265.227C229.939 268.318 230.996 270.659 232.928 272.25C234.882 273.841 237.632 274.636 241.178 274.636C245.223 274.636 248.621 273.716 251.371 271.875C254.121 270.034 255.7 267.761 256.109 265.057C256.496 262.92 256.098 261.148 254.916 259.739C253.757 258.33 251.78 257.284 248.984 256.602L240.837 254.557C236.45 253.443 233.348 251.705 231.53 249.341C229.734 246.955 229.132 244.011 229.723 240.511C230.2 237.625 231.405 235.091 233.337 232.909C235.268 230.727 237.712 229.023 240.666 227.795C243.621 226.545 246.848 225.92 250.348 225.92C255.166 225.92 258.837 227.011 261.359 229.193C263.882 231.352 265.473 234.33 266.132 238.125Z"/>
</mask>
<path d="M53.5838 98.9091L54.5384 93.1818H105.163L104.209 98.9091H82.0838L71.4474 163H65.0724L75.7088 98.9091H53.5838ZM106.732 163L115.459 110.636H121.561L112.834 163H106.732ZM120.709 101.534C119.436 101.534 118.357 101.102 117.47 100.239C116.607 99.375 116.186 98.3295 116.209 97.1023C116.254 95.9432 116.72 94.9432 117.607 94.1023C118.516 93.2386 119.584 92.8068 120.811 92.8068C122.084 92.8068 123.163 93.25 124.05 94.1364C124.936 95 125.357 96.0455 125.311 97.2727C125.288 98.4318 124.822 99.4318 123.913 100.273C123.004 101.114 121.936 101.534 120.709 101.534ZM128.882 163L137.609 110.636H143.507L142.143 118.682H142.689C144.212 115.977 146.325 113.852 149.03 112.307C151.734 110.739 154.803 109.955 158.234 109.955C161.825 109.955 164.643 110.807 166.689 112.511C168.734 114.193 170.098 116.511 170.78 119.466H171.223C172.859 116.557 175.166 114.25 178.143 112.545C181.121 110.818 184.518 109.955 188.337 109.955C193.178 109.955 196.757 111.489 199.075 114.557C201.393 117.625 202.064 122.08 201.087 127.92L195.223 163H189.155L195.018 127.92C195.678 123.784 195.143 120.682 193.416 118.614C191.689 116.545 189.098 115.511 185.643 115.511C181.643 115.511 178.337 116.739 175.723 119.193C173.132 121.625 171.53 124.739 170.916 128.534L165.155 163H158.95L164.916 127.375C165.484 123.83 164.973 120.966 163.382 118.784C161.814 116.602 159.234 115.511 155.643 115.511C153.212 115.511 150.928 116.114 148.791 117.318C146.678 118.5 144.882 120.148 143.405 122.261C141.95 124.352 140.996 126.75 140.541 129.455L134.95 163H128.882ZM232.322 164.091C227.436 164.091 223.402 162.955 220.22 160.682C217.038 158.386 214.811 155.216 213.538 151.17C212.266 147.102 212.072 142.42 212.959 137.125C213.845 131.852 215.595 127.17 218.209 123.08C220.822 118.966 224.05 115.75 227.891 113.432C231.732 111.091 235.902 109.92 240.402 109.92C243.243 109.92 245.902 110.443 248.379 111.489C250.857 112.511 252.959 114.091 254.686 116.227C256.436 118.341 257.652 121.011 258.334 124.239C259.016 127.443 258.993 131.239 258.266 135.625L257.788 138.625H216.879L217.732 133.273H252.47C253.038 129.909 252.879 126.886 251.993 124.205C251.107 121.523 249.595 119.398 247.459 117.83C245.345 116.239 242.72 115.443 239.584 115.443C236.379 115.443 233.345 116.341 230.482 118.136C227.641 119.932 225.232 122.273 223.254 125.159C221.3 128.023 220.038 131.08 219.47 134.33L218.788 138.352C218.061 142.784 218.152 146.5 219.061 149.5C219.97 152.477 221.618 154.727 224.004 156.25C226.391 157.773 229.447 158.534 233.175 158.534C235.675 158.534 237.936 158.148 239.959 157.375C241.982 156.602 243.743 155.568 245.243 154.273C246.743 152.955 247.947 151.511 248.857 149.943L254.277 151.818C253.118 154.023 251.482 156.057 249.368 157.92C247.277 159.784 244.788 161.284 241.902 162.42C239.038 163.534 235.845 164.091 232.322 164.091ZM267.07 163L275.797 110.636H281.695L280.331 118.682H280.774C282.229 116.045 284.399 113.92 287.286 112.307C290.195 110.67 293.297 109.852 296.592 109.852C297.092 109.852 297.649 109.864 298.263 109.886C298.876 109.886 299.388 109.909 299.797 109.955L298.74 116.125C298.467 116.08 297.99 116.011 297.308 115.92C296.649 115.83 295.911 115.784 295.092 115.784C292.365 115.784 289.842 116.364 287.524 117.523C285.229 118.659 283.297 120.239 281.729 122.261C280.183 124.284 279.183 126.591 278.729 129.182L273.138 163H267.07ZM133.331 209.182H139.706L132.07 255.409C131.274 260.159 129.456 264.409 126.615 268.159C123.774 271.886 120.183 274.83 115.842 276.989C111.524 279.125 106.74 280.193 101.49 280.193C96.2628 280.193 91.8423 279.114 88.2287 276.955C84.6151 274.795 82.0014 271.852 80.3878 268.125C78.7741 264.398 78.3651 260.159 79.1605 255.409L86.7969 209.182H93.1719L85.5696 254.966C84.9787 258.67 85.2628 261.977 86.4219 264.886C87.581 267.773 89.5128 270.045 92.2173 271.705C94.9446 273.364 98.331 274.193 102.376 274.193C106.445 274.193 110.126 273.364 113.422 271.705C116.74 270.045 119.467 267.773 121.604 264.886C123.763 261.977 125.149 258.67 125.763 254.966L133.331 209.182ZM174.734 226.636L173.882 231.92H148.859L149.746 226.636H174.734ZM159.598 214.091H165.7L157.178 265.33C156.814 267.511 156.905 269.227 157.45 270.477C157.996 271.705 158.837 272.58 159.973 273.102C161.109 273.602 162.359 273.852 163.723 273.852C164.518 273.852 165.2 273.807 165.768 273.716C166.359 273.602 166.882 273.489 167.337 273.375L167.78 278.864C167.121 279.091 166.337 279.295 165.428 279.477C164.518 279.682 163.428 279.784 162.155 279.784C159.928 279.784 157.871 279.295 155.984 278.318C154.098 277.341 152.666 275.886 151.689 273.955C150.712 272.023 150.45 269.625 150.905 266.761L159.598 214.091ZM179.857 279L188.584 226.636H194.686L185.959 279H179.857ZM193.834 217.534C192.561 217.534 191.482 217.102 190.595 216.239C189.732 215.375 189.311 214.33 189.334 213.102C189.379 211.943 189.845 210.943 190.732 210.102C191.641 209.239 192.709 208.807 193.936 208.807C195.209 208.807 196.288 209.25 197.175 210.136C198.061 211 198.482 212.045 198.436 213.273C198.413 214.432 197.947 215.432 197.038 216.273C196.129 217.114 195.061 217.534 193.834 217.534ZM219.666 209.182L208.075 279H202.007L213.598 209.182H219.666ZM266.132 238.125L260.303 239.625C260.007 238.057 259.462 236.648 258.666 235.398C257.893 234.125 256.768 233.125 255.291 232.398C253.837 231.648 251.928 231.273 249.564 231.273C246.018 231.273 242.962 232.136 240.393 233.864C237.825 235.568 236.325 237.75 235.893 240.409C235.53 242.636 235.996 244.443 237.291 245.83C238.609 247.216 240.814 248.307 243.905 249.102L251.541 251.045C255.768 252.136 258.78 253.841 260.575 256.159C262.393 258.477 263.018 261.409 262.45 264.955C261.95 267.909 260.689 270.523 258.666 272.795C256.666 275.068 254.098 276.852 250.962 278.148C247.848 279.443 244.371 280.091 240.53 280.091C235.371 280.091 231.314 278.932 228.359 276.614C225.428 274.295 223.859 270.955 223.655 266.591L229.757 265.227C229.939 268.318 230.996 270.659 232.928 272.25C234.882 273.841 237.632 274.636 241.178 274.636C245.223 274.636 248.621 273.716 251.371 271.875C254.121 270.034 255.7 267.761 256.109 265.057C256.496 262.92 256.098 261.148 254.916 259.739C253.757 258.33 251.78 257.284 248.984 256.602L240.837 254.557C236.45 253.443 233.348 251.705 231.53 249.341C229.734 246.955 229.132 244.011 229.723 240.511C230.2 237.625 231.405 235.091 233.337 232.909C235.268 230.727 237.712 229.023 240.666 227.795C243.621 226.545 246.848 225.92 250.348 225.92C255.166 225.92 258.837 227.011 261.359 229.193C263.882 231.352 265.473 234.33 266.132 238.125Z" fill="white"/>
<path d="M53.5838 98.9091L48.6518 98.0871L47.6815 103.909H53.5838V98.9091ZM54.5384 93.1818V88.1818H50.3027L49.6064 92.3598L54.5384 93.1818ZM105.163 93.1818L110.095 94.0038L111.066 88.1818H105.163V93.1818ZM104.209 98.9091V103.909H108.444L109.141 99.7311L104.209 98.9091ZM82.0838 98.9091V93.9091H77.8452L77.1513 98.0905L82.0838 98.9091ZM71.4474 163V168H75.686L76.38 163.819L71.4474 163ZM65.0724 163L60.1399 162.181L59.1743 168H65.0724V163ZM75.7088 98.9091L80.6413 99.7277L81.607 93.9091H75.7088V98.9091ZM53.5838 98.9091L58.5158 99.7311L59.4703 94.0038L54.5384 93.1818L49.6064 92.3598L48.6518 98.0871L53.5838 98.9091ZM54.5384 93.1818V98.1818H105.163V93.1818V88.1818H54.5384V93.1818ZM105.163 93.1818L100.231 92.3598L99.2768 98.0871L104.209 98.9091L109.141 99.7311L110.095 94.0038L105.163 93.1818ZM104.209 98.9091V93.9091H82.0838V98.9091V103.909H104.209V98.9091ZM82.0838 98.9091L77.1513 98.0905L66.5149 162.181L71.4474 163L76.38 163.819L87.0163 99.7277L82.0838 98.9091ZM71.4474 163V158H65.0724V163V168H71.4474V163ZM65.0724 163L70.005 163.819L80.6413 99.7277L75.7088 98.9091L70.7763 98.0905L60.1399 162.181L65.0724 163ZM75.7088 98.9091V93.9091H53.5838V98.9091V103.909H75.7088V98.9091ZM106.732 163L101.8 162.178L100.829 168H106.732V163ZM115.459 110.636V105.636H111.223L110.527 109.814L115.459 110.636ZM121.561 110.636L126.493 111.458L127.463 105.636H121.561V110.636ZM112.834 163V168H117.069L117.766 163.822L112.834 163ZM117.47 100.239L113.935 103.774L113.958 103.797L113.981 103.82L117.47 100.239ZM116.209 97.1023L111.213 96.9063L111.211 96.958L111.21 97.0097L116.209 97.1023ZM117.607 94.1023L121.048 97.7296L121.05 97.7273L117.607 94.1023ZM124.05 94.1364L120.514 97.6719L120.537 97.6949L120.56 97.7175L124.05 94.1364ZM125.311 97.2727L120.315 97.0877L120.313 97.1312L120.312 97.1747L125.311 97.2727ZM106.732 163L111.664 163.822L120.391 111.458L115.459 110.636L110.527 109.814L101.8 162.178L106.732 163ZM115.459 110.636V115.636H121.561V110.636V105.636H115.459V110.636ZM121.561 110.636L116.629 109.814L107.902 162.178L112.834 163L117.766 163.822L126.493 111.458L121.561 110.636ZM112.834 163V158H106.732V163V168H112.834V163ZM120.709 101.534V96.5341C120.674 96.5341 120.671 96.5312 120.693 96.5353C120.716 96.5395 120.755 96.5491 120.802 96.5678C120.849 96.5867 120.89 96.6091 120.922 96.6303C120.954 96.6512 120.966 96.6638 120.959 96.6575L117.47 100.239L113.981 103.82C115.83 105.622 118.174 106.534 120.709 106.534V101.534ZM117.47 100.239L121.006 96.7031C121.004 96.7012 121.024 96.7215 121.054 96.7662C121.085 96.8118 121.118 96.8712 121.146 96.9412C121.207 97.0941 121.208 97.1985 121.208 97.1948L116.209 97.1023L111.21 97.0097C111.162 99.5872 112.105 101.945 113.935 103.774L117.47 100.239ZM116.209 97.1023L121.205 97.2982C121.204 97.3161 121.201 97.3572 121.187 97.4151C121.173 97.4736 121.152 97.5352 121.125 97.5946C121.065 97.7219 121.011 97.7642 121.048 97.7296L117.607 94.1023L114.165 90.4749C112.389 92.1602 111.312 94.3696 111.213 96.9063L116.209 97.1023ZM117.607 94.1023L121.05 97.7273C121.073 97.7054 121.077 97.7058 121.058 97.7178C121.039 97.7303 121.007 97.7486 120.963 97.7662C120.92 97.7839 120.878 97.7953 120.845 97.8016C120.812 97.8078 120.799 97.8068 120.811 97.8068V92.8068V87.8068C118.271 87.8068 115.979 88.7522 114.163 90.4773L117.607 94.1023ZM120.811 92.8068V97.8068C120.838 97.8068 120.833 97.8091 120.804 97.8035C120.773 97.7977 120.728 97.7859 120.676 97.7646C120.625 97.7433 120.581 97.7187 120.548 97.6964C120.516 97.6747 120.505 97.6627 120.514 97.6719L124.05 94.1364L127.585 90.6008C125.745 88.7608 123.387 87.8068 120.811 87.8068V92.8068ZM124.05 94.1364L120.56 97.7175C120.562 97.7187 120.537 97.6948 120.501 97.6425C120.465 97.5891 120.425 97.5186 120.391 97.4338C120.317 97.249 120.314 97.1114 120.315 97.0877L125.311 97.2727L130.308 97.4578C130.406 94.8062 129.429 92.3962 127.539 90.5552L124.05 94.1364ZM125.311 97.2727L120.312 97.1747C120.314 97.094 120.336 96.9437 120.412 96.7804C120.485 96.624 120.554 96.5688 120.518 96.6022L123.913 100.273L127.309 103.943C129.14 102.249 130.259 99.9892 130.31 97.3707L125.311 97.2727ZM123.913 100.273L120.518 96.6022C120.497 96.6214 120.495 96.6205 120.513 96.6093C120.531 96.5977 120.56 96.5814 120.599 96.5662C120.638 96.551 120.673 96.5418 120.699 96.5371C120.724 96.5325 120.729 96.5341 120.709 96.5341V101.534V106.534C123.207 106.534 125.485 105.63 127.309 103.943L123.913 100.273ZM128.882 163L123.95 162.178L122.98 168H128.882V163ZM137.609 110.636V105.636H133.374L132.677 109.814L137.609 110.636ZM143.507 110.636L148.437 111.472L149.426 105.636H143.507V110.636ZM142.143 118.682L137.214 117.846L136.225 123.682H142.143V118.682ZM142.689 118.682V123.682H145.612L147.046 121.135L142.689 118.682ZM149.03 112.307L151.511 116.648L151.524 116.64L151.538 116.632L149.03 112.307ZM166.689 112.511L163.488 116.352L163.501 116.363L163.513 116.373L166.689 112.511ZM170.78 119.466L165.908 120.59L166.802 124.466H170.78V119.466ZM171.223 119.466V124.466H174.147L175.581 121.917L171.223 119.466ZM178.143 112.545L180.628 116.885L180.64 116.878L180.653 116.87L178.143 112.545ZM199.075 114.557L203.065 111.543L203.065 111.543L199.075 114.557ZM201.087 127.92L196.155 127.095L196.155 127.096L201.087 127.92ZM195.223 163V168H199.457L200.155 163.824L195.223 163ZM189.155 163L184.223 162.176L183.25 168H189.155V163ZM195.018 127.92L199.95 128.745L199.953 128.726L199.956 128.707L195.018 127.92ZM175.723 119.193L179.145 122.839L179.146 122.838L175.723 119.193ZM170.916 128.534L175.848 129.358L175.85 129.345L175.852 129.332L170.916 128.534ZM165.155 163V168H169.388L170.086 163.824L165.155 163ZM158.95 163L154.019 162.174L153.043 168H158.95V163ZM164.916 127.375L169.848 128.201L169.85 128.184L169.853 128.166L164.916 127.375ZM163.382 118.784L159.322 121.702L159.332 121.716L159.342 121.73L163.382 118.784ZM148.791 117.318L151.231 121.682L151.239 121.678L151.247 121.674L148.791 117.318ZM143.405 122.261L139.307 119.397L139.3 119.406L143.405 122.261ZM140.541 129.455L135.61 128.626L135.609 128.633L140.541 129.455ZM134.95 163V168H139.186L139.882 163.822L134.95 163ZM128.882 163L133.814 163.822L142.541 111.458L137.609 110.636L132.677 109.814L123.95 162.178L128.882 163ZM137.609 110.636V115.636H143.507V110.636V105.636H137.609V110.636ZM143.507 110.636L138.577 109.801L137.214 117.846L142.143 118.682L147.073 119.517L148.437 111.472L143.507 110.636ZM142.143 118.682V123.682H142.689V118.682V113.682H142.143V118.682ZM142.689 118.682L147.046 121.135C148.124 119.221 149.588 117.747 151.511 116.648L149.03 112.307L146.549 107.966C143.063 109.958 140.3 112.734 138.332 116.229L142.689 118.682ZM149.03 112.307L151.538 116.632C153.407 115.548 155.595 114.955 158.234 114.955V109.955V104.955C154.01 104.955 150.061 105.929 146.522 107.981L149.03 112.307ZM158.234 109.955V114.955C161.064 114.955 162.612 115.622 163.488 116.352L166.689 112.511L169.89 108.67C166.675 105.991 162.586 104.955 158.234 104.955V109.955ZM166.689 112.511L163.513 116.373C164.586 117.255 165.436 118.547 165.908 120.59L170.78 119.466L175.652 118.342C174.76 114.475 172.883 111.131 169.864 108.649L166.689 112.511ZM170.78 119.466V124.466H171.223V119.466V114.466H170.78V119.466ZM171.223 119.466L175.581 121.917C176.762 119.818 178.411 118.154 180.628 116.885L178.143 112.545L175.659 108.206C171.921 110.346 168.957 113.296 166.865 117.015L171.223 119.466ZM178.143 112.545L180.653 116.87C182.786 115.632 185.301 114.955 188.337 114.955V109.955V104.955C183.736 104.955 179.455 106.004 175.634 108.221L178.143 112.545ZM188.337 109.955V114.955C192.058 114.955 193.954 116.073 195.086 117.571L199.075 114.557L203.065 111.543C199.56 106.905 194.297 104.955 188.337 104.955V109.955ZM199.075 114.557L195.086 117.571C196.22 119.071 197.026 121.888 196.155 127.095L201.087 127.92L206.018 128.746C207.101 122.271 206.567 116.179 203.065 111.543L199.075 114.557ZM201.087 127.92L196.155 127.096L190.291 162.176L195.223 163L200.155 163.824L206.018 128.745L201.087 127.92ZM195.223 163V158H189.155V163V168H195.223V163ZM189.155 163L194.086 163.824L199.95 128.745L195.018 127.92L190.087 127.096L184.223 162.176L189.155 163ZM195.018 127.92L199.956 128.707C200.717 123.931 200.319 119.078 197.254 115.409L193.416 118.614L189.579 121.819C189.968 122.285 190.638 123.637 190.081 127.134L195.018 127.92ZM193.416 118.614L197.254 115.409C194.321 111.897 190.129 110.511 185.643 110.511V115.511V120.511C188.067 120.511 189.057 121.194 189.579 121.819L193.416 118.614ZM185.643 115.511V110.511C180.531 110.511 175.951 112.12 172.3 115.548L175.723 119.193L179.146 122.838C180.722 121.357 182.756 120.511 185.643 120.511V115.511ZM175.723 119.193L172.301 115.547C168.837 118.799 166.755 122.945 165.98 127.736L170.916 128.534L175.852 129.332C176.305 126.532 177.427 124.451 179.145 122.839L175.723 119.193ZM170.916 128.534L165.985 127.71L160.223 162.176L165.155 163L170.086 163.824L175.848 129.358L170.916 128.534ZM165.155 163V158H158.95V163V168H165.155V163ZM158.95 163L163.882 163.826L169.848 128.201L164.916 127.375L159.985 126.549L154.019 162.174L158.95 163ZM164.916 127.375L169.853 128.166C170.56 123.754 170.031 119.415 167.422 115.838L163.382 118.784L159.342 121.73C159.916 122.516 160.409 123.905 159.979 126.584L164.916 127.375ZM163.382 118.784L167.442 115.866C164.636 111.961 160.253 110.511 155.643 110.511V115.511V120.511C158.216 120.511 158.992 121.243 159.322 121.702L163.382 118.784ZM155.643 115.511V110.511C152.344 110.511 149.215 111.339 146.335 112.963L148.791 117.318L151.247 121.674C152.64 120.888 154.08 120.511 155.643 120.511V115.511ZM148.791 117.318L146.351 112.954C143.536 114.528 141.188 116.706 139.307 119.397L143.405 122.261L147.503 125.126C148.577 123.59 149.819 122.472 151.231 121.682L148.791 117.318ZM143.405 122.261L139.3 119.406C137.392 122.149 136.178 125.25 135.61 128.626L140.541 129.455L145.472 130.283C145.814 128.25 146.508 126.556 147.509 125.117L143.405 122.261ZM140.541 129.455L135.609 128.633L130.018 162.178L134.95 163L139.882 163.822L145.473 130.277L140.541 129.455ZM134.95 163V158H128.882V163V168H134.95V163ZM220.22 160.682L217.295 164.737L217.304 164.744L217.314 164.75L220.22 160.682ZM213.538 151.17L208.766 152.663L208.769 152.671L213.538 151.17ZM212.959 137.125L208.028 136.296L208.027 136.3L212.959 137.125ZM218.209 123.08L222.422 125.771L222.429 125.761L218.209 123.08ZM227.891 113.432L230.474 117.713L230.484 117.707L230.493 117.701L227.891 113.432ZM248.379 111.489L246.435 116.095L246.453 116.103L246.471 116.11L248.379 111.489ZM254.686 116.227L250.798 119.371L250.816 119.394L250.835 119.416L254.686 116.227ZM258.334 124.239L253.442 125.272L253.443 125.279L258.334 124.239ZM258.266 135.625L253.333 134.807L253.33 134.823L253.328 134.839L258.266 135.625ZM257.788 138.625V143.625H262.056L262.726 139.411L257.788 138.625ZM216.879 138.625L211.941 137.839L211.02 143.625H216.879V138.625ZM217.732 133.273V128.273H213.465L212.794 132.486L217.732 133.273ZM252.47 133.273V138.273H256.696L257.4 134.106L252.47 133.273ZM251.993 124.205L247.245 125.774L247.245 125.774L251.993 124.205ZM247.459 117.83L244.452 121.824L244.476 121.842L244.5 121.86L247.459 117.83ZM230.482 118.136L227.825 113.9L227.818 113.905L227.81 113.91L230.482 118.136ZM223.254 125.159L219.129 122.333L219.125 122.34L223.254 125.159ZM219.47 134.33L214.545 133.468L214.543 133.481L214.54 133.494L219.47 134.33ZM218.788 138.352L213.859 137.517L213.856 137.53L213.854 137.543L218.788 138.352ZM219.061 149.5L214.276 150.95L214.279 150.96L219.061 149.5ZM224.004 156.25L221.315 160.465L221.315 160.465L224.004 156.25ZM239.959 157.375L241.743 162.046L241.743 162.046L239.959 157.375ZM245.243 154.273L248.511 158.057L248.527 158.043L248.543 158.029L245.243 154.273ZM248.857 149.943L250.491 145.218L246.597 143.871L244.531 147.436L248.857 149.943ZM254.277 151.818L258.703 154.145L261.41 148.995L255.912 147.093L254.277 151.818ZM249.368 157.92L246.061 154.17L246.051 154.179L246.041 154.188L249.368 157.92ZM241.902 162.42L243.714 167.08L243.724 167.077L243.734 167.073L241.902 162.42ZM232.322 164.091V159.091C228.216 159.091 225.269 158.144 223.126 156.613L220.22 160.682L217.314 164.75C221.535 167.766 226.657 169.091 232.322 169.091V164.091ZM220.22 160.682L223.146 156.627C220.91 155.014 219.285 152.776 218.308 149.67L213.538 151.17L208.769 152.671C210.337 157.656 213.167 161.759 217.295 164.737L220.22 160.682ZM213.538 151.17L218.31 149.678C217.325 146.528 217.101 142.667 217.89 137.95L212.959 137.125L208.027 136.3C207.044 142.173 207.206 147.676 208.766 152.663L213.538 151.17ZM212.959 137.125L217.89 137.954C218.676 133.277 220.206 129.241 222.422 125.771L218.209 123.08L213.995 120.388C210.985 125.1 209.014 130.428 208.028 136.296L212.959 137.125ZM218.209 123.08L222.429 125.761C224.665 122.242 227.351 119.598 230.474 117.713L227.891 113.432L225.307 109.151C220.748 111.902 216.98 115.689 213.989 120.398L218.209 123.08ZM227.891 113.432L230.493 117.701C233.549 115.838 236.82 114.92 240.402 114.92V109.92V104.92C234.984 104.92 229.914 106.343 225.288 109.162L227.891 113.432ZM240.402 109.92V114.92C242.613 114.92 244.608 115.324 246.435 116.095L248.379 111.489L250.323 106.882C247.196 105.562 243.872 104.92 240.402 104.92V109.92ZM248.379 111.489L246.471 116.11C248.155 116.806 249.583 117.868 250.798 119.371L254.686 116.227L258.574 113.084C256.335 110.314 253.558 108.217 250.287 106.867L248.379 111.489ZM254.686 116.227L250.835 119.416C251.974 120.792 252.894 122.678 253.442 125.272L258.334 124.239L263.226 123.205C262.41 119.345 260.898 115.89 258.537 113.039L254.686 116.227ZM258.334 124.239L253.443 125.279C253.958 127.697 253.992 130.831 253.333 134.807L258.266 135.625L263.198 136.443C263.994 131.646 264.074 127.19 263.224 123.198L258.334 124.239ZM258.266 135.625L253.328 134.839L252.85 137.839L257.788 138.625L262.726 139.411L263.204 136.411L258.266 135.625ZM257.788 138.625V133.625H216.879V138.625V143.625H257.788V138.625ZM216.879 138.625L221.817 139.411L222.669 134.059L217.732 133.273L212.794 132.486L211.941 137.839L216.879 138.625ZM217.732 133.273V138.273H252.47V133.273V128.273H217.732V133.273ZM252.47 133.273L257.4 134.106C258.076 130.104 257.93 126.236 256.74 122.635L251.993 124.205L247.245 125.774C247.828 127.537 248 129.714 247.54 132.44L252.47 133.273ZM251.993 124.205L256.74 122.635C255.551 119.036 253.448 116.023 250.417 113.799L247.459 117.83L244.5 121.86C245.743 122.772 246.662 124.01 247.245 125.774L251.993 124.205ZM247.459 117.83L250.466 113.835C247.333 111.477 243.597 110.443 239.584 110.443V115.443V120.443C241.843 120.443 243.358 121.001 244.452 121.824L247.459 117.83ZM239.584 115.443V110.443C235.387 110.443 231.44 111.634 227.825 113.9L230.482 118.136L233.138 122.373C235.251 121.048 237.371 120.443 239.584 120.443V115.443ZM230.482 118.136L227.81 113.91C224.371 116.083 221.475 118.91 219.129 122.333L223.254 125.159L227.379 127.985C228.988 125.636 230.91 123.78 233.153 122.363L230.482 118.136ZM223.254 125.159L219.125 122.34C216.789 125.762 215.242 129.481 214.545 133.468L219.47 134.33L224.395 135.191C224.835 132.678 225.81 130.284 227.384 127.978L223.254 125.159ZM219.47 134.33L214.54 133.494L213.859 137.517L218.788 138.352L223.718 139.188L224.4 135.165L219.47 134.33ZM218.788 138.352L213.854 137.543C213.053 142.425 213.07 146.972 214.276 150.95L219.061 149.5L223.846 148.05C223.234 146.028 223.069 143.143 223.722 139.162L218.788 138.352ZM219.061 149.5L214.279 150.96C215.498 154.954 217.823 158.237 221.315 160.465L224.004 156.25L226.694 152.035C225.413 151.218 224.442 150.001 223.843 148.04L219.061 149.5ZM224.004 156.25L221.315 160.465C224.722 162.639 228.79 163.534 233.175 163.534V158.534V153.534C230.105 153.534 228.059 152.906 226.694 152.035L224.004 156.25ZM233.175 158.534V163.534C236.192 163.534 239.07 163.067 241.743 162.046L239.959 157.375L238.174 152.704C236.802 153.228 235.158 153.534 233.175 153.534V158.534ZM239.959 157.375L241.743 162.046C244.258 161.085 246.533 159.765 248.511 158.057L245.243 154.273L241.975 150.489C240.953 151.371 239.705 152.12 238.174 152.704L239.959 157.375ZM245.243 154.273L248.543 158.029C250.409 156.389 251.975 154.533 253.182 152.451L248.857 149.943L244.531 147.436C243.92 148.49 243.076 149.52 241.942 150.517L245.243 154.273ZM248.857 149.943L247.222 154.668L252.642 156.543L254.277 151.818L255.912 147.093L250.491 145.218L248.857 149.943ZM254.277 151.818L249.851 149.491C249.01 151.091 247.778 152.656 246.061 154.17L249.368 157.92L252.675 161.671C255.185 159.457 257.226 156.954 258.703 154.145L254.277 151.818ZM249.368 157.92L246.041 154.188C244.435 155.619 242.467 156.825 240.07 157.768L241.902 162.42L243.734 167.073C247.11 165.744 250.119 163.949 252.695 161.653L249.368 157.92ZM241.902 162.42L240.09 157.76C237.882 158.619 235.315 159.091 232.322 159.091V164.091V169.091C236.375 169.091 240.195 168.449 243.714 167.08L241.902 162.42ZM267.07 163L262.138 162.178L261.167 168H267.07V163ZM275.797 110.636V105.636H271.561L270.865 109.814L275.797 110.636ZM281.695 110.636L286.624 111.472L287.613 105.636H281.695V110.636ZM280.331 118.682L275.401 117.846L274.412 123.682H280.331V118.682ZM280.774 118.682V123.682H283.726L285.152 121.097L280.774 118.682ZM287.286 112.307L289.725 116.671L289.737 116.665L287.286 112.307ZM298.263 109.886L298.078 114.883L298.17 114.886H298.263V109.886ZM299.797 109.955L304.725 110.799L305.62 105.571L300.349 104.985L299.797 109.955ZM298.74 116.125L297.918 121.057L302.828 121.875L303.668 116.969L298.74 116.125ZM297.308 115.92L296.625 120.874L296.636 120.875L296.647 120.877L297.308 115.92ZM287.524 117.523L289.742 122.004L289.751 121.999L289.76 121.995L287.524 117.523ZM281.729 122.261L277.777 119.198L277.766 119.212L277.756 119.226L281.729 122.261ZM278.729 129.182L273.804 128.318L273.8 128.342L273.796 128.366L278.729 129.182ZM273.138 163V168H277.379L278.071 163.816L273.138 163ZM267.07 163L272.002 163.822L280.729 111.458L275.797 110.636L270.865 109.814L262.138 162.178L267.07 163ZM275.797 110.636V115.636H281.695V110.636V105.636H275.797V110.636ZM281.695 110.636L276.765 109.801L275.401 117.846L280.331 118.682L285.261 119.517L286.624 111.472L281.695 110.636ZM280.331 118.682V123.682H280.774V118.682V113.682H280.331V118.682ZM280.774 118.682L285.152 121.097C286.112 119.358 287.572 117.875 289.725 116.671L287.286 112.307L284.846 107.943C281.227 109.966 278.346 112.733 276.396 116.266L280.774 118.682ZM287.286 112.307L289.737 116.665C291.908 115.444 294.167 114.852 296.592 114.852V109.852V104.852C292.427 104.852 288.482 105.897 284.834 107.949L287.286 112.307ZM296.592 109.852V114.852C297.019 114.852 297.512 114.862 298.078 114.883L298.263 109.886L298.448 104.89C297.786 104.865 297.166 104.852 296.592 104.852V109.852ZM298.263 109.886V114.886C298.772 114.886 299.084 114.906 299.245 114.924L299.797 109.955L300.349 104.985C299.691 104.912 298.981 104.886 298.263 104.886V109.886ZM299.797 109.955L294.869 109.11L293.812 115.281L298.74 116.125L303.668 116.969L304.725 110.799L299.797 109.955ZM298.74 116.125L299.562 111.193C299.2 111.133 298.649 111.055 297.969 110.964L297.308 115.92L296.647 120.877C297.331 120.968 297.735 121.026 297.918 121.057L298.74 116.125ZM297.308 115.92L297.991 110.967C297.062 110.839 296.089 110.784 295.092 110.784V115.784V120.784C295.732 120.784 296.237 120.82 296.625 120.874L297.308 115.92ZM295.092 115.784V110.784C291.631 110.784 288.337 111.526 285.288 113.051L287.524 117.523L289.76 121.995C291.348 121.201 293.1 120.784 295.092 120.784V115.784ZM287.524 117.523L285.306 113.042C282.333 114.513 279.809 116.577 277.777 119.198L281.729 122.261L285.68 125.325C286.785 123.9 288.124 122.805 289.742 122.004L287.524 117.523ZM281.729 122.261L277.756 119.226C275.707 121.907 274.392 124.964 273.804 128.318L278.729 129.182L283.653 130.046C283.974 128.217 284.66 126.661 285.702 125.297L281.729 122.261ZM278.729 129.182L273.796 128.366L268.205 162.184L273.138 163L278.071 163.816L283.662 129.997L278.729 129.182ZM273.138 163V158H267.07V163V168H273.138V163ZM133.331 209.182V204.182H129.09L128.398 208.366L133.331 209.182ZM139.706 209.182L144.639 209.997L145.6 204.182H139.706V209.182ZM132.07 255.409L137.001 256.235L137.003 256.224L132.07 255.409ZM126.615 268.159L130.592 271.19L130.596 271.184L130.601 271.178L126.615 268.159ZM115.842 276.989L118.06 281.47L118.069 281.465L115.842 276.989ZM88.2287 276.955L90.7932 272.662L90.7932 272.662L88.2287 276.955ZM80.3878 268.125L84.9762 266.139L84.9762 266.139L80.3878 268.125ZM79.1605 255.409L84.0919 256.235L84.0937 256.224L79.1605 255.409ZM86.7969 209.182V204.182H82.5551L81.8637 208.367L86.7969 209.182ZM93.1719 209.182L98.1043 210.001L99.0706 204.182H93.1719V209.182ZM85.5696 254.966L80.6371 254.147L80.6345 254.163L80.632 254.178L85.5696 254.966ZM86.4219 264.886L81.777 266.737L81.782 266.75L86.4219 264.886ZM92.2173 271.705L89.6028 275.967L89.6108 275.971L89.6187 275.976L92.2173 271.705ZM113.422 271.705L111.186 267.232L111.173 267.239L113.422 271.705ZM121.604 264.886L117.589 261.906L117.585 261.912L121.604 264.886ZM125.763 254.966L130.696 255.783L130.696 255.781L125.763 254.966ZM133.331 209.182V214.182H139.706V209.182V204.182H133.331V209.182ZM139.706 209.182L134.773 208.367L127.136 254.594L132.07 255.409L137.003 256.224L144.639 209.997L139.706 209.182ZM132.07 255.409L127.138 254.583C126.473 258.556 124.971 262.049 122.63 265.14L126.615 268.159L130.601 271.178C133.941 266.769 136.075 261.762 137.001 256.235L132.07 255.409ZM126.615 268.159L122.638 265.128C120.279 268.224 117.295 270.682 113.616 272.512L115.842 276.989L118.069 281.465C123.072 278.977 127.27 275.548 130.592 271.19L126.615 268.159ZM115.842 276.989L113.625 272.507C110.057 274.273 106.041 275.193 101.49 275.193V280.193V285.193C107.439 285.193 112.992 283.977 118.06 281.47L115.842 276.989ZM101.49 280.193V275.193C96.949 275.193 93.4645 274.258 90.7932 272.662L88.2287 276.955L85.6642 281.247C90.2201 283.969 95.5766 285.193 101.49 285.193V280.193ZM88.2287 276.955L90.7932 272.662C88.0442 271.02 86.1576 268.867 84.9762 266.139L80.3878 268.125L75.7993 270.111C77.8452 274.837 81.1859 278.571 85.6642 281.247L88.2287 276.955ZM80.3878 268.125L84.9762 266.139C83.812 263.449 83.4256 260.213 84.0918 256.235L79.1605 255.409L74.2292 254.583C73.3045 260.105 73.7363 265.346 75.7993 270.111L80.3878 268.125ZM79.1605 255.409L84.0937 256.224L91.73 209.997L86.7969 209.182L81.8637 208.367L74.2274 254.594L79.1605 255.409ZM86.7969 209.182V214.182H93.1719V209.182V204.182H86.7969V209.182ZM93.1719 209.182L88.2394 208.363L80.6371 254.147L85.5696 254.966L90.5021 255.785L98.1043 210.001L93.1719 209.182ZM85.5696 254.966L80.632 254.178C79.9274 258.596 80.2238 262.839 81.777 266.737L86.4219 264.886L91.0668 263.036C90.3017 261.116 90.03 258.745 90.5072 255.753L85.5696 254.966ZM86.4219 264.886L81.782 266.75C83.3498 270.654 86.0029 273.758 89.6028 275.967L92.2173 271.705L94.8318 267.443C93.0226 266.333 91.8122 264.892 91.0617 263.023L86.4219 264.886ZM92.2173 271.705L89.6187 275.976C93.3129 278.224 97.6565 279.193 102.376 279.193V274.193V269.193C99.0055 269.193 96.5763 268.504 94.8159 267.433L92.2173 271.705ZM102.376 274.193V279.193C107.144 279.193 111.608 278.216 115.67 276.171L113.422 271.705L111.173 267.239C108.645 268.512 105.745 269.193 102.376 269.193V274.193ZM113.422 271.705L115.658 276.177C119.656 274.178 123.002 271.401 125.623 267.861L121.604 264.886L117.585 261.912C115.932 264.144 113.824 265.913 111.186 267.232L113.422 271.705ZM121.604 264.886L125.619 267.866C128.269 264.296 129.957 260.242 130.696 255.783L125.763 254.966L120.83 254.149C120.341 257.099 119.257 259.659 117.589 261.906L121.604 264.886ZM125.763 254.966L130.696 255.781L138.264 209.997L133.331 209.182L128.398 208.366L120.83 254.15L125.763 254.966ZM174.734 226.636L179.671 227.433L180.605 221.636H174.734V226.636ZM173.882 231.92V236.92H178.14L178.818 232.717L173.882 231.92ZM148.859 231.92L143.928 231.093L142.951 236.92H148.859V231.92ZM149.746 226.636V221.636H145.515L144.815 225.809L149.746 226.636ZM159.598 214.091V209.091H155.356L154.665 213.277L159.598 214.091ZM165.7 214.091L170.633 214.911L171.601 209.091H165.7V214.091ZM157.178 265.33L162.11 266.152L162.11 266.15L157.178 265.33ZM157.45 270.477L152.868 272.477L152.874 272.493L152.881 272.508L157.45 270.477ZM159.973 273.102L157.883 277.645L157.921 277.662L157.959 277.679L159.973 273.102ZM165.768 273.716L166.558 278.653L166.636 278.641L166.713 278.626L165.768 273.716ZM167.337 273.375L172.32 272.973L171.846 267.094L166.124 268.524L167.337 273.375ZM167.78 278.864L169.41 283.591L173.076 282.326L172.764 278.461L167.78 278.864ZM165.428 279.477L164.447 274.574L164.388 274.586L164.33 274.599L165.428 279.477ZM155.984 278.318L153.684 282.758L153.684 282.758L155.984 278.318ZM151.689 273.955L156.151 271.698L156.151 271.698L151.689 273.955ZM150.905 266.761L145.972 265.947L145.969 265.962L145.967 265.978L150.905 266.761ZM174.734 226.636L169.798 225.84L168.946 231.124L173.882 231.92L178.818 232.717L179.671 227.433L174.734 226.636ZM173.882 231.92V226.92H148.859V231.92V236.92H173.882V231.92ZM148.859 231.92L153.79 232.748L154.677 227.464L149.746 226.636L144.815 225.809L143.928 231.093L148.859 231.92ZM149.746 226.636V231.636H174.734V226.636V221.636H149.746V226.636ZM159.598 214.091V219.091H165.7V214.091V209.091H159.598V214.091ZM165.7 214.091L160.768 213.271L152.245 264.509L157.178 265.33L162.11 266.15L170.633 214.911L165.7 214.091ZM157.178 265.33L152.246 264.508C151.813 267.106 151.763 269.946 152.868 272.477L157.45 270.477L162.033 268.478C162.053 268.524 161.988 268.397 161.966 267.988C161.944 267.58 161.971 266.98 162.11 266.152L157.178 265.33ZM157.45 270.477L152.881 272.508C153.881 274.757 155.558 276.575 157.883 277.645L159.973 273.102L162.063 268.56C162.048 268.553 162.05 268.553 162.062 268.561C162.074 268.57 162.086 268.58 162.095 268.589C162.104 268.598 162.101 268.597 162.089 268.579C162.076 268.56 162.051 268.519 162.019 268.447L157.45 270.477ZM159.973 273.102L157.959 277.679C159.79 278.484 161.735 278.852 163.723 278.852V273.852V268.852C162.984 268.852 162.428 268.72 161.987 268.526L159.973 273.102ZM163.723 273.852V278.852C164.691 278.852 165.652 278.798 166.558 278.653L165.768 273.716L164.979 268.779C164.749 268.815 164.346 268.852 163.723 268.852V273.852ZM165.768 273.716L166.713 278.626C167.37 278.5 167.985 278.367 168.549 278.226L167.337 273.375L166.124 268.524C165.779 268.611 165.349 268.705 164.824 268.806L165.768 273.716ZM167.337 273.375L162.353 273.777L162.796 279.266L167.78 278.864L172.764 278.461L172.32 272.973L167.337 273.375ZM167.78 278.864L166.15 274.137C165.759 274.272 165.203 274.423 164.447 274.574L165.428 279.477L166.408 284.38C167.47 284.168 168.482 283.91 169.41 283.591L167.78 278.864ZM165.428 279.477L164.33 274.599C163.885 274.699 163.182 274.784 162.155 274.784V279.784V284.784C163.673 284.784 165.152 284.664 166.525 284.355L165.428 279.477ZM162.155 279.784V274.784C160.688 274.784 159.425 274.47 158.284 273.879L155.984 278.318L153.684 282.758C156.316 284.121 159.167 284.784 162.155 284.784V279.784ZM155.984 278.318L158.284 273.879C157.349 273.394 156.664 272.712 156.151 271.698L151.689 273.955L147.227 276.212C148.669 279.061 150.847 281.288 153.684 282.758L155.984 278.318ZM151.689 273.955L156.151 271.698C155.785 270.976 155.498 269.718 155.843 267.545L150.905 266.761L145.967 265.978C145.402 269.532 145.638 273.07 147.227 276.212L151.689 273.955ZM150.905 266.761L155.838 267.576L164.531 214.905L159.598 214.091L154.665 213.277L145.972 265.947L150.905 266.761ZM179.857 279L174.925 278.178L173.954 284H179.857V279ZM188.584 226.636V221.636H184.348L183.652 225.814L188.584 226.636ZM194.686 226.636L199.618 227.458L200.588 221.636H194.686V226.636ZM185.959 279V284H190.194L190.891 279.822L185.959 279ZM190.595 216.239L187.06 219.774L187.083 219.797L187.106 219.82L190.595 216.239ZM189.334 213.102L184.338 212.906L184.336 212.958L184.335 213.01L189.334 213.102ZM190.732 210.102L194.173 213.73L194.175 213.727L190.732 210.102ZM197.175 210.136L193.639 213.672L193.662 213.695L193.685 213.718L197.175 210.136ZM198.436 213.273L193.44 213.088L193.438 213.131L193.437 213.175L198.436 213.273ZM179.857 279L184.789 279.822L193.516 227.458L188.584 226.636L183.652 225.814L174.925 278.178L179.857 279ZM188.584 226.636V231.636H194.686V226.636V221.636H188.584V226.636ZM194.686 226.636L189.754 225.814L181.027 278.178L185.959 279L190.891 279.822L199.618 227.458L194.686 226.636ZM185.959 279V274H179.857V279V284H185.959V279ZM193.834 217.534V212.534C193.799 212.534 193.796 212.531 193.818 212.535C193.841 212.54 193.88 212.549 193.927 212.568C193.974 212.587 194.015 212.609 194.047 212.63C194.079 212.651 194.091 212.664 194.084 212.657L190.595 216.239L187.106 219.82C188.955 221.622 191.299 222.534 193.834 222.534V217.534ZM190.595 216.239L194.131 212.703C194.129 212.701 194.149 212.721 194.179 212.766C194.21 212.812 194.243 212.871 194.271 212.941C194.332 213.094 194.333 213.199 194.333 213.195L189.334 213.102L184.335 213.01C184.287 215.587 185.23 217.945 187.06 219.774L190.595 216.239ZM189.334 213.102L194.33 213.298C194.329 213.316 194.326 213.357 194.312 213.415C194.298 213.474 194.277 213.535 194.25 213.595C194.19 213.722 194.136 213.764 194.173 213.73L190.732 210.102L187.29 206.475C185.514 208.16 184.437 210.37 184.338 212.906L189.334 213.102ZM190.732 210.102L194.175 213.727C194.198 213.705 194.202 213.706 194.183 213.718C194.164 213.73 194.132 213.749 194.088 213.766C194.045 213.784 194.003 213.795 193.97 213.802C193.937 213.808 193.924 213.807 193.936 213.807V208.807V203.807C191.396 203.807 189.104 204.752 187.288 206.477L190.732 210.102ZM193.936 208.807V213.807C193.963 213.807 193.958 213.809 193.929 213.803C193.898 213.798 193.853 213.786 193.801 213.765C193.75 213.743 193.706 213.719 193.673 213.696C193.641 213.675 193.63 213.663 193.639 213.672L197.175 210.136L200.71 206.601C198.87 204.761 196.512 203.807 193.936 203.807V208.807ZM197.175 210.136L193.685 213.718C193.687 213.719 193.662 213.695 193.626 213.642C193.59 213.589 193.55 213.519 193.516 213.434C193.442 213.249 193.439 213.111 193.44 213.088L198.436 213.273L203.433 213.458C203.531 210.806 202.554 208.396 200.664 206.555L197.175 210.136ZM198.436 213.273L193.437 213.175C193.439 213.094 193.461 212.944 193.537 212.78C193.61 212.624 193.679 212.569 193.643 212.602L197.038 216.273L200.434 219.943C202.265 218.249 203.384 215.989 203.435 213.371L198.436 213.273ZM197.038 216.273L193.643 212.602C193.622 212.621 193.62 212.62 193.638 212.609C193.656 212.598 193.685 212.581 193.724 212.566C193.763 212.551 193.798 212.542 193.824 212.537C193.849 212.532 193.854 212.534 193.834 212.534V217.534V222.534C196.332 222.534 198.61 221.63 200.434 219.943L197.038 216.273ZM219.666 209.182L224.599 210.001L225.565 204.182H219.666V209.182ZM208.075 279V284H212.314L213.008 279.819L208.075 279ZM202.007 279L197.075 278.181L196.109 284H202.007V279ZM213.598 209.182V204.182H209.36L208.666 208.363L213.598 209.182ZM219.666 209.182L214.734 208.363L203.143 278.181L208.075 279L213.008 279.819L224.599 210.001L219.666 209.182ZM208.075 279V274H202.007V279V284H208.075V279ZM202.007 279L206.94 279.819L218.531 210.001L213.598 209.182L208.666 208.363L197.075 278.181L202.007 279ZM213.598 209.182V214.182H219.666V209.182V204.182H213.598V209.182ZM266.132 238.125L267.378 242.967L271.848 241.817L271.058 237.27L266.132 238.125ZM260.303 239.625L255.389 240.551L256.378 245.798L261.549 244.467L260.303 239.625ZM258.666 235.398L254.392 237.993L254.42 238.038L254.448 238.082L258.666 235.398ZM255.291 232.398L253 236.842L253.041 236.863L253.083 236.884L255.291 232.398ZM240.393 233.864L243.158 238.03L243.171 238.021L243.184 238.013L240.393 233.864ZM235.893 240.409L240.828 241.215L240.829 241.211L235.893 240.409ZM237.291 245.83L233.638 249.243L233.653 249.259L233.668 249.275L237.291 245.83ZM243.905 249.102L242.659 253.945L242.672 253.948L243.905 249.102ZM251.541 251.045L252.791 246.204L252.782 246.202L252.774 246.2L251.541 251.045ZM260.575 256.159L256.622 259.221L256.632 259.233L256.641 259.245L260.575 256.159ZM262.45 264.955L267.38 265.789L267.384 265.767L267.387 265.746L262.45 264.955ZM258.666 272.795L254.931 269.471L254.922 269.482L254.913 269.492L258.666 272.795ZM250.962 278.148L249.053 273.526L249.041 273.531L250.962 278.148ZM228.359 276.614L225.258 280.536L225.266 280.542L225.273 280.547L228.359 276.614ZM223.655 266.591L222.564 261.711L218.464 262.628L218.66 266.825L223.655 266.591ZM229.757 265.227L234.748 264.934L234.403 259.066L228.667 260.348L229.757 265.227ZM232.928 272.25L229.749 276.11L229.76 276.119L229.771 276.128L232.928 272.25ZM251.371 271.875L254.152 276.03L254.152 276.03L251.371 271.875ZM256.109 265.057L251.189 264.167L251.176 264.238L251.166 264.309L256.109 265.057ZM254.916 259.739L251.055 262.915L251.07 262.933L251.085 262.952L254.916 259.739ZM248.984 256.602L247.767 261.452L247.783 261.456L247.8 261.46L248.984 256.602ZM240.837 254.557L239.606 259.403L239.619 259.406L240.837 254.557ZM231.53 249.341L227.534 252.347L227.55 252.368L227.567 252.389L231.53 249.341ZM229.723 240.511L234.653 241.344L234.655 241.335L234.656 241.327L229.723 240.511ZM240.666 227.795L242.584 232.413L242.599 232.407L242.614 232.4L240.666 227.795ZM261.359 229.193L258.089 232.975L258.098 232.983L258.108 232.992L261.359 229.193ZM266.132 238.125L264.886 233.283L259.057 234.783L260.303 239.625L261.549 244.467L267.378 242.967L266.132 238.125ZM260.303 239.625L265.216 238.699C264.812 236.555 264.047 234.54 262.885 232.713L258.666 235.398L254.448 238.082C254.876 238.755 255.202 239.559 255.389 240.551L260.303 239.625ZM258.666 235.398L262.94 232.803C261.622 230.631 259.738 229.014 257.5 227.912L255.291 232.398L253.083 236.884C253.799 237.236 254.165 237.619 254.392 237.993L258.666 235.398ZM255.291 232.398L257.583 227.954C255.175 226.712 252.395 226.273 249.564 226.273V231.273V236.273C251.46 236.273 252.498 236.583 253 236.842L255.291 232.398ZM249.564 231.273V226.273C245.173 226.273 241.112 227.355 237.603 229.715L240.393 233.864L243.184 238.013C244.812 236.918 246.863 236.273 249.564 236.273V231.273ZM240.393 233.864L237.628 229.698C234.084 232.05 231.646 235.37 230.958 239.608L235.893 240.409L240.829 241.211C241.004 240.13 241.567 239.086 243.158 238.03L240.393 233.864ZM235.893 240.409L230.959 239.603C230.399 243.035 231.079 246.504 233.638 249.243L237.291 245.83L240.944 242.416C240.858 242.323 240.832 242.266 240.812 242.186C240.784 242.079 240.735 241.785 240.828 241.215L235.893 240.409ZM237.291 245.83L233.668 249.275C235.931 251.656 239.202 253.055 242.659 253.944L243.905 249.102L245.151 244.26C242.426 243.559 241.287 242.776 240.915 242.384L237.291 245.83ZM243.905 249.102L242.672 253.948L250.308 255.891L251.541 251.045L252.774 246.2L245.138 244.257L243.905 249.102ZM251.541 251.045L250.292 255.887C253.948 256.83 255.767 258.116 256.622 259.221L260.575 256.159L264.528 253.097C261.793 249.566 257.589 247.442 252.791 246.204L251.541 251.045ZM260.575 256.159L256.641 259.245C257.416 260.232 257.913 261.669 257.513 264.163L262.45 264.955L267.387 265.746C268.124 261.149 267.371 256.722 264.51 253.073L260.575 256.159ZM262.45 264.955L257.52 264.12C257.18 266.134 256.34 267.889 254.931 269.471L258.666 272.795L262.401 276.12C265.038 273.157 266.721 269.684 267.38 265.789L262.45 264.955ZM258.666 272.795L254.913 269.492C253.477 271.124 251.568 272.488 249.053 273.526L250.962 278.148L252.87 282.769C256.628 281.217 259.856 279.012 262.42 276.099L258.666 272.795ZM250.962 278.148L249.041 273.531C246.615 274.541 243.803 275.091 240.53 275.091V280.091V285.091C244.939 285.091 249.081 284.346 252.882 282.764L250.962 278.148ZM240.53 280.091V275.091C236.077 275.091 233.242 274.089 231.446 272.68L228.359 276.614L225.273 280.547C229.386 283.774 234.665 285.091 240.53 285.091V280.091ZM228.359 276.614L231.461 272.692C229.859 271.426 228.799 269.544 228.649 266.357L223.655 266.591L218.66 266.825C218.92 272.365 220.996 277.165 225.258 280.536L228.359 276.614ZM223.655 266.591L224.745 271.471L230.848 270.107L229.757 265.227L228.667 260.348L222.564 261.711L223.655 266.591ZM229.757 265.227L224.766 265.521C225.008 269.647 226.497 273.432 229.749 276.11L232.928 272.25L236.106 268.39C235.494 267.887 234.869 266.989 234.748 264.934L229.757 265.227ZM232.928 272.25L229.771 276.128C232.919 278.69 236.943 279.636 241.178 279.636V274.636V269.636C238.322 269.636 236.845 268.992 236.084 268.372L232.928 272.25ZM241.178 274.636V279.636C245.991 279.636 250.412 278.534 254.152 276.03L251.371 271.875L248.589 267.72C246.829 268.898 244.455 269.636 241.178 269.636V274.636ZM251.371 271.875L254.152 276.03C257.804 273.585 260.391 270.185 261.053 265.805L256.109 265.057L251.166 264.309C251.01 265.337 250.437 266.483 248.589 267.72L251.371 271.875ZM256.109 265.057L261.03 265.947C261.627 262.641 261.059 259.282 258.747 256.526L254.916 259.739L251.085 262.952C251.169 263.052 251.2 263.123 251.222 263.22C251.249 263.34 251.286 263.631 251.189 264.167L256.109 265.057ZM254.916 259.739L258.778 256.562C256.637 253.959 253.451 252.545 250.169 251.745L248.984 256.602L247.8 261.46C250.109 262.023 250.878 262.7 251.055 262.915L254.916 259.739ZM248.984 256.602L250.202 251.753L242.054 249.707L240.837 254.557L239.619 259.406L247.767 261.452L248.984 256.602ZM240.837 254.557L242.067 249.711C238.232 248.737 236.354 247.411 235.493 246.292L231.53 249.341L227.567 252.389C230.342 255.998 234.668 258.149 239.606 259.403L240.837 254.557ZM231.53 249.341L235.525 246.335C234.71 245.251 234.244 243.767 234.653 241.344L229.723 240.511L224.793 239.679C224.02 244.256 224.759 248.658 227.534 252.347L231.53 249.341ZM229.723 240.511L234.656 241.327C234.98 239.365 235.775 237.698 237.08 236.224L233.337 232.909L229.593 229.595C227.035 232.484 225.42 235.885 224.79 239.696L229.723 240.511ZM233.337 232.909L237.08 236.224C238.462 234.662 240.26 233.379 242.584 232.413L240.666 227.795L238.748 223.178C235.164 224.667 232.074 226.792 229.593 229.595L233.337 232.909ZM240.666 227.795L242.614 232.4C244.898 231.434 247.456 230.92 250.348 230.92V225.92V220.92C246.24 220.92 242.343 221.657 238.718 223.191L240.666 227.795ZM250.348 225.92V230.92C254.489 230.92 256.805 231.865 258.089 232.975L261.359 229.193L264.63 225.411C260.868 222.158 255.843 220.92 250.348 220.92V225.92ZM261.359 229.193L258.108 232.992C259.609 234.276 260.712 236.138 261.206 238.98L266.132 238.125L271.058 237.27C270.234 232.521 268.155 228.428 264.611 225.394L261.359 229.193Z" fill="#C9C9C9" fill-opacity="0.65" mask="url(#path-1-outside-1_1622_2)"/>
<path d="M444 71C421.255 71 399.021 77.7446 380.109 90.381C361.198 103.017 346.458 120.978 337.754 141.991C329.05 163.005 326.772 186.128 331.21 208.435C335.647 230.743 346.6 251.234 362.683 267.317C378.766 283.4 399.257 294.353 421.565 298.79C443.872 303.228 466.995 300.95 488.009 292.246C509.022 283.542 526.983 268.802 539.619 249.891C552.255 230.979 559 208.745 559 186C558.965 155.511 546.838 126.28 525.279 104.721C503.72 83.1621 474.489 71.0349 444 71ZM444 278C425.804 278 408.017 272.604 392.888 262.495C377.758 252.386 365.966 238.018 359.003 221.207C352.04 204.396 350.218 185.898 353.768 168.052C357.318 150.205 366.08 133.813 378.946 120.946C391.813 108.08 408.205 99.3176 426.052 95.7678C443.898 92.2179 462.396 94.0398 479.207 101.003C496.018 107.966 510.386 119.758 520.495 134.888C530.604 150.017 536 167.804 536 186C535.972 210.391 526.27 233.776 509.023 251.023C491.776 268.27 468.391 277.972 444 278ZM455.5 183.113V128.5C455.5 125.45 454.288 122.525 452.132 120.368C449.975 118.212 447.05 117 444 117C440.95 117 438.025 118.212 435.868 120.368C433.712 122.525 432.5 125.45 432.5 128.5V186C432.502 187.894 432.968 189.758 433.859 191.43L451.109 223.616C452.549 226.306 454.999 228.313 457.919 229.197C460.839 230.08 463.99 229.768 466.68 228.328C469.37 226.888 471.377 224.438 472.26 221.518C473.144 218.598 472.831 215.446 471.391 212.757L455.5 183.113Z" fill="white"/>
<defs>
<linearGradient id="paint0_linear_1622_2" x1="300" y1="0" x2="300" y2="372" gradientUnits="userSpaceOnUse">
<stop stop-color="#4093FF"/>
<stop offset="1" stop-color="#008CFF"/>
</linearGradient>
</defs>
</svg>
